<svg xmlns="http://www.w3.org/2000/svg" xmlns:xlink="http://www.w3.org/1999/xlink" width="1440" zoomAndPan="magnify" viewBox="0 0 1080 675.000002" height="900" preserveAspectRatio="xMidYMid meet" version="1.0"><defs><clipPath id="36755dd38b"><path d="M 293 49.429688 L 882 49.429688 L 882 619 L 293 619 Z M 293 49.429688 " clip-rule="nonzero"/></clipPath><clipPath id="22912d3e90"><path d="M 177.132812 208 L 902.808594 208 L 902.808594 558 L 177.132812 558 Z M 177.132812 208 " clip-rule="nonzero"/></clipPath></defs><g clip-path="url(#36755dd38b)"><path fill="#ffffff" d="M 828.027344 618.734375 C 818.070312 618.753906 808.480469 616.902344 799.25 613.171875 C 785.976562 607.765625 773.800781 598.550781 764.027344 586.515625 C 759.304688 580.652344 755.246094 574.359375 751.851562 567.636719 C 748.457031 560.914062 745.808594 553.914062 743.898438 546.628906 C 741.34375 536.894531 740.042969 526.722656 738.785156 516.890625 C 737.40625 506.101562 735.976562 494.945312 732.886719 484.351562 C 724.921875 457.039062 705.058594 432.972656 679.757812 419.96875 C 637.988281 398.503906 598.308594 411.839844 572.375 426.8125 C 561.542969 433.0625 552.347656 441.921875 543.453125 450.488281 C 537.734375 455.996094 531.820312 461.691406 525.507812 466.667969 C 507.28125 481.039062 483.917969 489.679688 459.722656 491 C 435.160156 492.34375 411.308594 485.976562 392.570312 473.078125 C 382.726562 466.246094 374.464844 457.863281 367.777344 447.925781 C 361.046875 438.019531 356.140625 427.28125 353.054688 415.710938 C 346.585938 391.578125 348.90625 367.199219 359.589844 347.066406 C 367.214844 332.691406 378.574219 320.5625 389.5625 308.832031 C 399.363281 298.367188 409.5 287.542969 416.980469 275.140625 C 440.230469 236.59375 436.367188 181.304688 407.367188 137.5625 C 384.203125 102.617188 347.003906 73.882812 293.640625 49.714844 L 293.773438 49.429688 C 347.1875 73.621094 384.429688 102.394531 407.628906 137.386719 C 421.152344 157.789062 429.785156 182.125 431.9375 205.917969 C 434.253906 231.542969 429.175781 255.535156 417.25 275.304688 C 409.753906 287.734375 399.605469 298.570312 389.792969 309.046875 C 378.820312 320.761719 367.472656 332.875 359.867188 347.210938 C 338.175781 388.09375 353.230469 445.613281 392.75 472.820312 C 431.242188 499.320312 486.996094 496.628906 525.3125 466.421875 C 531.613281 461.457031 537.519531 455.765625 543.234375 450.261719 C 552.140625 441.683594 561.351562 432.8125 572.21875 426.539062 C 589.824219 416.375 607.652344 410.445312 625.214844 408.914062 C 629.910156 408.484375 634.613281 408.394531 639.324219 408.640625 C 644.035156 408.882812 648.703125 409.460938 653.332031 410.375 C 657.957031 411.285156 662.496094 412.523438 666.949219 414.082031 C 671.398438 415.640625 675.714844 417.511719 679.898438 419.6875 C 683.082031 421.34375 686.171875 423.15625 689.171875 425.125 C 692.171875 427.089844 695.0625 429.203125 697.851562 431.457031 C 700.640625 433.714844 703.308594 436.105469 705.855469 438.628906 C 708.402344 441.152344 710.820312 443.800781 713.101562 446.566406 C 715.386719 449.332031 717.523438 452.207031 719.519531 455.1875 C 721.515625 458.167969 723.355469 461.242188 725.042969 464.40625 C 726.726562 467.570312 728.253906 470.8125 729.613281 474.132812 C 730.976562 477.449219 732.167969 480.828125 733.191406 484.265625 C 736.285156 494.882812 737.714844 506.050781 739.097656 516.851562 C 740.355469 526.675781 741.652344 536.832031 744.203125 546.546875 C 752.15625 576.847656 773.292969 602.261719 799.371094 612.878906 C 828.035156 624.550781 862.507812 617.300781 881.335938 595.636719 L 881.574219 595.84375 C 868.726562 610.628906 848.621094 618.730469 828.027344 618.734375 Z M 828.027344 618.734375 " fill-opacity="1" fill-rule="nonzero"/></g><path fill="#ffffff" d="M 827.195312 609.945312 C 818.0625 609.96875 809.214844 608.390625 800.652344 605.214844 C 795.097656 603.089844 789.824219 600.40625 784.832031 597.167969 C 779.84375 593.929688 775.246094 590.203125 771.042969 585.996094 C 765.007812 579.996094 759.8125 573.339844 755.453125 566.03125 C 751.097656 558.71875 747.714844 550.984375 745.308594 542.820312 C 742.5625 533.605469 741.003906 523.953125 739.496094 514.621094 C 737.839844 504.371094 736.128906 493.773438 732.839844 483.691406 C 731.867188 480.710938 730.726562 477.714844 729.453125 474.785156 C 719.703125 452.421875 701.519531 433.21875 679.5625 422.101562 C 672.445312 418.460938 665.007812 415.691406 657.25 413.785156 C 649.488281 411.882812 641.613281 410.898438 633.621094 410.832031 C 633.335938 410.832031 633.050781 410.828125 632.761719 410.828125 C 613.515625 410.828125 593.980469 416.0625 574.679688 426.390625 C 565.023438 431.550781 556.875 439.035156 548.996094 446.277344 C 542.8125 451.953125 536.425781 457.824219 529.339844 462.542969 C 522.289062 467.242188 514.050781 470.304688 503.855469 473.460938 C 498.144531 475.226562 492.496094 476.757812 487.066406 478.011719 C 475.71875 480.640625 464.230469 482.285156 452.601562 482.949219 C 440.304688 483.632812 429.429688 483.015625 419.339844 481.066406 C 407.105469 478.699219 396.90625 474.757812 388.160156 469.015625 C 348.753906 443.148438 333.332031 386.476562 354.480469 345.265625 C 361.972656 330.550781 373.359375 318.097656 384.367188 306.054688 C 391.328125 298.445312 398.519531 290.574219 404.6875 282.195312 C 406.945312 279.125 408.90625 276.242188 410.679688 273.378906 C 415.171875 266.160156 418.664062 258.488281 421.152344 250.363281 C 424.675781 238.714844 426.097656 225.601562 425.382812 211.390625 C 424.023438 185.621094 414.964844 159.355469 399.882812 137.429688 C 393.683594 128.460938 386.71875 120.136719 378.984375 112.457031 C 356.113281 89.660156 325.839844 70.886719 286.433594 55.058594 L 286.550781 54.765625 C 325.996094 70.609375 356.304688 89.40625 379.207031 112.234375 C 386.953125 119.925781 393.929688 128.265625 400.140625 137.25 C 415.253906 159.222656 424.332031 185.546875 425.699219 211.375 C 426.414062 225.621094 424.984375 238.769531 421.457031 250.453125 C 418.957031 258.605469 415.457031 266.304688 410.945312 273.542969 C 409.171875 276.414062 407.207031 279.304688 404.941406 282.378906 C 398.765625 290.777344 391.566406 298.652344 384.601562 306.265625 C 373.605469 318.296875 362.234375 330.734375 354.761719 345.410156 C 333.679688 386.484375 349.054688 442.96875 388.332031 468.753906 C 397.042969 474.472656 407.207031 478.398438 419.398438 480.757812 C 429.460938 482.703125 440.316406 483.316406 452.582031 482.632812 C 464.195312 481.972656 475.664062 480.328125 486.996094 477.707031 C 492.417969 476.453125 498.058594 474.921875 503.761719 473.160156 C 513.933594 470.015625 522.144531 466.960938 529.164062 462.28125 C 536.230469 457.578125 542.609375 451.714844 548.78125 446.042969 C 556.675781 438.789062 564.839844 431.292969 574.53125 426.113281 C 593.875 415.761719 613.464844 410.515625 632.761719 410.515625 C 633.050781 410.515625 633.335938 410.515625 633.625 410.519531 C 641.640625 410.585938 649.539062 411.570312 657.324219 413.480469 C 665.109375 415.390625 672.566406 418.171875 679.703125 421.820312 C 701.726562 432.972656 719.964844 452.230469 729.738281 474.660156 C 731.019531 477.601562 732.164062 480.605469 733.140625 483.59375 C 736.433594 493.699219 738.148438 504.308594 739.808594 514.570312 C 741.3125 523.894531 742.871094 533.535156 745.609375 542.730469 C 748.007812 550.867188 751.382812 558.582031 755.726562 565.867188 C 760.066406 573.15625 765.25 579.789062 771.265625 585.769531 C 775.453125 589.964844 780.03125 593.675781 785.003906 596.902344 C 789.976562 600.128906 795.230469 602.800781 800.765625 604.917969 C 828.898438 615.507812 862.5 607.730469 880.664062 586.429688 L 880.902344 586.632812 C 871.710938 597.414062 858.886719 604.855469 843.816406 608.15625 C 838.339844 609.347656 832.800781 609.945312 827.195312 609.945312 Z M 827.195312 609.945312 " fill-opacity="1" fill-rule="nonzero"/><path fill="#ffffff" d="M 826.035156 601.714844 C 817.761719 601.738281 809.710938 600.417969 801.878906 597.757812 C 796.445312 595.859375 791.269531 593.417969 786.351562 590.433594 C 781.429688 587.453125 776.867188 583.992188 772.671875 580.058594 C 766.691406 574.5 761.492188 568.289062 757.066406 561.425781 C 752.644531 554.5625 749.136719 547.261719 746.542969 539.519531 C 743.605469 530.8125 741.785156 521.671875 740.027344 512.832031 C 738.097656 503.128906 736.101562 493.09375 732.613281 483.535156 C 731.578125 480.695312 730.386719 477.851562 729.066406 475.078125 C 718.992188 453.867188 700.8125 435.519531 679.1875 424.738281 C 672.179688 421.214844 664.875 418.492188 657.273438 416.566406 C 649.667969 414.644531 641.949219 413.5625 634.109375 413.332031 C 633.03125 413.300781 631.949219 413.28125 630.871094 413.28125 C 612.847656 413.28125 594.679688 417.714844 576.804688 426.472656 C 568.097656 430.726562 560.800781 437.128906 553.738281 443.320312 C 547.304688 448.964844 540.648438 454.800781 532.996094 458.925781 C 527.046875 462.125 520.207031 463.425781 512.28125 464.933594 C 510.570312 465.257812 508.804688 465.59375 507 465.957031 C 504.882812 466.382812 502.710938 466.832031 500.496094 467.289062 C 496.757812 468.0625 492.894531 468.859375 489.011719 469.617188 C 476.644531 472.023438 464.242188 473.910156 452.148438 475.222656 C 442.53125 476.257812 429.863281 477.28125 417.175781 475.964844 C 403.570312 474.550781 392.578125 471.117188 383.570312 465.457031 C 378.730469 462.386719 374.234375 458.875 370.085938 454.914062 C 365.9375 450.957031 362.214844 446.632812 358.921875 441.941406 C 355.609375 437.234375 352.71875 432.28125 350.246094 427.082031 C 347.773438 421.886719 345.753906 416.519531 344.191406 410.980469 C 342.628906 405.441406 341.539062 399.808594 340.929688 394.085938 C 340.320312 388.363281 340.195312 382.628906 340.554688 376.886719 C 340.90625 371.167969 341.808594 365.542969 343.261719 360.003906 C 344.714844 354.464844 346.695312 349.121094 349.195312 343.972656 C 356.59375 328.921875 368 316.117188 379.03125 303.734375 C 385.5625 296.40625 392.3125 288.828125 398.195312 280.835938 C 400.511719 277.6875 402.472656 274.835938 404.199219 272.117188 C 408.773438 265.027344 412.316406 257.457031 414.832031 249.402344 C 418.195312 238.25 419.441406 225.234375 418.535156 210.71875 C 416.9375 185.234375 407.59375 159.335938 392.214844 137.800781 C 385.9375 129.039062 378.882812 120.949219 371.058594 113.535156 C 348.285156 91.90625 317.328125 74.199219 279.042969 60.90625 L 279.148438 60.609375 C 317.472656 73.917969 348.46875 91.648438 371.273438 113.308594 C 379.113281 120.734375 386.179688 128.839844 392.472656 137.617188 C 407.882812 159.199219 417.25 185.15625 418.847656 210.699219 C 419.757812 225.253906 418.507812 238.304688 415.132812 249.496094 C 412.609375 257.574219 409.054688 265.171875 404.464844 272.285156 C 402.734375 275.011719 400.769531 277.867188 398.449219 281.023438 C 392.558594 289.027344 385.800781 296.609375 379.265625 303.941406 C 368.25 316.308594 356.855469 329.097656 349.480469 344.109375 C 329.214844 385.347656 344.902344 440.796875 383.738281 465.191406 C 392.703125 470.824219 403.652344 474.246094 417.210938 475.652344 C 429.875 476.964844 442.515625 475.945312 452.117188 474.910156 C 464.199219 473.597656 476.589844 471.714844 488.953125 469.308594 C 492.835938 468.550781 496.695312 467.753906 500.433594 466.980469 C 502.648438 466.523438 504.820312 466.074219 506.9375 465.648438 C 508.742188 465.285156 510.511719 464.949219 512.222656 464.621094 C 520.121094 463.121094 526.941406 461.828125 532.84375 458.648438 C 540.46875 454.542969 547.109375 448.714844 553.53125 443.082031 C 560.605469 436.878906 567.921875 430.460938 576.667969 426.191406 C 595.65625 416.882812 614.988281 412.449219 634.117188 413.015625 C 641.980469 413.25 649.722656 414.332031 657.347656 416.261719 C 664.972656 418.191406 672.300781 420.921875 679.328125 424.457031 C 701.015625 435.269531 719.246094 453.671875 729.351562 474.941406 C 730.671875 477.722656 731.871094 480.578125 732.910156 483.425781 C 736.402344 493.011719 738.402344 503.054688 740.335938 512.769531 C 742.09375 521.597656 743.910156 530.730469 746.839844 539.417969 C 749.425781 547.132812 752.921875 554.414062 757.332031 561.253906 C 761.742188 568.09375 766.925781 574.285156 772.882812 579.828125 C 777.066406 583.75 781.609375 587.195312 786.511719 590.164062 C 791.414062 593.136719 796.570312 595.566406 801.980469 597.460938 C 830.019531 607.117188 862.023438 599.003906 879.816406 577.726562 L 880.054688 577.925781 C 871.144531 588.585938 858.679688 596.082031 844.015625 599.601562 C 838.105469 601.011719 832.113281 601.71875 826.035156 601.714844 Z M 826.035156 601.714844 " fill-opacity="1" fill-rule="nonzero"/><path fill="#ffffff" d="M 824.703125 594.023438 C 817.300781 594.042969 810.0625 592.96875 802.984375 590.796875 C 797.679688 589.117188 792.601562 586.917969 787.746094 584.191406 C 782.894531 581.464844 778.371094 578.273438 774.179688 574.617188 C 768.257812 569.492188 763.054688 563.722656 758.566406 557.308594 C 754.078125 550.890625 750.441406 544.023438 747.65625 536.707031 C 744.523438 528.503906 742.445312 519.863281 740.429688 511.511719 C 738.230469 502.363281 735.949219 492.902344 732.269531 483.867188 C 731.171875 481.171875 729.925781 478.476562 728.566406 475.859375 C 718.015625 455.511719 700.304688 438.464844 678.695312 427.867188 C 671.796875 424.457031 664.621094 421.78125 657.175781 419.839844 C 649.726562 417.894531 642.160156 416.71875 634.476562 416.320312 C 615.847656 415.351562 597.113281 418.960938 578.8125 427.046875 C 570.867188 430.539062 564.238281 436.074219 557.828125 441.429688 C 551.292969 446.886719 544.53125 452.53125 536.527344 455.792969 C 531.707031 457.761719 526.277344 458 519.992188 458.28125 C 516.828125 458.421875 513.558594 458.570312 510.03125 458.945312 C 504.144531 459.566406 497.855469 460.566406 490.839844 461.710938 C 475.796875 464.167969 462.957031 466.21875 451.582031 467.988281 C 438.59375 469.996094 426.875 471.636719 414.894531 471.355469 C 399.875 471.003906 388.425781 468.15625 378.867188 462.390625 C 360.210938 451.144531 346.261719 432.292969 339.589844 409.304688 C 333.054688 386.800781 334.589844 362.695312 343.796875 343.167969 C 351.082031 327.714844 362.550781 314.519531 373.644531 301.761719 C 379.726562 294.765625 386.015625 287.527344 391.582031 279.96875 C 393.996094 276.691406 395.910156 273.949219 397.601562 271.347656 C 402.605469 263.632812 406.234375 256.09375 408.390625 248.9375 C 411.597656 238.304688 412.664062 225.386719 411.566406 210.542969 C 409.695312 185.269531 400.0625 159.742188 384.433594 138.660156 C 378.070312 130.101562 370.929688 122.25 363.011719 115.105469 C 339.917969 94.230469 309.140625 78.125 271.539062 67.242188 L 271.628906 66.941406 C 309.273438 77.835938 340.089844 93.964844 363.222656 114.875 C 371.15625 122.03125 378.308594 129.898438 384.6875 138.472656 C 400.347656 159.601562 410.003906 185.1875 411.878906 210.519531 C 412.980469 225.402344 411.90625 238.355469 408.695312 249.027344 C 406.527344 256.210938 402.882812 263.777344 397.863281 271.519531 C 396.171875 274.128906 394.253906 276.871094 391.835938 280.15625 C 386.261719 287.726562 379.96875 294.964844 373.882812 301.96875 C 362.804688 314.710938 351.347656 327.886719 344.082031 343.304688 C 324.625 384.558594 340.628906 438.972656 379.027344 462.121094 C 388.539062 467.855469 399.9375 470.691406 414.902344 471.039062 C 426.835938 471.324219 438.5625 469.683594 451.535156 467.675781 C 462.910156 465.910156 475.75 463.855469 490.785156 461.402344 C 497.808594 460.257812 504.101562 459.257812 509.996094 458.628906 C 513.535156 458.253906 516.808594 458.109375 519.976562 457.96875 C 526.234375 457.6875 531.640625 457.449219 536.410156 455.503906 C 544.367188 452.257812 551.109375 446.628906 557.625 441.1875 C 564.054688 435.820312 570.703125 430.269531 578.683594 426.757812 C 597.027344 418.652344 615.800781 415.035156 634.492188 416.003906 C 642.199219 416.40625 649.785156 417.582031 657.253906 419.535156 C 664.722656 421.484375 671.914062 424.167969 678.835938 427.582031 C 700.503906 438.210938 718.261719 455.304688 728.847656 475.714844 C 730.207031 478.339844 731.460938 481.042969 732.5625 483.75 C 736.25 492.804688 738.53125 502.277344 740.738281 511.4375 C 742.746094 519.78125 744.824219 528.410156 747.953125 536.59375 C 750.726562 543.886719 754.351562 550.730469 758.824219 557.125 C 763.296875 563.519531 768.484375 569.269531 774.382812 574.378906 C 778.5625 578.019531 783.066406 581.199219 787.898438 583.914062 C 792.734375 586.628906 797.792969 588.824219 803.078125 590.496094 C 830.558594 599.046875 861.722656 590.417969 878.847656 569.511719 L 879.089844 569.710938 C 870.457031 580.25 858.359375 587.796875 844.097656 591.535156 C 837.738281 593.195312 831.273438 594.023438 824.703125 594.023438 Z M 824.703125 594.023438 " fill-opacity="1" fill-rule="nonzero"/><path fill="#ffffff" d="M 823.265625 586.890625 C 816.738281 586.898438 810.328125 586.039062 804.035156 584.3125 C 798.851562 582.855469 793.871094 580.894531 789.089844 578.425781 C 784.304688 575.957031 779.820312 573.03125 775.632812 569.652344 C 769.769531 564.960938 764.5625 559.632812 760.011719 553.664062 C 755.457031 547.695312 751.691406 541.265625 748.714844 534.375 C 745.378906 526.667969 743.035156 518.519531 740.765625 510.644531 C 738.292969 502.058594 735.738281 493.179688 731.871094 484.683594 C 730.714844 482.144531 729.414062 479.601562 728.007812 477.121094 C 717.136719 457.949219 699.429688 441.738281 678.148438 431.472656 C 671.351562 428.179688 664.308594 425.554688 657.019531 423.589844 C 649.726562 421.621094 642.316406 420.355469 634.785156 419.785156 C 616.589844 418.414062 598.410156 421.210938 580.761719 428.101562 C 571.171875 431.8125 563.070312 437.554688 555.234375 443.105469 C 550.371094 446.550781 545.34375 450.113281 540.035156 453.128906 L 539.964844 453.148438 C 536.484375 453.230469 532.808594 453.03125 528.917969 452.820312 C 524.289062 452.570312 519.039062 452.285156 513 452.40625 C 506.207031 452.542969 498.53125 453.484375 492.605469 454.289062 C 479.023438 456.128906 464.621094 458.53125 450.957031 461.230469 C 449.300781 461.558594 447.660156 461.882812 446.035156 462.210938 C 434.523438 464.507812 423.652344 466.675781 412.554688 467.222656 C 402.398438 467.71875 387.363281 467.496094 374.101562 459.804688 C 355.628906 449.089844 341.722656 430.722656 334.949219 408.082031 C 328.347656 386.019531 329.582031 362.242188 338.335938 342.84375 C 345.515625 326.9375 357.078125 313.316406 368.261719 300.140625 C 373.878906 293.515625 379.691406 286.667969 384.914062 279.582031 C 386.75 277.089844 388.902344 274.125 390.945312 271.0625 C 396.226562 263.109375 399.804688 255.875 401.894531 248.949219 C 404.945312 238.808594 405.835938 225.988281 404.539062 210.84375 C 402.394531 185.785156 392.46875 160.625 376.59375 140.003906 C 370.148438 131.648438 362.917969 124.03125 354.910156 117.15625 C 325.609375 91.984375 289.289062 79.828125 263.980469 74.058594 L 264.050781 73.753906 C 289.394531 79.527344 325.761719 91.703125 355.113281 116.917969 C 363.140625 123.808594 370.382812 131.4375 376.84375 139.8125 C 392.753906 160.480469 402.703125 185.699219 404.851562 210.816406 C 406.152344 226 405.257812 238.859375 402.195312 249.039062 C 400.097656 255.996094 396.507812 263.257812 391.207031 271.234375 C 389.160156 274.304688 387.003906 277.273438 385.164062 279.769531 C 379.9375 286.863281 374.125 293.714844 368.5 300.34375 C 357.332031 313.5 345.785156 327.109375 338.621094 342.976562 C 320.027344 384.171875 336.347656 437.546875 374.257812 459.53125 C 384.300781 465.351562 396.464844 467.699219 412.539062 466.910156 C 423.613281 466.363281 434.472656 464.195312 445.972656 461.902344 C 447.601562 461.574219 449.242188 461.25 450.894531 460.921875 C 464.566406 458.222656 478.972656 455.820312 492.566406 453.976562 C 498.5 453.171875 506.183594 452.230469 512.992188 452.09375 C 519.054688 451.96875 524.304688 452.257812 528.933594 452.507812 C 532.804688 452.71875 536.464844 452.914062 539.917969 452.835938 C 545.195312 449.832031 550.207031 446.28125 555.054688 442.847656 C 562.902344 437.285156 571.019531 431.535156 580.648438 427.808594 C 598.339844 420.902344 616.5625 418.097656 634.8125 419.472656 C 642.359375 420.042969 649.789062 421.3125 657.101562 423.285156 C 664.410156 425.253906 671.472656 427.890625 678.285156 431.191406 C 699.621094 441.480469 717.378906 457.738281 728.28125 476.96875 C 729.695312 479.457031 731 482.007812 732.15625 484.550781 C 736.03125 493.070312 738.59375 501.960938 741.070312 510.554688 C 743.335938 518.425781 745.675781 526.5625 749.003906 534.25 C 751.96875 541.117188 755.722656 547.527344 760.261719 553.472656 C 764.796875 559.417969 769.988281 564.730469 775.828125 569.40625 C 780 572.773438 784.46875 575.683594 789.230469 578.144531 C 793.996094 580.601562 798.957031 582.558594 804.117188 584.007812 C 831.050781 591.453125 861.359375 582.3125 877.824219 561.78125 L 878.070312 561.976562 C 865.382812 577.800781 844.511719 586.890625 823.265625 586.890625 Z M 823.265625 586.890625 " fill-opacity="1" fill-rule="nonzero"/><path fill="#ffffff" d="M 821.722656 580.222656 C 816.101562 580.234375 810.554688 579.589844 805.085938 578.292969 C 800.03125 577.054688 795.144531 575.332031 790.429688 573.121094 C 785.71875 570.90625 781.269531 568.253906 777.085938 565.152344 C 771.289062 560.890625 766.078125 556 761.460938 550.480469 C 756.84375 544.960938 752.949219 538.972656 749.777344 532.511719 C 746.234375 525.289062 743.617188 517.621094 741.085938 510.210938 C 738.347656 502.199219 735.519531 493.914062 731.472656 485.960938 C 730.253906 483.566406 728.902344 481.175781 727.453125 478.851562 C 716.261719 460.855469 698.558594 445.476562 677.601562 435.546875 C 664.117188 429.144531 649.953125 425.203125 635.101562 423.71875 C 626.257812 422.828125 617.421875 422.878906 608.59375 423.871094 C 599.761719 424.867188 591.136719 426.78125 582.714844 429.621094 C 573.445312 432.683594 565.628906 437.628906 558.070312 442.410156 C 553.410156 445.355469 548.59375 448.402344 543.523438 450.941406 L 543.480469 450.964844 L 543.429688 450.957031 C 541.054688 450.554688 538.625 450.019531 536.054688 449.453125 C 530.417969 448.210938 524.027344 446.804688 515.976562 446.335938 C 510.28125 446.007812 503.417969 446.324219 494.378906 447.328125 C 479.542969 448.996094 464.863281 451.53125 450.332031 454.941406 C 446.816406 455.765625 443.339844 456.632812 439.980469 457.472656 C 429.789062 460.011719 420.164062 462.414062 410.214844 463.554688 C 399.402344 464.796875 383.398438 465.539062 369.339844 457.679688 C 351.058594 447.464844 337.203125 429.574219 330.324219 407.300781 C 323.648438 385.6875 324.578125 362.246094 332.878906 342.988281 C 339.957031 326.570312 351.648438 312.46875 362.957031 298.832031 C 368.09375 292.636719 373.402344 286.230469 378.246094 279.660156 C 380.125 277.109375 382.257812 274.21875 384.292969 271.238281 C 389.777344 263.175781 393.410156 256.042969 395.398438 249.425781 C 398.347656 239.613281 399.042969 227.242188 397.515625 211.609375 C 395.089844 186.757812 384.878906 161.96875 368.757812 141.808594 C 362.226562 133.65625 354.910156 126.277344 346.8125 119.675781 C 315.261719 93.957031 276.636719 84.621094 256.421875 81.34375 L 256.472656 81.03125 C 276.71875 84.3125 315.40625 93.667969 347.007812 119.429688 C 355.125 126.046875 362.457031 133.441406 369 141.613281 C 385.160156 161.816406 395.398438 186.664062 397.828125 211.578125 C 399.359375 227.253906 398.660156 239.664062 395.699219 249.515625 C 393.699219 256.164062 390.054688 263.328125 384.554688 271.414062 C 382.511719 274.398438 380.378906 277.292969 378.5 279.847656 C 373.652344 286.425781 368.335938 292.835938 363.199219 299.03125 C 351.902344 312.652344 340.226562 326.738281 333.167969 343.113281 C 315.46875 384.171875 332.105469 436.511719 369.492188 457.40625 C 383.472656 465.21875 399.410156 464.480469 410.179688 463.242188 C 420.109375 462.101562 429.722656 459.707031 439.902344 457.167969 C 443.265625 456.328125 446.742188 455.460938 450.257812 454.636719 C 464.804688 451.222656 479.496094 448.683594 494.34375 447.015625 C 503.402344 446.007812 510.28125 445.691406 515.996094 446.023438 C 524.070312 446.492188 530.472656 447.902344 536.121094 449.144531 C 538.671875 449.707031 541.082031 450.238281 543.429688 450.636719 C 548.464844 448.109375 553.261719 445.078125 557.902344 442.144531 C 565.476562 437.351562 573.308594 432.398438 582.613281 429.320312 C 591.058594 426.476562 599.703125 424.554688 608.558594 423.558594 C 617.410156 422.5625 626.269531 422.511719 635.132812 423.40625 C 650.019531 424.894531 664.21875 428.847656 677.734375 435.261719 C 698.746094 445.21875 716.496094 460.636719 727.71875 478.683594 C 729.171875 481.015625 730.53125 483.417969 731.753906 485.820312 C 735.8125 493.789062 738.644531 502.085938 741.382812 510.109375 C 743.910156 517.511719 746.523438 525.167969 750.058594 532.371094 C 753.21875 538.808594 757.101562 544.777344 761.703125 550.277344 C 766.304688 555.777344 771.492188 560.652344 777.273438 564.898438 C 781.4375 567.984375 785.867188 570.632812 790.5625 572.835938 C 795.257812 575.039062 800.125 576.753906 805.160156 577.988281 C 831.535156 584.324219 860.992188 574.671875 876.800781 554.515625 L 877.046875 554.707031 C 868.972656 565.003906 857.597656 572.65625 844.148438 576.832031 C 836.84375 579.09375 829.367188 580.222656 821.722656 580.222656 Z M 821.722656 580.222656 " fill-opacity="1" fill-rule="nonzero"/><path fill="#ffffff" d="M 820.179688 574.101562 C 815.472656 574.109375 810.816406 573.652344 806.203125 572.726562 C 796.238281 570.671875 787.039062 566.796875 778.605469 561.105469 C 772.867188 557.269531 767.660156 552.816406 762.976562 547.746094 C 758.292969 542.671875 754.269531 537.125 750.902344 531.101562 C 747.140625 524.351562 744.242188 517.15625 741.441406 510.199219 C 738.449219 502.769531 735.355469 495.089844 731.140625 487.695312 C 729.867188 485.460938 728.460938 483.21875 726.960938 481.03125 C 715.464844 464.21875 697.765625 449.671875 677.121094 440.074219 C 663.863281 433.914062 649.980469 429.921875 635.476562 428.105469 C 626.988281 427.011719 618.472656 426.757812 609.929688 427.347656 C 601.390625 427.933594 592.988281 429.347656 584.726562 431.59375 C 575.804688 434.023438 568.289062 438.148438 561.015625 442.140625 C 556.542969 444.59375 551.917969 447.132812 547.070312 449.207031 L 547.015625 449.230469 L 546.957031 449.207031 C 545.253906 448.59375 543.535156 447.910156 541.722656 447.1875 C 535.535156 444.730469 528.527344 441.941406 519.015625 440.71875 C 512.949219 439.9375 505.703125 439.972656 496.210938 440.820312 C 480.492188 442.246094 465.011719 445.007812 449.769531 449.105469 C 444.871094 450.425781 440.082031 451.859375 435.449219 453.25 C 426.058594 456.066406 417.1875 458.726562 407.933594 460.339844 C 396.5 462.339844 379.570312 464.0625 364.640625 456.011719 C 346.566406 446.261719 332.761719 428.839844 325.773438 406.953125 C 319.015625 385.789062 319.640625 362.691406 327.484375 343.582031 C 334.457031 326.59375 346.320312 311.964844 357.792969 297.816406 C 362.425781 292.105469 367.210938 286.199219 371.640625 280.191406 L 372.6875 278.777344 C 374.335938 276.546875 376.039062 274.242188 377.703125 271.867188 C 383.460938 263.605469 387.039062 256.769531 388.964844 250.355469 C 391.777344 240.984375 392.300781 228.710938 390.554688 212.828125 C 387.847656 188.171875 377.34375 163.753906 360.984375 144.070312 C 354.363281 136.113281 346.960938 128.972656 338.773438 122.644531 C 306.394531 97.640625 268.585938 90.878906 248.929688 89.078125 L 248.957031 88.765625 C 264.457031 90.210938 279.554688 93.484375 294.257812 98.59375 C 311.09375 104.476562 326.136719 112.484375 338.964844 122.394531 C 347.171875 128.734375 354.589844 135.894531 361.222656 143.867188 C 377.625 163.597656 388.152344 188.078125 390.867188 212.792969 C 392.617188 228.71875 392.09375 241.035156 389.265625 250.449219 C 387.332031 256.894531 383.738281 263.757812 377.960938 272.046875 C 376.296875 274.425781 374.589844 276.734375 372.941406 278.964844 L 371.894531 280.378906 C 367.460938 286.390625 362.671875 292.300781 358.039062 298.011719 C 346.578125 312.144531 334.730469 326.757812 327.773438 343.703125 C 311.003906 384.566406 327.953125 435.871094 364.792969 455.734375 C 379.636719 463.738281 396.492188 462.019531 407.882812 460.03125 C 417.117188 458.417969 425.976562 455.761719 435.359375 452.949219 C 439.992188 451.558594 444.785156 450.121094 449.6875 448.800781 C 464.949219 444.699219 480.449219 441.9375 496.1875 440.507812 C 505.699219 439.65625 512.96875 439.625 519.054688 440.40625 C 528.605469 441.632812 535.632812 444.429688 541.835938 446.898438 C 543.628906 447.609375 545.324219 448.285156 547.003906 448.890625 C 551.816406 446.832031 556.414062 444.304688 560.863281 441.863281 C 568.152344 437.867188 575.6875 433.730469 584.644531 431.289062 C 592.925781 429.039062 601.347656 427.621094 609.90625 427.03125 C 618.46875 426.445312 627.003906 426.699219 635.515625 427.792969 C 650.054688 429.617188 663.964844 433.613281 677.25 439.789062 C 697.949219 449.410156 715.691406 463.996094 727.21875 480.855469 C 728.722656 483.050781 730.136719 485.296875 731.414062 487.539062 C 735.636719 494.953125 738.734375 502.644531 741.730469 510.082031 C 744.53125 517.03125 747.421875 524.214844 751.175781 530.945312 C 754.53125 536.949219 758.542969 542.476562 763.207031 547.53125 C 767.871094 552.582031 773.0625 557.019531 778.78125 560.84375 C 787.179688 566.511719 796.34375 570.371094 806.265625 572.417969 C 832.484375 577.730469 860.441406 567.800781 875.839844 547.699219 L 876.089844 547.890625 C 868.292969 558.066406 857.28125 565.769531 844.238281 570.167969 C 836.433594 572.785156 828.414062 574.097656 820.179688 574.101562 Z M 820.179688 574.101562 " fill-opacity="1" fill-rule="nonzero"/><path fill="#ffffff" d="M 818.859375 568.519531 C 815.03125 568.523438 811.222656 568.214844 807.441406 567.597656 C 797.726562 565.976562 788.664062 562.609375 780.25 557.496094 C 774.574219 554.078125 769.363281 550.058594 764.617188 545.4375 C 759.871094 540.8125 755.714844 535.710938 752.152344 530.125 C 748.152344 523.839844 744.960938 517.097656 741.871094 510.578125 C 738.640625 503.75 735.292969 496.6875 730.929688 489.867188 C 729.589844 487.773438 728.128906 485.683594 726.59375 483.652344 C 714.800781 468.027344 697.101562 454.3125 676.757812 445.035156 C 663.722656 439.113281 650.128906 435.078125 635.976562 432.929688 C 627.824219 431.640625 619.621094 431.082031 611.371094 431.265625 C 603.121094 431.445312 594.949219 432.355469 586.863281 434 C 578.292969 435.78125 571.078125 439.089844 564.101562 442.292969 C 559.8125 444.261719 555.371094 446.300781 550.742188 447.90625 L 550.675781 447.929688 L 550.613281 447.898438 C 549.328125 447.183594 548.046875 446.441406 546.691406 445.652344 C 540.191406 441.875 532.828125 437.589844 522.179688 435.535156 C 515.867188 434.320312 508.015625 434.0625 498.171875 434.753906 C 481.5625 435.9375 465.28125 438.921875 449.328125 443.703125 C 443.320312 445.515625 437.507812 447.542969 431.882812 449.507812 C 422.996094 452.609375 414.601562 455.539062 405.78125 457.5625 C 386.660156 461.949219 372.132812 461.066406 360.066406 454.78125 C 342.199219 445.472656 328.449219 428.511719 321.351562 407.023438 C 314.515625 386.316406 314.828125 363.570312 322.214844 344.613281 C 329.085938 326.976562 341.171875 311.753906 352.859375 297.035156 C 356.957031 291.875 361.191406 286.542969 365.160156 281.164062 C 365.839844 280.238281 366.539062 279.300781 367.25 278.351562 C 368.558594 276.597656 369.910156 274.785156 371.238281 272.933594 C 374.980469 267.691406 380.238281 259.785156 382.65625 251.726562 C 386.234375 239.789062 384.976562 224.753906 383.71875 214.484375 C 380.722656 190.019531 369.929688 165.972656 353.332031 146.765625 C 346.625 139.007812 339.136719 132.101562 330.859375 126.050781 C 296.289062 100.808594 256.890625 97.5 241.558594 97.25 L 241.5625 96.933594 C 256.734375 97.246094 271.585938 99.578125 286.125 103.925781 C 302.933594 108.945312 318.046875 116.304688 331.046875 125.796875 C 339.339844 131.863281 346.847656 138.785156 353.570312 146.5625 C 370.207031 165.8125 381.027344 189.921875 384.03125 214.445312 C 385.292969 224.746094 386.550781 239.820312 382.957031 251.816406 C 380.527344 259.921875 375.25 267.855469 371.492188 273.117188 C 370.164062 274.96875 368.808594 276.785156 367.5 278.539062 C 366.792969 279.488281 366.09375 280.425781 365.414062 281.347656 C 361.441406 286.734375 357.203125 292.070312 353.105469 297.230469 C 341.433594 311.933594 329.363281 327.136719 322.507812 344.730469 C 306.683594 385.339844 323.949219 435.609375 360.210938 454.5 C 372.210938 460.75 386.667969 461.625 405.707031 457.257812 C 414.511719 455.238281 422.902344 452.308594 431.78125 449.210938 C 437.40625 447.246094 443.222656 445.214844 449.238281 443.402344 C 465.210938 438.613281 481.515625 435.625 498.152344 434.4375 C 508.023438 433.746094 515.902344 434.003906 522.238281 435.226562 C 532.9375 437.292969 540.328125 441.589844 546.851562 445.378906 C 548.183594 446.15625 549.441406 446.886719 550.707031 447.585938 C 555.296875 445.988281 559.707031 443.964844 563.972656 442.007812 C 570.964844 438.796875 578.191406 435.480469 586.796875 433.691406 C 594.902344 432.042969 603.09375 431.128906 611.363281 430.949219 C 619.632812 430.769531 627.851562 431.324219 636.023438 432.617188 C 650.207031 434.773438 663.828125 438.816406 676.890625 444.75 C 697.28125 454.046875 715.023438 467.796875 726.84375 483.460938 C 728.386719 485.5 729.851562 487.597656 731.195312 489.695312 C 735.570312 496.535156 738.917969 503.605469 742.15625 510.445312 C 745.382812 517.253906 748.425781 523.6875 752.417969 529.957031 C 755.96875 535.519531 760.109375 540.605469 764.835938 545.210938 C 769.5625 549.816406 774.753906 553.824219 780.410156 557.226562 C 788.792969 562.320312 797.820312 565.675781 807.492188 567.289062 C 833.128906 571.476562 860.253906 561.042969 875.003906 541.324219 L 875.257812 541.511719 C 862.621094 558.40625 840.9375 568.519531 818.859375 568.519531 Z M 818.859375 568.519531 " fill-opacity="1" fill-rule="nonzero"/><path fill="#ffffff" d="M 817.234375 563.527344 C 814.433594 563.527344 811.644531 563.359375 808.863281 563.023438 C 799.402344 561.824219 790.472656 558.964844 782.074219 554.441406 C 776.464844 551.433594 771.253906 547.839844 766.449219 543.664062 C 761.640625 539.492188 757.351562 534.839844 753.585938 529.707031 C 749.328125 523.867188 745.976562 517.847656 742.433594 511.472656 C 738.972656 505.253906 735.398438 498.824219 730.902344 492.589844 C 729.503906 490.648438 727.992188 488.710938 726.40625 486.824219 C 714.339844 472.394531 696.644531 459.515625 676.582031 450.554688 C 663.765625 444.867188 650.457031 440.785156 636.65625 438.304688 C 620.308594 435.335938 604.335938 434.882812 589.179688 436.960938 C 580.980469 438.089844 574.089844 440.578125 567.421875 442.984375 C 563.296875 444.476562 559.027344 446.015625 554.59375 447.164062 L 554.519531 447.183594 L 554.457031 447.136719 C 553.449219 446.382812 552.449219 445.613281 551.390625 444.800781 C 544.703125 439.660156 537.125 433.832031 525.527344 430.90625 C 518.90625 429.238281 510.660156 428.691406 500.316406 429.238281 C 482.808594 430.179688 465.726562 433.386719 449.070312 438.855469 C 442.136719 441.148438 435.480469 443.785156 429.042969 446.335938 C 420.46875 449.734375 412.367188 452.945312 403.804688 455.339844 C 384.046875 460.863281 368.300781 460.460938 355.671875 454.101562 C 338.023438 445.210938 324.332031 428.707031 317.121094 407.628906 C 310.195312 387.382812 310.199219 364.996094 317.125 346.199219 C 323.898438 327.828125 336.265625 311.949219 348.226562 296.589844 C 351.75 292.058594 355.398438 287.375 358.863281 282.683594 C 359.78125 281.4375 360.726562 280.1875 361.726562 278.863281 C 362.785156 277.464844 363.875 276.019531 364.953125 274.554688 C 369.144531 268.828125 374.242188 261.277344 376.527344 253.644531 C 379.910156 242.347656 378.589844 227.964844 377.0625 216.695312 C 373.773438 192.417969 362.691406 168.738281 345.863281 150.019531 C 339.070312 142.453125 331.492188 135.785156 323.128906 130.007812 C 298.386719 112.960938 265.214844 103.976562 234.375 105.972656 L 234.355469 105.65625 C 248.363281 104.75 263.515625 106.1875 278.175781 109.816406 C 294.941406 113.960938 310.128906 120.667969 323.308594 129.75 C 331.691406 135.539062 339.289062 142.226562 346.09375 149.808594 C 362.96875 168.574219 374.078125 192.3125 377.375 216.652344 C 378.90625 227.953125 380.230469 242.382812 376.832031 253.738281 C 374.53125 261.414062 369.410156 268.992188 365.207031 274.742188 C 364.128906 276.207031 363.035156 277.652344 361.976562 279.050781 C 360.980469 280.375 360.035156 281.625 359.113281 282.871094 C 355.648438 287.566406 352 292.25 348.472656 296.78125 C 336.527344 312.121094 324.175781 327.984375 317.421875 346.308594 C 302.5625 386.621094 320.144531 435.855469 355.816406 453.820312 C 368.367188 460.140625 384.042969 460.539062 403.722656 455.035156 C 412.265625 452.648438 420.359375 449.441406 428.929688 446.042969 C 435.367188 443.492188 442.027344 440.855469 448.972656 438.558594 C 465.65625 433.078125 482.761719 429.867188 500.296875 428.921875 C 510.675781 428.375 518.953125 428.925781 525.605469 430.601562 C 537.265625 433.542969 544.871094 439.390625 551.582031 444.550781 C 552.617188 445.347656 553.597656 446.101562 554.585938 446.839844 C 558.980469 445.699219 563.027344 444.238281 567.316406 442.6875 C 573.996094 440.277344 580.90625 437.78125 589.136719 436.652344 C 604.324219 434.566406 620.332031 435.019531 636.714844 437.996094 C 650.539062 440.480469 663.871094 444.570312 676.710938 450.265625 C 696.816406 459.246094 714.550781 472.15625 726.648438 486.621094 C 728.238281 488.511719 729.753906 490.460938 731.160156 492.40625 C 735.664062 498.65625 739.242188 505.09375 742.707031 511.320312 C 746.25 517.683594 749.59375 523.699219 753.835938 529.519531 C 757.589844 534.632812 761.863281 539.269531 766.652344 543.429688 C 771.441406 547.585938 776.632812 551.164062 782.222656 554.164062 C 790.585938 558.667969 799.480469 561.519531 808.902344 562.710938 C 833.945312 565.777344 860.25 554.839844 874.351562 535.5 L 874.605469 535.6875 C 867.363281 545.621094 857.070312 553.429688 844.847656 558.261719 C 835.972656 561.753906 826.769531 563.507812 817.234375 563.527344 Z M 817.234375 563.527344 " fill-opacity="1" fill-rule="nonzero"/><path fill="#ffffff" d="M 816.125 559.433594 C 814.253906 559.433594 812.390625 559.359375 810.53125 559.210938 C 801.3125 558.441406 792.515625 556.085938 784.144531 552.148438 C 778.59375 549.546875 773.382812 546.378906 768.511719 542.652344 C 763.644531 538.929688 759.226562 534.726562 755.261719 530.046875 C 750.710938 524.644531 747.039062 519.023438 743.144531 513.070312 C 739.488281 507.484375 735.710938 501.703125 731.121094 496.078125 C 729.660156 494.289062 728.09375 492.5 726.464844 490.757812 C 714.140625 477.535156 696.449219 465.484375 676.648438 456.832031 C 664.050781 451.363281 651.027344 447.234375 637.582031 444.445312 C 621.65625 441.070312 606.226562 439.804688 591.738281 440.6875 C 583.945312 441.160156 577.398438 442.824219 571.070312 444.433594 C 566.894531 445.492188 562.953125 446.496094 558.683594 447.179688 L 558.605469 447.191406 L 558.550781 447.140625 C 557.726562 446.363281 556.894531 445.570312 556.054688 444.761719 C 549.253906 438.238281 541.542969 430.847656 529.121094 427.039062 C 522.199219 424.917969 513.550781 424.082031 502.699219 424.484375 C 484.292969 425.179688 466.414062 428.609375 449.054688 434.773438 C 441.308594 437.542969 433.933594 440.792969 426.800781 443.941406 C 418.410156 447.640625 410.484375 451.136719 402.074219 453.878906 C 381.441406 460.601562 364.90625 460.703125 351.523438 454.183594 C 334.09375 445.691406 320.460938 429.640625 313.136719 408.984375 C 306.125 389.203125 305.808594 367.175781 312.28125 348.550781 C 318.953125 329.339844 331.675781 312.71875 343.976562 296.644531 C 346.894531 292.832031 349.910156 288.890625 352.804688 284.96875 C 353.929688 283.445312 355.109375 281.910156 356.359375 280.28125 C 357.203125 279.183594 358.058594 278.070312 358.914062 276.9375 C 363.496094 270.824219 368.472656 263.59375 370.644531 256.328125 C 373.859375 245.578125 372.453125 231.765625 370.652344 219.667969 C 367.0625 195.570312 355.691406 172.257812 338.636719 154.03125 C 331.757812 146.664062 324.09375 140.230469 315.640625 134.730469 C 285.539062 115.207031 250.339844 111.976562 227.429688 115.457031 L 227.382812 115.144531 C 250.347656 111.65625 285.636719 114.894531 315.8125 134.46875 C 324.285156 139.980469 331.96875 146.429688 338.867188 153.816406 C 355.964844 172.089844 367.363281 195.460938 370.964844 219.621094 C 372.769531 231.753906 374.179688 245.609375 370.945312 256.421875 C 368.757812 263.730469 363.765625 270.992188 359.164062 277.125 C 358.308594 278.261719 357.453125 279.375 356.609375 280.472656 C 355.359375 282.101562 354.179688 283.636719 353.058594 285.15625 C 350.160156 289.082031 347.144531 293.023438 344.226562 296.835938 C 331.941406 312.890625 319.234375 329.488281 312.578125 348.652344 C 298.695312 388.621094 316.59375 436.816406 351.660156 453.902344 C 364.964844 460.382812 381.421875 460.277344 401.976562 453.578125 C 410.375 450.839844 418.289062 447.347656 426.671875 443.652344 C 433.8125 440.503906 441.191406 437.25 448.949219 434.476562 C 466.335938 428.304688 484.25 424.867188 502.6875 424.167969 C 513.578125 423.765625 522.257812 424.609375 529.214844 426.738281 C 541.707031 430.570312 549.445312 437.988281 556.273438 444.535156 C 557.09375 445.324219 557.902344 446.097656 558.710938 446.859375 C 562.9375 446.175781 566.847656 445.179688 570.992188 444.128906 C 577.335938 442.515625 583.894531 440.847656 591.71875 440.371094 C 606.242188 439.492188 621.695312 440.757812 637.648438 444.136719 C 651.113281 446.929688 664.15625 451.066406 676.773438 456.542969 C 696.613281 465.214844 714.34375 477.289062 726.695312 490.542969 C 728.328125 492.289062 729.898438 494.085938 731.363281 495.878906 C 735.964844 501.519531 739.75 507.304688 743.410156 512.898438 C 747.296875 518.84375 750.964844 524.457031 755.5 529.847656 C 759.453125 534.503906 763.851562 538.691406 768.703125 542.402344 C 773.554688 546.117188 778.746094 549.269531 784.277344 551.863281 C 792.613281 555.785156 801.375 558.128906 810.554688 558.898438 C 835.410156 560.871094 860.265625 549.699219 873.941406 530.441406 L 874.195312 530.621094 C 867.226562 540.4375 857.300781 548.296875 845.488281 553.347656 C 840.847656 555.34375 836.054688 556.851562 831.113281 557.875 C 826.167969 558.898438 821.171875 559.417969 816.125 559.433594 Z M 816.125 559.433594 " fill-opacity="1" fill-rule="nonzero"/><path fill="#ffffff" d="M 814.960938 556.121094 C 814.140625 556.121094 813.320312 556.105469 812.5 556.078125 C 803.519531 555.730469 794.859375 553.882812 786.519531 550.535156 C 781.023438 548.332031 775.808594 545.589844 770.878906 542.3125 C 765.949219 539.03125 761.402344 535.285156 757.242188 531.070312 C 752.359375 526.085938 748.3125 520.84375 744.03125 515.289062 C 740.222656 510.351562 736.28125 505.242188 731.640625 500.246094 C 730.121094 498.609375 728.5 496.96875 726.828125 495.375 C 714.289062 483.371094 696.597656 472.15625 677.015625 463.792969 C 665.523438 458.855469 653.027344 454.757812 638.808594 451.261719 C 623.292969 447.480469 608.417969 445.402344 594.597656 445.089844 C 587.265625 444.921875 581.113281 445.765625 575.160156 446.578125 C 571.082031 447.136719 567.226562 447.664062 563.074219 447.875 L 563 447.878906 L 562.949219 447.824219 C 562.253906 447.035156 561.554688 446.230469 560.847656 445.417969 C 553.976562 437.511719 546.1875 428.550781 533.015625 423.851562 C 525.800781 421.28125 516.761719 420.152344 505.386719 420.410156 C 495.804688 420.632812 486.308594 421.664062 476.902344 423.503906 C 467.492188 425.34375 458.308594 427.964844 449.34375 431.367188 C 440.871094 434.605469 432.859375 438.480469 425.105469 442.226562 C 416.820312 446.234375 408.988281 450.019531 400.644531 453.09375 C 379.164062 461.015625 361.839844 461.621094 347.675781 454.945312 C 330.472656 446.835938 316.898438 431.234375 309.460938 411.007812 C 302.355469 391.691406 301.726562 370.03125 307.738281 351.578125 C 314.308594 331.410156 327.476562 313.953125 340.207031 297.074219 C 342.460938 294.085938 344.792969 290.992188 347.054688 287.933594 C 348.335938 286.199219 349.714844 284.4375 351.175781 282.566406 C 351.835938 281.722656 352.503906 280.867188 353.175781 280 C 358.125 273.554688 362.992188 266.636719 365.066406 259.695312 C 368.144531 249.382812 366.527344 235.519531 364.542969 223.320312 C 360.707031 199.742188 348.742188 176.199219 331.714844 158.722656 C 324.746094 151.550781 316.992188 145.351562 308.457031 140.132812 C 277.292969 121.152344 241.753906 120.453125 220.792969 125.621094 L 220.71875 125.3125 C 233.285156 122.214844 248.324219 121.675781 263.0625 123.796875 C 279.484375 126.160156 295.238281 131.714844 308.621094 139.863281 C 317.179688 145.097656 324.953125 151.3125 331.941406 158.503906 C 349.011719 176.023438 361.007812 199.628906 364.851562 223.269531 C 366.84375 235.507812 368.460938 249.414062 365.367188 259.785156 C 363.277344 266.777344 358.394531 273.722656 353.425781 280.191406 C 352.753906 281.058594 352.085938 281.914062 351.421875 282.761719 C 349.964844 284.628906 348.585938 286.390625 347.308594 288.121094 C 345.046875 291.183594 342.714844 294.273438 340.457031 297.265625 C 327.742188 314.125 314.59375 331.554688 308.039062 351.675781 C 295.140625 391.261719 313.355469 438.421875 347.8125 454.664062 C 361.894531 461.296875 379.136719 460.691406 400.535156 452.800781 C 408.867188 449.726562 416.6875 445.945312 424.96875 441.945312 C 432.726562 438.195312 440.746094 434.316406 449.230469 431.074219 C 458.210938 427.667969 467.414062 425.039062 476.839844 423.195312 C 486.265625 421.355469 495.777344 420.320312 505.382812 420.09375 C 516.792969 419.835938 525.867188 420.96875 533.121094 423.558594 C 546.371094 428.28125 554.1875 437.273438 561.085938 445.210938 C 561.773438 446.003906 562.457031 446.785156 563.136719 447.558594 C 567.242188 447.34375 571.070312 446.820312 575.117188 446.265625 C 581.082031 445.453125 587.257812 444.609375 594.605469 444.773438 C 608.445312 445.089844 623.34375 447.167969 638.882812 450.957031 C 653.117188 454.457031 665.632812 458.5625 677.140625 463.503906 C 696.753906 471.878906 714.480469 483.117188 727.046875 495.148438 C 728.722656 496.746094 730.347656 498.390625 731.871094 500.03125 C 736.523438 505.039062 740.464844 510.152344 744.28125 515.097656 C 748.558594 520.640625 752.597656 525.878906 757.464844 530.851562 C 761.609375 535.050781 766.140625 538.78125 771.050781 542.046875 C 775.964844 545.316406 781.160156 548.046875 786.632812 550.242188 C 794.941406 553.578125 803.566406 555.417969 812.511719 555.761719 C 813.328125 555.792969 814.144531 555.804688 814.960938 555.804688 C 838.339844 555.804688 861.238281 544.304688 873.832031 526.058594 L 874.089844 526.238281 C 861.4375 544.566406 838.4375 556.121094 814.960938 556.121094 Z M 814.960938 556.121094 " fill-opacity="1" fill-rule="nonzero"/><path fill="#ffffff" d="M 814.066406 553.546875 C 805.582031 553.535156 797.3125 552.191406 789.261719 549.519531 C 783.816406 547.707031 778.597656 545.386719 773.605469 542.554688 C 768.613281 539.722656 763.941406 536.4375 759.59375 532.691406 C 754.304688 528.105469 749.828125 523.210938 745.085938 518.027344 C 741.183594 513.761719 737.148438 509.347656 732.53125 505.011719 C 730.949219 503.523438 729.273438 502.035156 727.558594 500.589844 C 714.675781 489.671875 697.453125 479.558594 677.753906 471.351562 C 666.878906 466.789062 655.011719 462.765625 640.40625 458.679688 C 625.25 454.476562 610.921875 451.585938 597.824219 450.089844 C 591.066406 449.316406 585.382812 449.363281 579.875 449.402344 C 575.800781 449.433594 571.953125 449.460938 567.832031 449.167969 L 567.761719 449.164062 L 567.71875 449.105469 C 567.113281 448.304688 566.507812 447.492188 565.898438 446.667969 C 558.984375 437.378906 551.144531 426.851562 537.28125 421.265625 C 530.046875 418.347656 521.023438 416.929688 509.730469 416.929688 C 509.304688 416.929688 508.875 416.929688 508.445312 416.933594 C 498.425781 417.035156 488.503906 418.0625 478.679688 420.019531 C 468.851562 421.972656 459.292969 424.820312 450 428.5625 C 440.863281 432.265625 432.269531 436.761719 423.957031 441.113281 C 415.710938 445.429688 407.917969 449.507812 399.582031 452.910156 C 377.277344 462.019531 359.160156 463.132812 344.199219 456.308594 C 327.21875 448.566406 313.707031 433.402344 306.152344 413.617188 C 298.953125 394.769531 298.011719 373.476562 303.566406 355.203125 C 310.03125 333.933594 323.75 315.539062 337.019531 297.75 C 338.574219 295.667969 340.125 293.582031 341.671875 291.496094 C 343.078125 289.59375 344.632812 287.640625 346.28125 285.578125 C 346.789062 284.945312 347.296875 284.304688 347.808594 283.660156 C 352.542969 277.644531 357.769531 270.644531 359.851562 263.65625 C 363.199219 252.421875 360.339844 236.257812 358.804688 227.570312 C 354.664062 204.160156 342.402344 180.996094 325.160156 164.015625 C 318.097656 157.035156 310.257812 151.074219 301.644531 146.132812 C 271.464844 128.925781 236.144531 128.835938 214.523438 136.378906 L 214.421875 136.082031 C 226.375 131.914062 241.152344 130.363281 256.023438 131.726562 C 272.382812 133.226562 288.210938 138.113281 301.796875 145.859375 C 310.4375 150.8125 318.300781 156.789062 325.382812 163.792969 C 342.664062 180.816406 354.960938 204.042969 359.113281 227.515625 C 360.65625 236.226562 363.523438 252.441406 360.152344 263.746094 C 358.054688 270.785156 352.808594 277.816406 348.054688 283.855469 C 347.542969 284.5 347.035156 285.140625 346.527344 285.773438 C 344.882812 287.835938 343.328125 289.785156 341.921875 291.683594 C 340.378906 293.773438 338.828125 295.859375 337.273438 297.941406 C 324.019531 315.707031 310.316406 334.078125 303.863281 355.296875 C 291.960938 394.464844 310.492188 440.589844 344.328125 456.023438 C 359.210938 462.808594 377.246094 461.695312 399.464844 452.621094 C 407.785156 449.222656 415.570312 445.148438 423.8125 440.832031 C 432.128906 436.480469 440.730469 431.980469 449.882812 428.273438 C 459.195312 424.523438 468.773438 421.667969 478.617188 419.710938 C 488.460938 417.75 498.402344 416.722656 508.441406 416.621094 C 508.875 416.617188 509.304688 416.613281 509.730469 416.613281 C 521.066406 416.613281 530.125 418.042969 537.398438 420.972656 C 551.347656 426.589844 559.210938 437.160156 566.152344 446.480469 C 566.746094 447.28125 567.339844 448.074219 567.925781 448.859375 C 572.011719 449.144531 575.832031 449.117188 579.875 449.085938 C 585.382812 449.046875 591.082031 449.003906 597.859375 449.777344 C 610.976562 451.273438 625.316406 454.167969 640.488281 458.375 C 655.109375 462.464844 666.988281 466.496094 677.875 471.058594 C 697.605469 479.28125 714.855469 489.410156 727.765625 500.347656 C 729.480469 501.796875 731.160156 503.289062 732.75 504.78125 C 737.375 509.128906 741.410156 513.542969 745.316406 517.816406 C 750.050781 522.992188 754.523438 527.882812 759.800781 532.453125 C 764.132812 536.183594 768.785156 539.460938 773.761719 542.28125 C 778.734375 545.105469 783.933594 547.417969 789.359375 549.222656 C 797.628906 551.96875 806.121094 553.304688 814.835938 553.226562 C 838.789062 552.929688 861.496094 541.070312 874.09375 522.277344 L 874.355469 522.453125 C 867.929688 532.035156 858.726562 540 847.742188 545.480469 C 842.628906 548.039062 837.296875 550 831.742188 551.359375 C 826.191406 552.722656 820.554688 553.449219 814.839844 553.542969 C 814.582031 553.546875 814.324219 553.546875 814.066406 553.546875 Z M 814.066406 553.546875 " fill-opacity="1" fill-rule="nonzero"/><path fill="#ffffff" d="M 812.925781 551.617188 C 805.984375 551.605469 799.15625 550.726562 792.441406 548.972656 C 781.542969 546.101562 771.523438 541.371094 762.382812 534.785156 C 756.589844 530.582031 751.585938 526.003906 746.289062 521.15625 C 742.386719 517.585938 738.355469 513.898438 733.863281 510.246094 C 732.214844 508.90625 730.488281 507.570312 728.730469 506.273438 C 715.785156 496.652344 698.5625 487.351562 678.929688 479.378906 C 666.054688 474.117188 653.34375 470.003906 642.4375 466.566406 C 627.496094 461.886719 613.71875 458.183594 601.488281 455.558594 C 595.519531 454.277344 590.457031 453.59375 585.5625 452.933594 C 581.308594 452.359375 577.292969 451.816406 573.027344 450.929688 L 572.964844 450.914062 L 572.929688 450.859375 C 572.390625 450.042969 571.851562 449.214844 571.3125 448.382812 C 564.371094 437.710938 556.503906 425.621094 541.984375 419.144531 C 534.1875 415.667969 524.359375 413.960938 511.941406 413.929688 C 511.804688 413.925781 511.664062 413.925781 511.527344 413.925781 C 501.144531 413.933594 490.867188 414.972656 480.691406 417.042969 C 470.519531 419.113281 460.652344 422.175781 451.09375 426.226562 C 441.335938 430.386719 432.207031 435.507812 423.382812 440.460938 C 415.488281 444.890625 407.328125 449.46875 398.957031 453.199219 C 376.167969 463.34375 356.722656 465.007812 341.15625 458.140625 C 324.40625 450.75 310.953125 436.027344 303.28125 416.6875 C 295.988281 398.304688 294.730469 377.390625 299.828125 359.300781 C 306.183594 336.753906 320.601562 317.296875 334.542969 298.476562 L 336.722656 295.53125 C 338.230469 293.492188 339.941406 291.390625 341.757812 289.164062 L 342.875 287.792969 C 347.957031 281.496094 353.082031 274.789062 355.078125 268.089844 C 358.292969 257.289062 355.292969 241.640625 353.5 232.292969 C 349.046875 209.039062 336.488281 186.253906 319.046875 169.777344 C 311.890625 162.984375 303.964844 157.261719 295.265625 152.605469 C 268.660156 138.445312 233.054688 136.390625 208.691406 147.609375 L 208.558594 147.324219 C 219.910156 142.097656 234.417969 139.542969 249.425781 140.128906 C 265.707031 140.761719 281.609375 144.980469 295.414062 152.328125 C 304.136719 156.996094 312.085938 162.738281 319.261719 169.546875 C 336.75 186.070312 349.34375 208.917969 353.808594 232.234375 C 355.605469 241.609375 358.613281 257.304688 355.378906 268.179688 C 353.367188 274.933594 348.21875 281.667969 343.121094 287.988281 L 342 289.363281 C 340.191406 291.585938 338.480469 293.683594 336.976562 295.71875 L 334.796875 298.664062 C 320.871094 317.460938 306.472656 336.894531 300.132812 359.386719 C 290.410156 393.878906 304.625 441.675781 341.285156 457.851562 C 356.761719 464.683594 376.125 463.019531 398.828125 452.910156 C 407.1875 449.1875 415.339844 444.613281 423.226562 440.1875 C 432.0625 435.230469 441.195312 430.105469 450.96875 425.9375 C 460.546875 421.875 470.433594 418.808594 480.628906 416.734375 C 490.824219 414.660156 501.125 413.617188 511.527344 413.613281 C 511.667969 413.613281 511.800781 413.613281 511.941406 413.613281 C 524.402344 413.648438 534.273438 415.363281 542.113281 418.859375 C 556.71875 425.371094 564.609375 437.503906 571.574219 448.210938 C 572.105469 449.023438 572.632812 449.832031 573.15625 450.632812 C 577.386719 451.511719 581.378906 452.050781 585.605469 452.621094 C 590.503906 453.28125 595.574219 453.964844 601.554688 455.25 C 613.792969 457.878906 627.578125 461.585938 642.53125 466.265625 C 653.445312 469.707031 666.164062 473.820312 679.046875 479.085938 C 698.707031 487.070312 715.949219 496.382812 728.917969 506.019531 C 730.679688 507.320312 732.40625 508.660156 734.0625 510 C 738.5625 513.660156 742.597656 517.351562 746.5 520.925781 C 751.792969 525.765625 756.789062 530.335938 762.566406 534.527344 C 771.675781 541.09375 781.660156 545.808594 792.519531 548.667969 C 800.746094 550.820312 809.105469 551.652344 817.59375 551.164062 C 840.902344 549.71875 862.820312 537.382812 874.792969 518.964844 L 875.054688 519.136719 C 863.03125 537.636719 841.019531 550.027344 817.613281 551.476562 C 816.054688 551.570312 814.492188 551.617188 812.925781 551.617188 Z M 812.925781 551.617188 " fill-opacity="1" fill-rule="nonzero"/><path fill="#ffffff" d="M 811.789062 550.253906 C 806.503906 550.253906 801.265625 549.757812 796.074219 548.773438 C 785.25 546.703125 775.101562 542.851562 765.625 537.21875 C 759.179688 533.386719 753.511719 529.09375 747.507812 524.542969 C 743.75 521.699219 739.863281 518.753906 735.644531 515.824219 C 733.933594 514.640625 732.152344 513.453125 730.355469 512.300781 C 717.363281 503.933594 700.609375 495.671875 680.558594 487.75 C 670.707031 483.832031 661.035156 480.445312 651.683594 477.171875 C 649.402344 476.371094 647.148438 475.582031 644.921875 474.796875 C 627.945312 468.839844 615.816406 464.699219 605.605469 461.371094 C 600.984375 459.863281 596.964844 458.699219 593.078125 457.570312 C 588.164062 456.144531 583.519531 454.800781 578.671875 453.03125 L 578.621094 453.011719 L 578.589844 452.960938 C 578.101562 452.125 577.613281 451.277344 577.125 450.425781 C 570.171875 438.382812 562.289062 424.734375 547.140625 417.371094 C 539.054688 413.445312 528.832031 411.445312 515.886719 411.269531 C 515.203125 411.257812 514.519531 411.253906 513.835938 411.253906 C 503.296875 411.257812 492.867188 412.351562 482.558594 414.539062 C 472.246094 416.726562 462.273438 419.957031 452.636719 424.234375 C 442.296875 428.851562 432.667969 434.597656 423.359375 440.152344 C 415.425781 444.886719 407.222656 449.78125 398.785156 453.828125 C 375.222656 465.128906 354.964844 467.3125 338.570312 460.316406 C 322.042969 453.265625 308.652344 438.980469 300.863281 420.09375 C 293.472656 402.179688 291.898438 381.640625 296.546875 363.742188 C 302.78125 339.714844 317.753906 319.480469 332.230469 299.910156 C 333.820312 297.761719 335.675781 295.535156 337.640625 293.175781 L 338.398438 292.269531 C 343.820312 285.714844 348.84375 279.296875 350.753906 272.863281 C 353.84375 262.472656 350.71875 247.359375 348.652344 237.359375 C 343.875 214.261719 331.019531 191.855469 313.382812 175.882812 C 306.128906 169.28125 298.117188 163.792969 289.339844 159.417969 C 261.835938 145.808594 226.457031 145.710938 203.308594 159.183594 L 203.152344 158.910156 C 213.914062 152.648438 228.164062 149.082031 243.277344 148.875 C 243.761719 148.867188 244.246094 148.863281 244.726562 148.863281 C 252.480469 148.839844 260.136719 149.695312 267.695312 151.429688 C 275.25 153.164062 282.511719 155.734375 289.480469 159.136719 C 298.28125 163.527344 306.320312 169.03125 313.59375 175.652344 C 331.28125 191.664062 344.167969 214.132812 348.957031 237.296875 C 351.03125 247.328125 354.167969 262.484375 351.058594 272.953125 C 349.128906 279.441406 344.082031 285.886719 338.640625 292.46875 L 337.882812 293.378906 C 335.917969 295.730469 334.066406 297.953125 332.484375 300.09375 C 318.023438 319.640625 303.070312 339.855469 296.851562 363.824219 C 286.753906 402.71875 305.523438 445.875 338.691406 460.027344 C 355 466.988281 375.175781 464.804688 398.648438 453.546875 C 407.074219 449.503906 415.269531 444.613281 423.195312 439.882812 C 432.515625 434.324219 442.152344 428.574219 452.511719 423.949219 C 462.480469 419.523438 472.808594 416.214844 483.496094 414.023438 C 494.183594 411.832031 504.984375 410.808594 515.890625 410.953125 C 528.882812 411.132812 539.152344 413.140625 547.28125 417.089844 C 562.515625 424.492188 570.421875 438.1875 577.394531 450.269531 C 577.875 451.101562 578.355469 451.929688 578.832031 452.753906 C 583.652344 454.511719 588.273438 455.851562 593.167969 457.269531 C 597.054688 458.398438 601.078125 459.5625 605.703125 461.070312 C 615.917969 464.398438 628.046875 468.542969 645.027344 474.5 C 647.253906 475.285156 649.507812 476.078125 651.785156 476.875 C 661.140625 480.152344 670.816406 483.539062 680.671875 487.457031 C 700.742188 495.386719 717.515625 503.65625 730.523438 512.035156 C 732.324219 513.191406 734.109375 514.378906 735.824219 515.566406 C 740.046875 518.5 743.9375 521.445312 747.695312 524.292969 C 753.695312 528.835938 759.355469 533.125 765.785156 536.949219 C 775.230469 542.5625 785.34375 546.402344 796.132812 548.464844 C 804.308594 550.023438 812.535156 550.347656 820.808594 549.441406 C 843.457031 546.867188 864.582031 534.050781 875.941406 516 L 876.207031 516.164062 C 870.324219 525.519531 861.84375 533.585938 851.691406 539.492188 C 846.957031 542.246094 841.992188 544.484375 836.792969 546.210938 C 831.597656 547.941406 826.28125 549.121094 820.84375 549.757812 C 817.832031 550.089844 814.816406 550.257812 811.789062 550.253906 Z M 811.789062 550.253906 " fill-opacity="1" fill-rule="nonzero"/><path fill="#ffffff" d="M 810.515625 549.410156 C 807.054688 549.410156 803.609375 549.207031 800.171875 548.800781 C 789.40625 547.5 779.128906 544.527344 769.332031 539.882812 C 762.015625 536.421875 755.460938 532.371094 748.519531 528.082031 C 745.121094 525.980469 741.609375 523.808594 737.886719 521.636719 C 736.105469 520.597656 734.269531 519.5625 732.4375 518.558594 C 719.878906 511.65625 703.59375 504.394531 682.644531 496.355469 C 677.054688 494.195312 671.480469 492.132812 666.089844 490.136719 C 659.738281 487.789062 653.742188 485.570312 647.867188 483.257812 C 635.3125 478.347656 622.988281 473.164062 610.183594 467.410156 C 608.910156 466.839844 607.679688 466.289062 606.488281 465.753906 C 598.261719 462.070312 591.765625 459.160156 584.777344 455.359375 L 584.738281 455.335938 L 584.714844 455.292969 C 584.265625 454.429688 583.8125 453.558594 583.359375 452.683594 C 576.402344 439.273438 568.515625 424.074219 552.761719 415.832031 C 544.390625 411.449219 533.769531 409.164062 520.296875 408.839844 C 519.179688 408.8125 518.0625 408.796875 516.9375 408.796875 C 506.1875 408.820312 495.558594 409.988281 485.058594 412.292969 C 474.554688 414.597656 464.417969 417.992188 454.644531 422.476562 C 443.742188 427.542969 433.644531 433.910156 423.875 440.070312 C 415.875 445.113281 407.601562 450.328125 399.070312 454.691406 C 374.757812 467.136719 353.683594 469.835938 336.441406 462.726562 C 320.144531 456.003906 306.8125 442.152344 298.902344 423.722656 C 291.417969 406.277344 289.53125 386.121094 293.722656 368.417969 C 299.296875 344.890625 313.210938 324.765625 328.195312 304.519531 C 329.867188 302.261719 331.875 299.90625 334.003906 297.414062 L 334.378906 296.976562 C 340.140625 290.179688 345.0625 284.054688 346.894531 277.875 C 349.867188 267.851562 346.535156 252.871094 344.328125 242.960938 L 344.261719 242.65625 C 339.160156 219.707031 326.007812 197.679688 308.179688 182.222656 C 300.832031 175.808594 292.730469 170.558594 283.875 166.464844 C 255.914062 153.652344 219.960938 155.550781 198.390625 170.984375 L 198.207031 170.730469 C 208.386719 163.445312 222.375 158.871094 237.59375 157.851562 C 245.554688 157.292969 253.460938 157.71875 261.316406 159.128906 C 269.171875 160.539062 276.734375 162.886719 284.007812 166.179688 C 292.886719 170.285156 301.011719 175.550781 308.386719 181.984375 C 326.265625 197.488281 339.453125 219.578125 344.570312 242.589844 L 344.636719 242.890625 C 346.847656 252.835938 350.191406 267.863281 347.195312 277.960938 C 345.34375 284.203125 340.40625 290.355469 334.617188 297.179688 L 334.242188 297.617188 C 332.121094 300.105469 330.113281 302.457031 328.449219 304.703125 C 313.484375 324.925781 299.589844 345.023438 294.03125 368.488281 C 286.097656 401.960938 300.105469 447.398438 336.5625 462.433594 C 353.714844 469.507812 374.699219 466.8125 398.929688 454.410156 C 407.449219 450.054688 415.710938 444.84375 423.707031 439.804688 C 433.484375 433.640625 443.59375 427.265625 454.511719 422.191406 C 464.820312 417.460938 475.527344 413.941406 486.632812 411.632812 C 497.738281 409.328125 508.960938 408.289062 520.300781 408.523438 C 533.828125 408.847656 544.492188 411.148438 552.90625 415.550781 C 568.75 423.84375 576.660156 439.089844 583.636719 452.539062 C 584.082031 453.398438 584.527344 454.253906 584.972656 455.105469 C 591.929688 458.890625 598.414062 461.792969 606.617188 465.46875 C 607.8125 466.003906 609.042969 466.554688 610.308594 467.125 C 623.109375 472.875 635.433594 478.058594 647.984375 482.964844 C 653.855469 485.277344 659.847656 487.496094 666.199219 489.84375 C 671.589844 491.835938 677.164062 493.898438 682.757812 496.058594 C 703.71875 504.105469 720.019531 511.375 732.589844 518.28125 C 734.425781 519.285156 736.261719 520.324219 738.046875 521.363281 C 741.769531 523.539062 745.285156 525.710938 748.6875 527.8125 C 755.617188 532.097656 762.167969 536.148438 769.464844 539.601562 C 779.230469 544.230469 789.480469 547.191406 800.207031 548.492188 C 808.324219 549.457031 816.414062 549.277344 824.480469 547.957031 C 846.789062 544.203125 866.628906 531.234375 877.554688 513.261719 L 877.820312 513.425781 C 866.851562 531.472656 846.929688 544.496094 824.53125 548.265625 C 819.890625 549.03125 815.21875 549.414062 810.515625 549.410156 Z M 810.515625 549.410156 " fill-opacity="1" fill-rule="nonzero"/><path fill="#ffffff" d="M 808.964844 549.039062 C 807.558594 549.039062 806.148438 549.007812 804.734375 548.945312 C 794.011719 548.410156 783.601562 546.316406 773.507812 542.660156 C 764.992188 539.59375 757.214844 535.746094 748.984375 531.667969 C 746.28125 530.332031 743.488281 528.945312 740.601562 527.558594 C 738.753906 526.671875 736.867188 525.785156 734.992188 524.929688 C 720.894531 518.445312 704.101562 512.101562 685.203125 505.070312 C 683.644531 504.488281 682.09375 503.90625 680.542969 503.332031 C 670.246094 499.492188 660.523438 495.863281 651.285156 491.832031 C 638.890625 486.484375 626.871094 480.394531 615.226562 473.5625 C 606.953125 468.789062 598.996094 463.53125 591.355469 457.796875 L 591.308594 457.738281 C 590.886719 456.847656 590.460938 455.949219 590.039062 455.042969 C 583.082031 440.269531 575.199219 423.527344 558.847656 414.402344 C 550.191406 409.570312 539.175781 406.992188 525.171875 406.523438 C 513.421875 406.167969 501.796875 407.199219 490.292969 409.617188 C 478.789062 412.035156 467.730469 415.773438 457.121094 420.832031 C 445.683594 426.34375 435.128906 433.332031 424.921875 440.09375 C 416.835938 445.445312 408.472656 450.984375 399.828125 455.667969 C 388.726562 461.683594 378.035156 465.707031 368.058594 467.628906 C 355.855469 469.980469 344.65625 469.179688 334.785156 465.246094 C 318.710938 458.84375 305.4375 445.421875 297.410156 427.457031 C 289.828125 410.480469 287.625 390.707031 291.371094 373.203125 C 296.65625 348.492188 311.3125 327.230469 324.632812 309.238281 C 326.363281 306.902344 328.511719 304.449219 330.78125 301.851562 L 330.832031 301.796875 C 335.878906 295.984375 341.605469 289.402344 343.5 282.996094 C 346.371094 273.304688 342.851562 258.574219 340.523438 248.828125 L 340.34375 248.066406 C 334.902344 225.265625 321.453125 203.617188 303.445312 188.671875 C 295.996094 182.449219 287.808594 177.433594 278.882812 173.625 C 250.023438 161.433594 214.300781 165.335938 193.9375 182.898438 L 193.730469 182.660156 C 203.34375 174.371094 217.070312 168.789062 232.375 166.941406 C 248.175781 165.035156 264.734375 167.308594 279.003906 173.335938 C 287.960938 177.15625 296.175781 182.1875 303.648438 188.429688 C 321.707031 203.417969 335.191406 225.125 340.648438 247.992188 L 340.828125 248.753906 C 343.167969 258.535156 346.699219 273.3125 343.804688 283.085938 C 341.886719 289.554688 336.140625 296.167969 331.070312 302.003906 L 331.019531 302.058594 C 328.753906 304.648438 326.609375 307.097656 324.886719 309.425781 C 311.585938 327.390625 296.949219 348.621094 291.675781 373.269531 C 284.617188 406.269531 299.136719 450.703125 334.898438 464.953125 C 352.921875 472.132812 374.714844 468.917969 399.679688 455.390625 C 408.3125 450.714844 416.667969 445.179688 424.75 439.828125 C 434.964844 433.066406 445.527344 426.070312 456.980469 420.546875 C 467.617188 415.484375 478.699219 411.738281 490.226562 409.3125 C 501.757812 406.890625 513.40625 405.855469 525.183594 406.207031 C 539.238281 406.679688 550.300781 409.269531 559 414.125 C 575.4375 423.300781 583.347656 440.09375 590.324219 454.910156 C 590.742188 455.800781 591.160156 456.6875 591.578125 457.570312 C 599.199219 463.289062 607.136719 468.527344 615.386719 473.292969 C 627.019531 480.117188 639.027344 486.199219 651.410156 491.546875 C 660.640625 495.570312 670.359375 499.199219 680.65625 503.035156 C 682.203125 503.613281 683.753906 504.195312 685.3125 504.777344 C 704.21875 511.808594 721.015625 518.15625 735.125 524.644531 C 737 525.5 738.890625 526.386719 740.738281 527.277344 C 743.625 528.664062 746.421875 530.050781 749.125 531.386719 C 757.347656 535.460938 765.117188 539.304688 773.613281 542.367188 C 783.679688 546.011719 794.058594 548.097656 804.75 548.628906 C 812.796875 549.007812 820.757812 548.324219 828.621094 546.582031 C 850.230469 541.707031 869.300781 528.269531 879.636719 510.640625 L 879.90625 510.800781 C 874.472656 520.066406 866.929688 528.015625 857.484375 534.425781 C 848.664062 540.378906 839.066406 544.53125 828.691406 546.886719 C 822.195312 548.328125 815.621094 549.046875 808.964844 549.039062 Z M 808.964844 549.039062 " fill-opacity="1" fill-rule="nonzero"/><path fill="#ffffff" d="M 806.863281 549.113281 C 797.144531 549.070312 787.578125 547.839844 778.164062 545.425781 C 767.964844 542.828125 758.464844 539.148438 748.40625 535.25 C 746.890625 534.664062 745.355469 534.070312 743.796875 533.46875 C 741.824219 532.710938 739.882812 531.980469 738.027344 531.289062 C 729.640625 528.152344 720.550781 525.019531 710.925781 521.707031 C 703.527344 519.15625 695.875 516.523438 688.238281 513.777344 C 675.480469 509.15625 664.972656 505.113281 655.175781 500.394531 C 643.039062 494.597656 631.566406 487.699219 620.753906 479.699219 C 611.714844 472.984375 605.285156 467.058594 598.417969 460.222656 L 598.382812 460.171875 C 597.980469 459.242188 597.574219 458.308594 597.171875 457.367188 C 589.878906 440.453125 582.34375 422.960938 565.414062 412.960938 C 556.472656 407.675781 545.0625 404.808594 530.53125 404.191406 C 524.460938 403.957031 518.402344 404.097656 512.351562 404.613281 C 506.300781 405.132812 500.304688 406.023438 494.367188 407.285156 C 488.425781 408.546875 482.585938 410.171875 476.851562 412.160156 C 471.113281 414.152344 465.519531 416.488281 460.074219 419.171875 C 448.117188 425.132812 437.125 432.738281 426.496094 440.097656 C 418.304688 445.769531 409.835938 451.628906 401.0625 456.628906 C 383.351562 466.726562 357.265625 476.851562 333.601562 467.753906 C 317.753906 461.660156 304.539062 448.667969 296.394531 431.171875 C 288.710938 414.664062 286.195312 395.277344 289.492188 377.976562 C 294.191406 353.339844 308.335938 331.785156 321.546875 313.949219 C 323.324219 311.550781 325.679688 308.921875 327.757812 306.601562 L 327.867188 306.480469 C 333.226562 300.46875 338.769531 294.253906 340.589844 288.105469 C 343.367188 278.703125 339.644531 264.179688 337.183594 254.566406 L 336.898438 253.464844 C 331.113281 230.804688 317.371094 209.535156 299.191406 195.109375 C 291.640625 189.074219 283.363281 184.292969 274.363281 180.769531 C 245.101562 169.441406 208.816406 175.46875 189.960938 194.800781 L 189.734375 194.582031 C 198.792969 185.296875 212.253906 178.703125 227.636719 176.019531 C 243.34375 173.28125 259.976562 174.863281 274.476562 180.476562 C 283.507812 184.011719 291.8125 188.808594 299.386719 194.863281 C 317.617188 209.332031 331.402344 230.660156 337.203125 253.386719 L 337.488281 254.488281 C 339.957031 264.132812 343.691406 278.707031 340.890625 288.191406 C 339.050781 294.410156 333.484375 300.652344 328.101562 306.691406 L 327.992188 306.8125 C 325.917969 309.128906 323.566406 311.75 321.800781 314.136719 C 308.609375 331.945312 294.492188 353.460938 289.804688 378.035156 C 283.605469 410.539062 298.632812 453.96875 333.714844 467.460938 C 357.261719 476.515625 383.253906 466.417969 400.90625 456.355469 C 409.667969 451.363281 418.132812 445.503906 426.316406 439.839844 C 436.953125 432.476562 447.957031 424.859375 459.933594 418.890625 C 465.390625 416.199219 470.996094 413.859375 476.746094 411.867188 C 482.496094 409.871094 488.347656 408.242188 494.300781 406.976562 C 500.253906 405.710938 506.261719 404.820312 512.324219 404.300781 C 518.386719 403.785156 524.460938 403.644531 530.542969 403.878906 C 545.128906 404.496094 556.589844 407.378906 565.574219 412.6875 C 582.589844 422.742188 590.488281 441.070312 597.460938 457.242188 C 597.859375 458.171875 598.261719 459.097656 598.660156 460.019531 C 605.511719 466.835938 611.925781 472.75 620.941406 479.449219 C 631.738281 487.433594 643.195312 494.324219 655.3125 500.113281 C 665.097656 504.824219 675.59375 508.863281 688.347656 513.480469 C 695.980469 516.226562 703.628906 518.859375 711.027344 521.410156 C 720.65625 524.722656 729.746094 527.855469 738.136719 530.992188 C 739.996094 531.683594 741.9375 532.417969 743.910156 533.175781 C 745.46875 533.777344 747.003906 534.371094 748.519531 534.957031 C 758.570312 538.851562 768.0625 542.527344 778.242188 545.121094 C 788.582031 547.785156 799.09375 548.996094 809.769531 548.757812 C 817.742188 548.546875 825.566406 547.359375 833.242188 545.195312 C 854.445312 539.128906 872.289062 525.574219 882.195312 508.003906 L 882.46875 508.160156 C 872.523438 525.800781 854.613281 539.40625 833.328125 545.496094 C 825.628906 547.667969 817.777344 548.859375 809.78125 549.074219 C 808.8125 549.101562 807.835938 549.113281 806.863281 549.113281 Z M 806.863281 549.113281 " fill-opacity="1" fill-rule="nonzero"/><path fill="#ffffff" d="M 803.59375 549.628906 C 796.789062 549.613281 790.023438 549.078125 783.304688 548.023438 C 770.769531 546.0625 758.925781 542.582031 747.472656 539.214844 C 745.527344 538.640625 743.550781 538.066406 741.546875 537.480469 C 738.519531 536.597656 735.414062 535.699219 732.234375 534.785156 C 719.703125 531.175781 705.5 527.085938 691.761719 522.316406 C 678.199219 517.582031 668.265625 513.414062 659.554688 508.792969 C 647.617188 502.519531 636.6875 494.8125 626.765625 485.675781 L 626.257812 485.203125 C 618.023438 477.644531 610.914062 471.113281 605.953125 462.464844 C 603.125 457.539062 600.652344 452.144531 598.261719 446.929688 C 592.097656 433.492188 585.730469 419.597656 572.464844 411.355469 C 563.242188 405.621094 551.433594 402.460938 536.371094 401.699219 C 530.089844 401.402344 523.816406 401.515625 517.546875 402.03125 C 511.28125 402.546875 505.074219 403.464844 498.925781 404.785156 C 492.777344 406.105469 486.738281 407.820312 480.8125 409.921875 C 474.882812 412.023438 469.117188 414.5 463.511719 417.347656 C 451.050781 423.75 439.632812 431.980469 428.589844 439.9375 C 420.289062 445.921875 411.699219 452.113281 402.785156 457.429688 C 384.589844 468.28125 357.703125 479.289062 332.910156 470.097656 C 317.28125 464.304688 304.125 451.738281 295.859375 434.71875 C 288.074219 418.679688 285.25 399.679688 288.105469 382.589844 C 292.40625 356.859375 306.847656 334.820312 318.949219 318.496094 C 320.902344 315.972656 322.976562 313.558594 325.175781 311.246094 L 325.601562 310.78125 C 330.917969 304.96875 336.417969 298.960938 338.160156 293.046875 C 340.855469 283.90625 336.917969 269.546875 334.3125 260.042969 L 333.945312 258.699219 C 327.800781 236.175781 313.761719 215.285156 295.421875 201.382812 C 287.769531 195.535156 279.40625 190.992188 270.332031 187.753906 C 240.214844 177.128906 204.15625 185.203125 186.472656 206.539062 L 186.226562 206.339844 C 203.996094 184.90625 240.195312 176.789062 270.4375 187.457031 C 279.539062 190.707031 287.933594 195.265625 295.613281 201.132812 C 314.007812 215.078125 328.089844 236.027344 334.246094 258.617188 L 334.617188 259.960938 C 337.230469 269.496094 341.183594 283.910156 338.460938 293.136719 C 336.695312 299.117188 331.175781 305.15625 325.832031 310.992188 L 325.40625 311.460938 C 323.214844 313.761719 321.148438 316.171875 319.199219 318.683594 C 307.121094 334.980469 292.703125 356.976562 288.414062 382.640625 C 282.949219 415.332031 298.140625 456.875 333.019531 469.804688 C 357.691406 478.949219 384.488281 467.976562 402.621094 457.160156 C 411.527344 451.847656 420.109375 445.664062 428.410156 439.683594 C 439.457031 431.71875 450.882812 423.484375 463.367188 417.070312 C 468.984375 414.214844 474.765625 411.730469 480.703125 409.625 C 486.644531 407.519531 492.695312 405.800781 498.855469 404.480469 C 505.019531 403.15625 511.238281 402.234375 517.519531 401.71875 C 523.800781 401.199219 530.089844 401.089844 536.386719 401.386719 C 551.507812 402.152344 563.363281 405.324219 572.632812 411.085938 C 585.976562 419.382812 592.367188 433.320312 598.546875 446.800781 C 600.933594 452.007812 603.402344 457.394531 606.222656 462.308594 C 611.164062 470.914062 618.257812 477.429688 626.46875 484.972656 L 626.980469 485.441406 C 636.878906 494.5625 647.789062 502.253906 659.703125 508.515625 C 668.398438 513.125 678.316406 517.292969 691.863281 522.019531 C 705.59375 526.785156 719.792969 530.875 732.320312 534.484375 C 735.496094 535.398438 738.601562 536.296875 741.636719 537.179688 C 743.636719 537.761719 745.613281 538.339844 747.5625 538.914062 C 759.003906 542.277344 770.835938 545.753906 783.351562 547.710938 C 793.949219 549.417969 804.589844 549.753906 815.277344 548.722656 C 823.167969 547.9375 830.859375 546.246094 838.351562 543.644531 C 858.804688 536.484375 875.894531 522.476562 885.238281 505.207031 L 885.515625 505.355469 C 876.132812 522.695312 858.980469 536.757812 838.453125 543.941406 C 830.9375 546.550781 823.222656 548.25 815.308594 549.035156 C 811.414062 549.4375 807.507812 549.632812 803.59375 549.628906 Z M 803.59375 549.628906 " fill-opacity="1" fill-rule="nonzero"/><path fill="#ffffff" d="M 798.722656 550.617188 C 795.535156 550.617188 792.277344 550.511719 788.9375 550.304688 C 776.726562 549.519531 765.199219 547.472656 751.648438 544.640625 C 749.640625 544.222656 747.609375 543.796875 745.558594 543.359375 C 729.515625 539.925781 712.457031 536.109375 695.777344 530.539062 C 683.09375 526.285156 673.128906 521.941406 664.429688 516.875 C 652.667969 510.039062 642.285156 501.523438 633.277344 491.332031 C 626.21875 483.425781 618.996094 474.691406 614.003906 464.414062 C 611.808594 459.894531 609.78125 455.078125 607.824219 450.414062 C 601.320312 434.929688 594.597656 418.917969 580.011719 409.433594 C 570.507812 403.246094 558.304688 399.800781 542.707031 398.890625 C 536.210938 398.535156 529.722656 398.613281 523.238281 399.128906 C 516.753906 399.644531 510.332031 400.59375 503.972656 401.96875 C 497.617188 403.347656 491.378906 405.144531 485.265625 407.363281 C 479.148438 409.578125 473.207031 412.195312 467.445312 415.210938 C 454.488281 422.050781 442.660156 430.898438 431.222656 439.449219 C 422.789062 445.757812 414.070312 452.277344 405 457.914062 C 386.339844 469.507812 358.652344 481.386719 332.710938 472.125 C 317.296875 466.625 304.195312 454.484375 295.816406 437.945312 C 287.929688 422.371094 284.792969 403.761719 287.210938 386.882812 C 290.140625 366.421875 299.554688 346.035156 316.839844 322.726562 C 318.789062 320.226562 320.871094 317.84375 323.082031 315.574219 L 323.789062 314.820312 C 329.082031 309.191406 334.550781 303.371094 336.226562 297.675781 C 338.847656 288.773438 334.683594 274.554688 331.929688 265.144531 L 331.484375 263.617188 C 324.976562 241.226562 310.636719 220.714844 292.148438 207.339844 C 284.386719 201.679688 275.9375 197.371094 266.796875 194.417969 C 235.824219 184.542969 200.003906 194.664062 183.472656 217.960938 L 183.214844 217.78125 C 191.195312 206.535156 204.125 197.925781 219.625 193.535156 C 235.140625 189.140625 251.925781 189.347656 266.890625 194.121094 C 276.066406 197.082031 284.542969 201.40625 292.332031 207.085938 C 310.878906 220.503906 325.257812 241.074219 331.785156 263.527344 L 332.230469 265.054688 C 334.996094 274.5 339.175781 288.773438 336.527344 297.765625 C 334.832031 303.53125 329.335938 309.378906 324.019531 315.039062 L 323.3125 315.789062 C 321.109375 318.050781 319.035156 320.421875 317.09375 322.914062 C 299.839844 346.179688 290.445312 366.519531 287.523438 386.925781 C 282.917969 419.074219 298.601562 459.617188 332.816406 471.828125 C 358.640625 481.046875 386.234375 469.203125 404.832031 457.644531 C 413.890625 452.015625 422.605469 445.5 431.03125 439.199219 C 442.480469 430.636719 454.320312 421.785156 467.296875 414.929688 C 473.074219 411.910156 479.027344 409.289062 485.15625 407.066406 C 491.285156 404.847656 497.535156 403.042969 503.90625 401.664062 C 510.277344 400.28125 516.714844 399.332031 523.210938 398.816406 C 529.710938 398.300781 536.214844 398.21875 542.722656 398.578125 C 558.378906 399.488281 570.632812 402.953125 580.183594 409.167969 C 594.847656 418.707031 601.59375 434.765625 608.117188 450.292969 C 610.070312 454.949219 612.09375 459.765625 614.285156 464.277344 C 619.261719 474.519531 626.464844 483.230469 633.511719 491.121094 C 642.496094 501.289062 652.855469 509.785156 664.585938 516.601562 C 673.269531 521.660156 683.210938 525.992188 695.878906 530.242188 C 712.542969 535.804688 729.589844 539.621094 745.625 543.050781 C 747.671875 543.484375 749.703125 543.914062 751.710938 544.332031 C 765.25 547.160156 776.765625 549.207031 788.957031 549.988281 C 799.796875 550.757812 810.570312 550.21875 821.277344 548.371094 C 829.078125 547.011719 836.636719 544.8125 843.949219 541.777344 C 863.921875 533.4375 879.84375 519.34375 888.777344 502.089844 L 889.054688 502.234375 C 880.089844 519.554688 864.113281 533.703125 844.070312 542.070312 C 836.734375 545.113281 829.15625 547.316406 821.332031 548.683594 C 813.851562 550 806.316406 550.644531 798.722656 550.617188 Z M 798.722656 550.617188 " fill-opacity="1" fill-rule="nonzero"/><path fill="#ffffff" d="M 790.933594 552.113281 C 780.796875 552.113281 769.917969 551.300781 756.324219 549.554688 C 754.34375 549.296875 752.300781 549.023438 750.078125 548.71875 C 736.015625 546.761719 717.652344 543.804688 700.296875 538.25 C 688.296875 534.390625 678.320312 529.875 669.804688 524.441406 C 658.628906 517.324219 648.972656 508.175781 640.289062 496.472656 C 632.523438 485.9375 626.722656 475.921875 622.554688 465.847656 C 620.992188 462.070312 619.484375 458.113281 618.027344 454.285156 C 611.203125 436.398438 604.152344 417.898438 588.0625 406.996094 C 578.273438 400.359375 565.675781 396.621094 549.546875 395.566406 C 542.839844 395.148438 536.132812 395.199219 529.429688 395.710938 C 522.726562 396.226562 516.09375 397.203125 509.527344 398.640625 C 502.960938 400.074219 496.523438 401.957031 490.21875 404.289062 C 483.914062 406.621094 477.800781 409.375 471.878906 412.554688 C 458.441406 419.835938 446.207031 429.296875 434.378906 438.445312 C 425.808594 445.074219 416.949219 451.925781 407.714844 457.878906 C 395.421875 465.808594 383.25 471.335938 371.535156 474.304688 C 357.582031 477.84375 344.621094 477.621094 333.011719 473.636719 C 317.8125 468.425781 304.765625 456.707031 296.273438 440.648438 C 294.257812 436.839844 292.535156 432.898438 291.113281 428.828125 C 289.6875 424.757812 288.574219 420.605469 287.773438 416.367188 C 286.972656 412.132812 286.492188 407.859375 286.332031 403.550781 C 286.171875 399.242188 286.332031 394.945312 286.816406 390.660156 C 289.289062 369.890625 298.585938 348.882812 315.238281 326.4375 C 317.179688 323.960938 319.265625 321.609375 321.496094 319.386719 L 322.46875 318.378906 C 327.734375 312.921875 333.183594 307.277344 334.796875 301.789062 C 337.347656 293.101562 332.769531 278.429688 330.039062 269.664062 C 329.859375 269.09375 329.6875 268.546875 329.527344 268.019531 C 322.640625 245.761719 308.007812 225.628906 289.375 212.78125 C 281.507812 207.308594 272.96875 203.238281 263.761719 200.570312 C 232.484375 191.636719 196.117188 204.0625 180.972656 228.867188 L 180.707031 228.703125 C 188.160156 216.492188 200.828125 206.875 216.371094 201.621094 C 231.789062 196.40625 248.652344 195.925781 263.847656 200.269531 C 273.089844 202.945312 281.660156 207.03125 289.554688 212.523438 C 308.242188 225.410156 322.921875 245.601562 329.824219 267.925781 C 329.988281 268.449219 330.160156 269 330.339844 269.570312 C 333.261719 278.941406 337.675781 293.101562 335.097656 301.878906 C 333.460938 307.441406 327.988281 313.113281 322.695312 318.597656 L 321.722656 319.605469 C 319.503906 321.820312 317.425781 324.160156 315.492188 326.625 C 298.871094 349.023438 289.59375 369.984375 287.128906 390.699219 C 283.375 422.277344 299.546875 461.824219 333.117188 473.339844 C 360.113281 482.605469 388.496094 469.902344 407.542969 457.617188 C 416.765625 451.667969 425.621094 444.820312 434.183594 438.195312 C 446.027344 429.039062 458.269531 419.570312 471.730469 412.277344 C 477.664062 409.089844 483.792969 406.332031 490.109375 403.996094 C 496.429688 401.660156 502.878906 399.773438 509.460938 398.332031 C 516.039062 396.894531 522.691406 395.914062 529.40625 395.398438 C 536.121094 394.882812 542.84375 394.835938 549.566406 395.253906 C 565.753906 396.3125 578.402344 400.066406 588.238281 406.734375 C 604.410156 417.695312 611.480469 436.238281 618.320312 454.175781 C 619.777344 458 621.285156 461.953125 622.847656 465.726562 C 627.003906 475.777344 632.792969 485.773438 640.542969 496.285156 C 649.203125 507.957031 658.828125 517.078125 669.976562 524.175781 C 678.46875 529.59375 688.417969 534.101562 700.394531 537.949219 C 717.726562 543.5 736.074219 546.453125 750.121094 548.40625 C 752.34375 548.714844 754.386719 548.984375 756.363281 549.242188 C 771.804688 551.226562 783.742188 552.003906 795.066406 551.753906 C 806.132812 551.582031 817.039062 550.167969 827.78125 547.507812 C 835.484375 545.574219 842.910156 542.871094 850.054688 539.398438 C 869.222656 530.023438 884.410156 515.484375 892.816406 498.460938 L 893.101562 498.601562 C 884.660156 515.6875 869.421875 530.277344 850.191406 539.679688 C 843.027344 543.164062 835.582031 545.875 827.855469 547.8125 C 817.089844 550.476562 806.164062 551.898438 795.074219 552.066406 C 793.703125 552.097656 792.324219 552.113281 790.933594 552.113281 Z M 790.933594 552.113281 " fill-opacity="1" fill-rule="nonzero"/><path fill="#ffffff" d="M 778.78125 554.214844 C 773.359375 554.214844 767.640625 554.050781 761.511719 553.726562 C 759.460938 553.617188 757.304688 553.488281 755.105469 553.339844 C 742.3125 552.480469 723.234375 550.699219 705.328125 545.222656 C 693.75 541.671875 684.058594 537.105469 675.695312 531.269531 C 664.921875 523.757812 655.804688 513.816406 647.816406 500.875 C 641.210938 490.003906 635.8125 478.5625 631.621094 466.546875 C 630.675781 463.871094 629.730469 461.105469 628.816406 458.429688 C 621.738281 437.738281 614.417969 416.339844 596.625 403.820312 C 586.554688 396.734375 573.558594 392.707031 556.898438 391.503906 C 549.976562 391.027344 543.054688 391.046875 536.132812 391.558594 C 529.214844 392.074219 522.367188 393.078125 515.589844 394.570312 C 508.816406 396.066406 502.179688 398.035156 495.6875 400.480469 C 489.191406 402.921875 482.90625 405.820312 476.824219 409.164062 C 462.910156 416.882812 450.28125 426.957031 438.070312 436.699219 C 429.355469 443.648438 420.347656 450.835938 410.941406 457.113281 C 398.367188 465.503906 385.828125 471.398438 373.667969 474.628906 C 359.285156 478.457031 345.882812 478.382812 333.828125 474.414062 C 318.839844 469.480469 305.84375 458.1875 297.234375 442.617188 C 295.1875 438.90625 293.429688 435.066406 291.953125 431.097656 C 290.480469 427.128906 289.304688 423.070312 288.433594 418.929688 C 287.5625 414.785156 287 410.597656 286.75 406.371094 C 286.5 402.144531 286.5625 397.921875 286.9375 393.703125 C 288.917969 372.695312 298.074219 351.066406 314.148438 329.417969 C 316.082031 326.960938 318.175781 324.640625 320.417969 322.460938 L 321.628906 321.238281 C 326.886719 315.941406 332.320312 310.464844 333.875 305.167969 C 336.367188 296.671875 331.527344 282.082031 328.632812 273.367188 C 328.441406 272.78125 328.253906 272.21875 328.078125 271.683594 C 320.800781 249.554688 305.871094 229.800781 287.117188 217.488281 C 279.136719 212.199219 270.511719 208.367188 261.242188 205.984375 C 229.160156 197.871094 193.03125 212.386719 178.988281 239.039062 L 178.710938 238.890625 C 185.652344 225.722656 198.050781 215.09375 213.628906 208.96875 C 228.945312 202.941406 245.882812 201.773438 261.316406 205.679688 C 270.621094 208.070312 279.28125 211.917969 287.289062 217.226562 C 306.101562 229.574219 321.078125 249.390625 328.378906 271.585938 C 328.554688 272.121094 328.738281 272.679688 328.933594 273.269531 C 331.835938 282.019531 336.695312 296.664062 334.175781 305.253906 C 332.601562 310.628906 327.136719 316.136719 321.851562 321.460938 L 320.644531 322.683594 C 318.410156 324.851562 316.328125 327.160156 314.402344 329.605469 C 298.359375 351.207031 289.226562 372.785156 287.25 393.730469 C 283.859375 429.679688 303.925781 464.238281 333.925781 474.117188 C 363.621094 483.890625 394.816406 467.496094 410.769531 456.851562 C 420.160156 450.582031 429.164062 443.398438 437.871094 436.453125 C 450.097656 426.703125 462.738281 416.617188 476.671875 408.886719 C 482.765625 405.535156 489.066406 402.636719 495.574219 400.183594 C 502.082031 397.734375 508.730469 395.761719 515.523438 394.261719 C 522.3125 392.765625 529.175781 391.757812 536.109375 391.246094 C 543.046875 390.730469 549.980469 390.710938 556.917969 391.191406 C 573.640625 392.398438 586.6875 396.445312 596.804688 403.5625 C 614.683594 416.140625 622.019531 437.585938 629.113281 458.328125 C 630.027344 461.003906 630.972656 463.769531 631.917969 466.441406 C 636.101562 478.433594 641.488281 489.859375 648.085938 500.710938 C 656.046875 513.613281 665.136719 523.523438 675.875 531.011719 C 684.210938 536.828125 693.875 541.378906 705.417969 544.917969 C 723.296875 550.390625 742.351562 552.167969 755.128906 553.027344 C 757.324219 553.171875 759.480469 553.304688 761.53125 553.410156 C 776.882812 554.226562 789.640625 554.027344 801.6875 552.78125 C 812.972656 551.691406 824.007812 549.398438 834.796875 545.90625 C 842.402344 543.414062 849.691406 540.207031 856.667969 536.28125 C 875.273438 525.769531 889.347656 511.183594 897.371094 494.09375 L 897.65625 494.226562 C 889.605469 511.375 875.484375 526.011719 856.824219 536.554688 C 849.828125 540.488281 842.519531 543.707031 834.894531 546.203125 C 824.085938 549.707031 813.027344 552 801.71875 553.09375 C 794.09375 553.863281 786.445312 554.238281 778.78125 554.214844 Z M 778.78125 554.214844 " fill-opacity="1" fill-rule="nonzero"/><g clip-path="url(#22912d3e90)"><path fill="#ffffff" d="M 760.09375 557.003906 C 735.78125 557.003906 705.101562 554.679688 682.097656 537.136719 C 671.992188 529.429688 663.585938 519.03125 656.394531 505.34375 C 649.398438 492.023438 644.605469 477.472656 641.210938 466.289062 C 640.855469 465.121094 640.5 463.953125 640.148438 462.777344 C 632.917969 438.820312 625.4375 414.050781 605.707031 399.6875 C 595.351562 392.152344 581.960938 387.832031 564.765625 386.484375 C 557.632812 385.945312 550.496094 385.933594 543.359375 386.445312 C 536.21875 386.960938 529.160156 387.992188 522.171875 389.542969 C 515.1875 391.097656 508.355469 393.152344 501.671875 395.710938 C 494.988281 398.269531 488.527344 401.304688 482.292969 404.8125 C 467.910156 412.964844 454.894531 423.652344 442.300781 433.988281 C 433.4375 441.261719 424.273438 448.785156 414.6875 455.382812 C 398.34375 466.636719 366.277344 484.042969 335.160156 474.230469 C 320.375 469.566406 307.429688 458.695312 298.707031 443.617188 C 296.632812 440.015625 294.832031 436.277344 293.308594 432.40625 C 291.78125 428.535156 290.546875 424.578125 289.605469 420.527344 C 288.664062 416.472656 288.019531 412.375 287.679688 408.230469 C 287.339844 404.085938 287.304688 399.9375 287.574219 395.785156 C 289.066406 374.308594 297.8125 352.65625 313.578125 331.433594 C 315.480469 328.871094 318.308594 326.101562 321.300781 323.164062 C 326.550781 318.019531 331.980469 312.699219 333.472656 307.582031 C 335.90625 299.265625 330.796875 284.746094 327.742188 276.070312 C 327.535156 275.484375 327.335938 274.921875 327.152344 274.390625 C 315.90625 242.171875 289.25 217.066406 259.238281 210.4375 C 226.386719 203.179688 190.484375 219.789062 177.519531 248.25 L 177.234375 248.117188 C 183.667969 233.996094 195.804688 222.359375 211.40625 215.355469 C 226.625 208.523438 243.636719 206.667969 259.304688 210.128906 C 274.558594 213.5 289.078125 221.515625 301.289062 233.3125 C 307.183594 239.03125 312.339844 245.351562 316.757812 252.273438 C 321.179688 259.195312 324.742188 266.535156 327.449219 274.289062 C 327.632812 274.820312 327.828125 275.378906 328.035156 275.964844 C 331.105469 284.675781 336.238281 299.257812 333.777344 307.671875 C 332.257812 312.867188 326.800781 318.214844 321.523438 323.390625 C 318.535156 326.316406 315.71875 329.078125 313.828125 331.621094 C 298.101562 352.792969 289.375 374.390625 287.890625 395.808594 C 285.445312 431.058594 305.808594 464.644531 335.257812 473.929688 C 366.246094 483.703125 398.210938 466.34375 414.507812 455.125 C 424.085938 448.535156 433.242188 441.015625 442.101562 433.742188 C 454.703125 423.398438 467.734375 412.703125 482.136719 404.539062 C 488.386719 401.023438 494.859375 397.980469 501.558594 395.417969 C 508.253906 392.851562 515.105469 390.792969 522.105469 389.238281 C 529.105469 387.679688 536.183594 386.648438 543.335938 386.132812 C 550.488281 385.617188 557.640625 385.632812 564.792969 386.171875 C 582.046875 387.523438 595.488281 391.863281 605.890625 399.433594 C 625.707031 413.859375 633.203125 438.679688 640.449219 462.683594 C 640.804688 463.859375 641.15625 465.03125 641.511719 466.195312 C 649.632812 492.953125 660.191406 520.035156 682.292969 536.886719 C 705.21875 554.371094 735.832031 556.6875 760.09375 556.6875 C 760.28125 556.6875 760.464844 556.6875 760.652344 556.6875 C 794.113281 556.640625 820.066406 552.398438 842.332031 543.347656 C 870.140625 532.039062 892.050781 512.144531 902.445312 488.769531 L 902.730469 488.894531 C 897.300781 501.109375 888.984375 512.207031 878.011719 521.875 C 867.375 531.117188 855.519531 538.371094 842.449219 543.636719 C 820.144531 552.707031 794.152344 556.953125 760.652344 557.003906 C 760.46875 557.003906 760.277344 557.003906 760.09375 557.003906 Z M 760.09375 557.003906 " fill-opacity="1" fill-rule="nonzero"/></g></svg>