<?xml version="1.0" encoding="utf-8"?>
<!-- Generator: Adobe Adobe Illustrator 24.2.0, SVG Export Plug-In . SVG Version: 6.00 Build 0)  -->
<svg version="1.1" id="Warstwa_wektorowa_1_" xmlns="http://www.w3.org/2000/svg" xmlns:xlink="http://www.w3.org/1999/xlink"
	 x="0px" y="0px" width="2360px" height="1640px" viewBox="0 0 2360 1640" style="enable-background:new 0 0 2360 1640;"
	 xml:space="preserve">
<style type="text/css">
	.st0{fill:#FFFFFF;}
</style>
<path class="st0" d="M1990.55,906.51c3.16-14.09-5.92-22.88-13.46-33.58c-5.13-8.21-7.38-17.92-7.75-27.52
	c-0.63-9.2,1.83-22.75-8.65-26.95c-7.64-2.45-15.82-0.07-23.56-2.08c-12.75-2.81-21.04-15.24-23.49-27.38
	c-1.44-9.24-0.86-19.84,5.3-27.35c2.81-3.49,6.26-5.35,8.99-8.54c2.04-2.3-1.34-2.79-2.87-3.69c-1.08-0.61-2.03-1.5-2.79-2.48
	c-3.23-4.16-2.62-10.16-0.04-14.5c2.51-5,8.05-7.14,13.27-7.95c1.97-0.16,4.23,0.43,5.86-1.03c0.81-5.36,2.54-9.69,8.49-11.05
	c3.16-0.79,6.86-1.41,8.92-4.18c-1.71-1.59-4.27-1.26-6.37-1.96c-4.73-1.2-8.25-5.38-8.3-10.3c-1.27-10.81,12.02-17.53,1.13-26.45
	c-11.66-9.38-28.57-10.75-41.89-4.13c-7.9,3.66-14.57,9.34-21.33,14.73c-14.02,11.05-35.27,16.83-37.16-7.55
	c-0.36-1.37-0.61-3.17-1.95-3.9c-1.86-0.6-4.14-0.95-4.6,1.53c-2.06,5.8-1.11,12.74-5.89,17.35c-1.39,1.72-5.97,3.78-9.83,4.23
	c-3.04,1.64-9.15-2.23-12.25-2.51c-3.74-1.04-9.82,3.51-6.45,7.21c4.36,3.21,10.44,2.38,15.58,2.58
	c15.45-1.66,35.43-5.04,28.73,18.04c-4.13,14.94-11.36,28.22-18.41,41.69c-6.75,12.96-14.2,28.95-29.98,15.12
	c-7.31-5.26-17.88-1.64-23.63,4.39c-2.88,2.92-4.76,9.62-0.03,11.63c3.08,0.8,6.09-1.07,8.95-1.98c4.24-2.14,10.64-2.02,11.24,3.86
	c0.49,3.54-1.67,6.93-0.91,10.43c2.79,3.18,12.68-4.85,17.12,4.1c2.27,6.84,5.47,14.3,3.99,21.61c-1.01,4.38-5,8.22-9.71,6.66
	c-11.7-3.14-18.12-17.41-32.34-14.48c-8.95,0.15-16.75-5.92-20.97-13.47c-5.48-8.77-6.5-19.52-11.81-28.36
	c-2.57-4.51-7.69-7.1-12.84-6.31c-8.05,2.25-11.94,11.06-14.93,18.16c-0.12,0.86-0.48,1.6-0.97,2.16c-0.12,2.5-0.2,5.01-0.21,7.52
	c0.04,7.13,0.5,14.23,1.4,21.21c0,0.05,0.01,0.09,0.02,0.14l0.01,0.07c0.98,7.02,2.41,13.94,4.24,20.79
	c1.98,7.02,4.36,13.88,7.03,20.23c2.79,6.48,5.97,12.76,9.53,18.85c3.64,6.08,7.64,11.91,12,17.5c2.32,2.9,4.71,5.73,7.21,8.49
	c2.29,2.55,4.7,4.98,7.14,7.38c2.34,2.22,4.71,4.4,7.15,6.5c2.54,2.18,5.17,4.26,7.83,6.3c0.59,0.44,1.19,0.88,1.59,1.18
	c5.18,3.75,10.54,7.2,16.09,10.38c6.02,3.33,12.18,6.3,18.54,8.91c5.24,2.07,10.55,3.91,15.86,5.45c0.15-0.68,0.52-1.31,1.12-1.73
	c4.06-3.14,8.48-9.3,5.68-14.46c-2.67-6.14-5.64-12.39-6.37-19.12c0.79-22.6-18.11-18.56-22.43-50.14
	c-2.88-12.92,3.41-24.55,10.55-34.82c10.09-16.36,24.91-22.2,42.7-13.62c4.68,2.12,8.52,5.98,13.65,7.07
	c15.2,1.52,15.31,0.04,24.28,13.06c1.98,2.93,5.16,3.63,8.47,3.52c6.85,1.3,15.81,2.88,18.53,10.25
	c2.77,11.2-5.04,21.23-11.58,29.52c-12.49,18.4-41.7,44.88-44.73,65.79c-0.4,3.72,0.6,7.31,1.66,10.81
	c0.82,0.01,1.64,0.02,2.47,0.02c6.81-0.04,13.62-0.45,20.15-1.31c0.38-0.05,0.75-0.1,1.09-0.14c0.02,0,0.03,0,0.05-0.01l0.07-0.01
	c6.65-0.96,13.21-2.27,19.32-3.88c7.12-1.94,14.08-4.32,20.9-7.14c6.83-2.92,13.44-6.27,19.5-9.83c6.14-3.62,12-7.73,17.61-12.12
	c0.01,0,0.02-0.01,0.02-0.02l0.15-0.12c5.33-4.22,10.34-8.82,15.1-13.66C1987.77,909.57,1989.18,908.05,1990.55,906.51z
	 M2034.62,769.77c2.56,13.49,3.28,27.33,2.41,41.03c-0.87,13.66-3.55,27.16-7.72,40.18c-4.18,13.03-10.11,25.52-17.39,37.09
	c-7.33,11.67-16.17,22.34-26.14,31.84c-9.92,9.46-21.11,17.6-33.06,24.3c-12.01,6.73-24.9,11.96-38.21,15.46
	c-6.55,1.72-13.19,3.1-19.82,3.98c-0.06,0.01-0.12,0.02-0.14,0.02s-0.04,0-0.06,0.01c-7.53,1-15.11,1.52-22.68,1.52
	c-5.69,0-11.38-0.29-17.04-0.9c-7.61-0.81-15.16-2.12-22.58-3.98c-0.25-0.01-0.51-0.05-0.77-0.11c-0.25-0.06-0.48-0.14-0.7-0.25
	c-2.69-0.75-5.39-1.46-8.06-2.31c-3.42-1.09-6.8-2.27-10.15-3.55c-6.52-2.49-12.86-5.46-19.01-8.77
	c-12.28-6.6-23.71-14.82-33.91-24.32c-10.01-9.32-18.8-19.84-26.27-31.29c-3.8-5.84-7.21-11.95-10.22-18.23
	c-2.94-6.12-5.56-12.44-7.68-18.89c-2.14-6.52-3.94-13.12-5.33-19.84c-1.36-6.6-2.24-13.3-2.79-20.01
	c-1.1-13.47-0.38-27.05,1.82-40.38c2.16-13.09,6.05-25.86,11.27-38.04c5.29-12.38,12.23-24.12,20.42-34.8
	c8.07-10.53,17.38-20.07,27.71-28.39c10.76-8.66,22.61-15.91,35.16-21.66c6.21-2.84,12.63-5.32,19.16-7.32
	c6.56-2.01,13.22-3.71,19.98-4.9c13.38-2.35,27.04-3.21,40.61-2.22c13.78,1,27.37,3.65,40.51,7.96
	c12.99,4.26,25.45,10.21,36.97,17.55c3.14,2,6.21,4.1,9.07,6.21c0.08,0.06,0.16,0.12,0.23,0.18l0,0.01
	c0.08,0.05,0.16,0.11,0.23,0.17c0.17,0.11,0.34,0.24,0.5,0.36c0.06,0.04,0.12,0.09,0.18,0.14c0,0,0.01,0.01,0.02,0.01
	c11.03,8.21,20.95,17.86,29.6,28.55c8.49,10.5,15.61,22.05,21.32,34.28C2027.92,742.96,2032.05,756.23,2034.62,769.77z"/>
<path class="st0" d="M301.08,958.92c212.3,0,212.3,0,212.3,0c0-68.48,0-68.48,0-68.48c-131.1,0-131.1,0-131.1,0
	c0-57.23,0-57.23,0-57.23c95.88,0,95.88,0,95.88,0c0-67.99,0-67.99,0-67.99c-95.88,0-95.88,0-95.88,0c0-55.76,0-55.76,0-55.76
	c131.1,0,131.1,0,131.1,0c0-68.48,0-68.48,0-68.48c-212.3,0-212.3,0-212.3,0V958.92z M620.99,958.92c0-90.01,0-90.01,0-90.01
	c50.38,0,50.38,0,50.38,0c27.88,90.01,27.88,90.01,27.88,90.01c81.2,0,81.2,0,81.2,0c-31.31-94.41-31.31-94.41-31.31-94.41
	c22.5-5.38,31.31-22.5,31.31-56.25c0-106.64,0-106.64,0-106.64c0-40.6-12.72-60.66-45.98-60.66c-194.69,0-194.69,0-194.69,0
	c0,317.96,0,317.96,0,317.96H620.99z M620.99,800.43c0-88.05,0-88.05,0-88.05c80.22,0,80.22,0,80.22,0c0,88.05,0,88.05,0,88.05
	H620.99z M985.9,958.92c82.18,0,82.18,0,82.18,0c-67.99-317.96-67.99-317.96-67.99-317.96c-132.56,0-132.56,0-132.56,0
	c-69.46,317.96-69.46,317.96-69.46,317.96c82.18,0,82.18,0,82.18,0c11.25-57.23,11.25-57.23,11.25-57.23c83.16,0,83.16,0,83.16,0
	L985.9,958.92z M929.16,708.96c7.83,0,7.83,0,7.83,0c24.46,126.2,24.46,126.2,24.46,126.2c-56.74,0-56.74,0-56.74,0L929.16,708.96z
	 M1321.47,847.39c0-36.69-7.83-49.41-37.18-61.15c-123.27-42.56-123.27-42.56-123.27-42.56c0-34.24,0-34.24,0-34.24
	c80.22,0,80.22,0,80.22,0c0,39.62,0,39.62,0,39.62c80.22,0,80.22,0,80.22,0c0-38.64,0-38.64,0-38.64
	c0-45.98-14.19-69.46-62.61-69.46c-118.87,0-118.87,0-118.87,0c-36.69,0-59.19,15.65-59.19,56.74c0,51.36,0,51.36,0,51.36
	c0,33.75,8.32,46.47,36.2,58.7c124.25,43.54,124.25,43.54,124.25,43.54c0,39.13,0,39.13,0,39.13c-80.22,0-80.22,0-80.22,0
	c0-44.02,0-44.02,0-44.02c-80.22,0-80.22,0-80.22,0c0,48.43,0,48.43,0,48.43c0,43.54,26.42,64.08,61.64,64.08
	c116.42,0,116.42,0,116.42,0c40.6,0,62.61-24.46,62.61-64.57V847.39z M1619.37,958.92c71.42,0,71.42,0,71.42,0
	c0-317.96,0-317.96,0-317.96c-108.11,0-108.11,0-108.11,0c-58.21,228.93-58.21,228.93-58.21,228.93c-3.42,0-3.42,0-3.42,0
	c-61.15-228.93-61.15-228.93-61.15-228.93c-108.59,0-108.59,0-108.59,0c0,317.96,0,317.96,0,317.96c73.38,0,73.38,0,73.38,0
	c0-142.84,0-142.84,0-142.84c0-16.14-1.47-45.98-2.94-78.27c7.83,33.26,14.68,63.1,18.59,77.29
	c37.18,143.81,37.18,143.81,37.18,143.81c90.01,0,90.01,0,90.01,0c36.2-143.81,36.2-143.81,36.2-143.81
	c3.91-13.7,10.27-42.07,17.61-74.35c-0.98,31.8-1.96,61.15-1.96,76.31V958.92z"/>
</svg>
