<svg xmlns="http://www.w3.org/2000/svg" xmlns:xlink="http://www.w3.org/1999/xlink" width="1440" zoomAndPan="magnify" viewBox="0 0 1080 675.000002" height="900" preserveAspectRatio="xMidYMid meet" version="1.0"><defs><clipPath id="127e298b26"><path d="M 222 15.121094 L 858.972656 15.121094 L 858.972656 658 L 222 658 Z M 222 15.121094 " clip-rule="nonzero"/></clipPath><clipPath id="f7f9d23d87"><path d="M 0.710938 0.121094 L 636.726562 0.121094 L 636.726562 642.824219 L 0.710938 642.824219 Z M 0.710938 0.121094 " clip-rule="nonzero"/></clipPath><clipPath id="cde5e7192d"><rect x="0" width="637" y="0" height="643"/></clipPath></defs><g clip-path="url(#127e298b26)"><g transform="matrix(1, 0, 0, 1, 222, 15)"><g clip-path="url(#cde5e7192d)"><g clip-path="url(#f7f9d23d87)"><path fill="#ffffff" d="M 6.984375 591.269531 C 15.292969 603.417969 29.121094 609.914062 43.507812 611.449219 C 60.511719 613.265625 76.921875 608.027344 91.550781 599.613281 C 125 580.375 149.824219 545.355469 188.894531 536.484375 C 230.203125 527.09375 269.867188 549.089844 308.203125 560.890625 C 340.78125 570.914062 378.875 575.554688 407.191406 552.511719 C 429.082031 534.667969 439.3125 506.703125 450.589844 481.738281 C 456.421875 468.785156 462.636719 455.863281 471.015625 444.34375 C 480.339844 431.492188 492.175781 421.855469 506.457031 414.976562 C 522.097656 407.402344 539.101562 402.546875 553.800781 393.015625 C 566.964844 384.496094 576.566406 372.136719 581.699219 357.332031 C 593.257812 323.988281 583.515625 288.546875 572.34375 256.597656 C 565.640625 237.464844 558.375 218.402344 554.675781 198.429688 C 550.871094 177.757812 551.882812 156.773438 556.980469 136.417969 C 567.105469 95.984375 591.199219 61.210938 617.070312 29.296875 C 623.496094 21.300781 630.023438 13.515625 636.554688 5.761719 C 636.972656 5.238281 636.238281 4.507812 635.820312 5.03125 C 610.121094 35.617188 583.898438 66.796875 567.382812 103.5625 C 559.527344 121.054688 553.90625 139.664062 551.953125 158.765625 C 549.960938 178.457031 552.617188 197.835938 557.957031 216.796875 C 568.117188 252.828125 586.101562 287.152344 585.75 325.417969 C 585.609375 341.757812 582.222656 358.484375 573.25 372.34375 C 563.683594 387.148438 548.601562 395.773438 532.75 402.546875 C 517.421875 409.113281 501.289062 414.488281 487.984375 424.859375 C 477.230469 433.238281 468.992188 444.273438 462.21875 456.003906 C 448.113281 480.515625 440.152344 508.273438 424.230469 531.773438 C 416.199219 543.644531 405.933594 553.945312 393.015625 560.367188 C 375.835938 568.886719 356.074219 569.550781 337.429688 566.722656 C 298.496094 560.753906 263.722656 539.59375 224.648438 534.355469 C 205.550781 531.808594 186.625 533.9375 169.203125 542.386719 C 152.304688 550.589844 137.917969 562.988281 123.535156 574.894531 C 108.519531 587.359375 92.84375 599.925781 74.230469 606.527344 C 58.730469 612.042969 40.921875 612.566406 25.769531 605.617188 C 18.578125 602.300781 12.359375 597.273438 7.855469 590.710938 C 7.507812 590.1875 6.601562 590.710938 6.984375 591.269531 Z M 635.714844 4.75 C 609.355469 32.542969 583.0625 61.316406 565.988281 95.984375 C 548.914062 130.65625 541.511719 168.4375 547.484375 206.285156 C 553.277344 242.980469 569.898438 277.6875 571.191406 315.117188 C 571.75 331.109375 569.621094 347.660156 562.320312 362.117188 C 554.5 377.546875 541.199219 387.742188 525.871094 395.074219 C 510.542969 402.410156 494.132812 407.402344 479.921875 416.792969 C 468.433594 424.335938 459.390625 434.808594 452.164062 446.402344 C 437.289062 470.285156 429.640625 497.796875 415.011719 521.785156 C 407.75 533.65625 398.601562 544.445312 386.625 551.742188 C 370.84375 561.34375 352.199219 563.964844 334.007812 562.671875 C 295.53125 559.914062 260.542969 540.917969 222.242188 537.289062 C 203.003906 535.472656 184.113281 538.265625 166.65625 546.644531 C 150 554.675781 135.507812 566.304688 121.089844 577.722656 C 106.285156 589.453125 90.921875 601.394531 72.871094 607.644531 C 57.4375 612.984375 39.804688 613.265625 24.929688 605.898438 C 18.019531 602.476562 12.117188 597.414062 8.03125 590.816406 C 7.683594 590.257812 6.773438 590.78125 7.125 591.339844 C 14.734375 603.523438 28.179688 610.226562 42.144531 612.042969 C 58.695312 614.242188 74.757812 609.390625 89.175781 601.394531 C 122.554688 582.921875 147.730469 550.242188 185.929688 540.605469 C 226.78125 530.304688 266.058594 549.683594 305.027344 559.007812 C 337.148438 566.652344 373.355469 567.527344 399.054688 543.574219 C 419.515625 524.472656 428.734375 496.542969 440.082031 471.75 C 446.015625 458.761719 452.617188 445.878906 461.695312 434.777344 C 472.0625 422.101562 485.402344 413.824219 500.277344 407.296875 C 515.535156 400.59375 531.769531 395.179688 545.074219 384.777344 C 557.328125 375.175781 565.324219 361.660156 569.164062 346.648438 C 577.824219 312.847656 567.105469 278.734375 557.921875 246.335938 C 552.40625 226.851562 547.378906 207.054688 546.503906 186.699219 C 545.667969 166.796875 548.636719 146.859375 554.464844 127.828125 C 566.371094 88.898438 590.183594 56.113281 617.175781 26.222656 C 623.496094 19.207031 629.953125 12.328125 636.449219 5.484375 C 636.9375 4.996094 636.167969 4.261719 635.714844 4.75 Z M 635.609375 4.472656 C 609.003906 29.4375 582.816406 55.761719 565.148438 88.023438 C 547.34375 120.53125 537.636719 157.648438 539.488281 194.796875 C 540.464844 214.105469 544.027344 233.136719 547.902344 252.058594 C 551.464844 269.449219 555.511719 286.90625 556.664062 304.644531 C 557.644531 320.042969 556.597656 335.929688 551.183594 350.488281 C 545.25 366.410156 534.003906 378.457031 519.304688 386.800781 C 504.605469 395.144531 488.441406 400.035156 473.671875 408.132812 C 461.171875 414.976562 450.941406 424.371094 442.839844 436.03125 C 426.777344 459.078125 419.269531 486.660156 405.828125 511.136719 C 399.195312 523.21875 390.917969 534.601562 379.710938 542.839844 C 365.328125 553.382812 347.730469 557.785156 330.097656 558.0625 C 292.667969 558.621094 257.679688 542.246094 220.566406 540.117188 C 201.429688 539.035156 182.75 542.105469 165.363281 550.242188 C 148.359375 558.167969 133.273438 569.550781 118.332031 580.792969 C 103.457031 592 88.09375 603.523438 70.148438 609.214844 C 55.0625 614 37.988281 613.648438 23.847656 605.96875 C 17.320312 602.40625 11.871094 597.308594 8.207031 590.847656 C 7.890625 590.253906 6.984375 590.78125 7.296875 591.375 C 14.210938 603.664062 27.339844 610.613281 40.957031 612.707031 C 56.984375 615.1875 72.589844 610.75 86.730469 603.28125 C 103.351562 594.480469 117.773438 582.191406 132.960938 571.226562 C 148.566406 559.949219 165.328125 549.402344 184.148438 544.445312 C 224.195312 533.902344 262.8125 550.382812 301.917969 556.804688 C 318.503906 559.53125 335.71875 560.4375 352.199219 556.527344 C 367.105469 553 380.6875 545.320312 391.09375 534.074219 C 410.089844 513.511719 418.328125 485.578125 430.058594 460.789062 C 436.136719 448.007812 443.1875 435.4375 453 425.105469 C 464.453125 413.023438 479.257812 406.003906 494.375 399.582031 C 509.425781 393.15625 525.171875 386.835938 536.9375 375.035156 C 547.550781 364.386719 553.664062 350.3125 556.28125 335.683594 C 562.320312 301.957031 551.742188 268.050781 545.667969 235.125 C 542 215.363281 539.453125 195.253906 540.605469 175.140625 C 541.6875 155.761719 545.945312 136.628906 552.582031 118.4375 C 565.882812 81.742188 589.554688 51.222656 616.964844 23.886719 C 623.320312 17.53125 629.8125 11.351562 636.378906 5.238281 C 636.867188 4.75 636.132812 4.019531 635.609375 4.472656 Z M 635.539062 4.226562 C 608.585938 26.78125 582.257812 51.085938 563.964844 81.460938 C 545.386719 112.328125 535.785156 148.253906 533.445312 184.042969 C 532.191406 203.351562 533.515625 222.589844 535.890625 241.761719 C 538.054688 259.253906 541.128906 276.675781 542.386719 294.308594 C 543.46875 309.53125 543.117188 325.175781 538.929688 339.945312 C 534.460938 355.761719 525.3125 369.203125 511.660156 378.492188 C 497.867188 387.847656 481.875 393.085938 466.964844 400.347656 C 453.628906 406.84375 442 415.292969 432.886719 427.09375 C 415.816406 449.195312 408.308594 476.746094 395.878906 501.394531 C 389.765625 513.476562 382.367188 525.171875 372.03125 534.109375 C 358.761719 545.5625 341.792969 551.570312 324.542969 553.246094 C 288.582031 556.773438 253.769531 543.292969 217.945312 542.875 C 198.953125 542.664062 180.550781 546.296875 163.269531 554.222656 C 146.472656 561.9375 131.320312 572.625 116.339844 583.34375 C 101.535156 593.921875 86.347656 605.023438 68.75 610.402344 C 53.527344 615.046875 36.417969 614.347656 22.589844 606.003906 C 16.515625 602.335938 11.488281 597.238281 8.347656 590.847656 C 8.03125 590.257812 7.160156 590.78125 7.4375 591.375 C 13.546875 603.734375 26.398438 610.960938 39.59375 613.371094 C 55.34375 616.269531 70.84375 612.042969 84.882812 604.851562 C 101.433594 596.402344 115.992188 584.53125 131.285156 574.089844 C 147.03125 563.371094 163.722656 553.417969 182.191406 548.253906 C 201.710938 542.769531 222.136719 543.15625 242.039062 545.703125 C 260.019531 548.007812 277.722656 552.234375 295.738281 553.976562 C 312.429688 555.585938 329.640625 555.199219 345.703125 549.894531 C 359.914062 545.214844 372.554688 536.730469 382.085938 525.171875 C 399.824219 503.558594 407.296875 475.625 419.550781 450.941406 C 425.835938 438.300781 433.414062 426.082031 443.921875 416.515625 C 456.527344 404.992188 472.65625 398.8125 488.054688 392.039062 C 502.753906 385.578125 517.453125 378.105469 527.546875 365.222656 C 536.484375 353.804688 541.023438 339.734375 542.839844 325.523438 C 544.828125 309.914062 543.675781 294.167969 541.792969 278.597656 C 539.523438 259.882812 536.378906 241.304688 534.878906 222.519531 C 531.839844 184.601562 536.589844 145.949219 550.730469 110.511719 C 564.695312 75.59375 588.71875 47.171875 616.371094 22.175781 C 622.9375 16.238281 629.570312 10.582031 636.273438 4.960938 C 636.796875 4.542969 636.03125 3.808594 635.539062 4.226562 Z M 635.539062 3.878906 C 608.480469 24.164062 582.1875 46.441406 563.265625 74.792969 C 544.339844 103.144531 533.691406 138.480469 529.082031 173.011719 C 526.601562 191.550781 525.589844 210.335938 525.242188 229.050781 C 524.890625 246.683594 525.449219 264.421875 527.859375 281.914062 C 528.90625 289.59375 530.410156 297.171875 530.582031 304.957031 C 530.757812 312.605469 530.023438 320.25 528.347656 327.6875 C 524.960938 342.738281 517.523438 356.808594 506.140625 367.316406 C 493.992188 378.527344 478.3125 384.671875 463.441406 391.304688 C 449.402344 397.554688 435.785156 404.609375 425.207031 415.992188 C 406.074219 436.589844 398.113281 464.59375 386.695312 489.664062 C 381.074219 501.988281 374.542969 514.175781 365.152344 524.019531 C 353.734375 536.03125 338.371094 543.78125 322.308594 547.414062 C 288.09375 555.09375 253.316406 544.832031 218.855469 545.457031 C 200.140625 545.773438 181.914062 549.300781 164.664062 556.667969 C 147.417969 564.035156 131.460938 574.4375 115.886719 584.949219 C 89.246094 602.964844 54.191406 627.058594 22.101562 606.492188 C 16.132812 602.6875 11.3125 597.414062 8.554688 590.882812 C 8.277344 590.253906 7.402344 590.816406 7.648438 591.40625 C 12.988281 604.011719 25.734375 611.554688 38.722656 614.207031 C 54.609375 617.457031 70.320312 612.984375 84.496094 605.792969 C 101.046875 597.378906 115.816406 585.890625 131.425781 575.941406 C 147.765625 565.535156 165.046875 556.003906 183.902344 551.046875 C 202.6875 546.085938 222.207031 545.808594 241.445312 547.238281 C 258.832031 548.53125 276.152344 551.289062 293.609375 551.324219 C 309.742188 551.359375 326.011719 549.089844 340.78125 542.351562 C 354.222656 536.242188 365.535156 526.8125 374.019531 514.769531 C 390.1875 491.792969 396.925781 463.753906 410.226562 439.246094 C 417.28125 426.253906 426.324219 414.28125 438.578125 405.761719 C 452.265625 396.226562 468.222656 390.851562 483.097656 383.589844 C 496.820312 376.882812 509.179688 368.191406 517.804688 355.339844 C 525.871094 343.332031 530.234375 329.050781 531.386719 314.664062 C 532.609375 298.847656 528.664062 283.484375 527.371094 267.808594 C 525.800781 249.058594 525.972656 230.203125 526.917969 211.417969 C 528.769531 174.335938 533.902344 137.117188 549.089844 102.898438 C 564.277344 68.683594 588.230469 43.226562 615.953125 20.496094 C 622.515625 15.085938 629.253906 9.882812 636.0625 4.785156 C 636.589844 4.402344 636.0625 3.457031 635.539062 3.878906 Z M 635.4375 3.632812 C 608.410156 21.789062 582.257812 42.214844 562.742188 68.578125 C 541.859375 96.789062 531.105469 130.761719 525.136719 164.980469 C 522.097656 182.4375 520.386719 200.070312 518.46875 217.667969 C 516.511719 235.613281 514.59375 253.667969 514.90625 271.753906 C 515.152344 286.695312 518.503906 301.328125 516.304688 316.304688 C 514.066406 331.355469 507.816406 345.84375 497.726562 357.296875 C 476.289062 381.597656 441.476562 384.914062 417.664062 405.898438 C 396.890625 424.230469 388.054688 451.710938 377.757812 476.5 C 372.378906 489.453125 366.511719 502.511719 357.785156 513.582031 C 347.867188 526.183594 333.972656 535.4375 318.957031 540.851562 C 286.835938 552.441406 252.375 545.773438 219.097656 547.691406 C 200.59375 548.777344 182.472656 552.371094 165.292969 559.496094 C 148.324219 566.511719 132.507812 575.941406 117.039062 585.714844 C 89.910156 602.894531 54.433594 628.558594 22.277344 607.503906 C 16.167969 603.523438 11.210938 597.9375 8.765625 590.988281 C 8.554688 590.359375 7.542969 590.640625 7.753906 591.269531 C 12.222656 604.046875 24.652344 612.042969 37.394531 615.011719 C 53.179688 618.746094 69.03125 614.277344 83.207031 607.261719 C 99.824219 599.054688 114.910156 587.953125 130.761719 578.453125 C 146.613281 568.957031 164.875 559.390625 183.695312 554.257812 C 202.023438 549.265625 221.054688 548.148438 239.976562 548.320312 C 256.597656 548.496094 273.289062 549.71875 289.90625 548.148438 C 305.726562 546.644531 321.332031 542.5625 335.125 534.460938 C 347.554688 527.128906 357.574219 517.140625 365.082031 504.886719 C 379.78125 480.933594 386.03125 452.898438 400.488281 428.769531 C 408.34375 415.675781 418.574219 404.851562 431.769531 397.101562 C 445.808594 388.859375 461.378906 383.625 475.625 375.765625 C 488.894531 368.46875 500.101562 358.414062 507.609375 345.179688 C 514.558594 332.890625 518.117188 318.820312 518.292969 304.75 C 518.398438 297.382812 517.105469 290.152344 516.511719 282.820312 C 515.847656 274.265625 515.847656 265.644531 516.199219 257.054688 C 517 238.199219 519.375 219.449219 521.402344 200.699219 C 525.3125 164.699219 531.421875 128.285156 547.585938 95.496094 C 563.054688 64.003906 588.300781 39.179688 616.195312 18.4375 C 622.65625 13.621094 629.289062 9.011719 635.960938 4.542969 C 636.519531 4.15625 635.996094 3.25 635.4375 3.632812 Z M 635.332031 3.355469 C 607.921875 19.90625 581.386719 39.039062 561.203125 64.210938 C 539.835938 90.886719 528.628906 123.289062 521.75 156.390625 C 514.871094 189.492188 511.03125 225.839844 507.292969 260.683594 C 505.652344 275.90625 504.082031 291.167969 501.601562 306.285156 C 499.296875 320.390625 495.667969 334.601562 487.847656 346.753906 C 469.761719 374.753906 433.796875 378.769531 408.65625 397.800781 C 386.414062 414.664062 376.847656 441.96875 366.96875 467.003906 C 361.90625 479.816406 356.667969 492.734375 348.914062 504.1875 C 340.117188 517.210938 327.441406 527.441406 313.40625 534.355469 C 283.65625 549.019531 250.070312 546.191406 218.015625 549.753906 C 199.753906 551.777344 181.878906 555.757812 164.839844 562.742188 C 147.941406 569.65625 131.949219 578.59375 116.269531 587.917969 C 88.964844 604.152344 52.550781 630.339844 21.195312 607.957031 C 15.328125 603.769531 10.683594 598.042969 8.800781 591.023438 C 8.625 590.359375 7.613281 590.640625 7.789062 591.304688 C 11.277344 604.222656 23.535156 612.636719 35.929688 615.953125 C 51.816406 620.214844 67.980469 615.535156 82.367188 608.585938 C 98.777344 600.660156 113.933594 590.222656 129.75 581.28125 C 146.753906 571.679688 164.421875 562.8125 183.238281 557.433594 C 201.117188 552.300781 219.621094 550.3125 238.164062 549.195312 C 253.59375 548.253906 269.097656 547.902344 284.320312 545.003906 C 299.859375 542.003906 314.835938 536.277344 327.757812 527.023438 C 339.417969 518.679688 348.460938 508.203125 355.304688 495.632812 C 368.746094 470.984375 374.71875 442.734375 390.359375 419.203125 C 398.984375 406.214844 410.402344 396.648438 424.125 389.417969 C 438.441406 381.878906 453.941406 376.535156 467.628906 367.804688 C 480.023438 359.914062 489.242188 348.953125 494.898438 335.371094 C 500.277344 322.484375 502.40625 308.554688 504.257812 294.796875 C 508.933594 260.089844 511.660156 225.175781 516.792969 190.539062 C 521.925781 155.832031 528.835938 120.390625 545.703125 89.246094 C 562.078125 59.21875 587.8125 36 615.777344 17.042969 C 622.34375 12.605469 629.082031 8.382812 635.855469 4.261719 C 636.449219 3.914062 635.925781 3.003906 635.332031 3.355469 Z M 635.226562 3.109375 C 607.433594 18.195312 580.511719 36.140625 559.703125 60.230469 C 537.777344 85.582031 525.941406 116.726562 518.46875 149.058594 C 510.613281 182.996094 505.898438 217.703125 499.4375 251.957031 C 496.574219 267.144531 493.46875 282.296875 490.082031 297.417969 C 487.113281 310.683594 484.039062 324.160156 477.652344 336.3125 C 470.109375 350.628906 458.34375 360.335938 444.167969 367.738281 C 430.09375 375.105469 415.011719 380.480469 401.570312 389.035156 C 377.371094 404.433594 366.480469 430.410156 356.703125 456.214844 C 351.847656 469.027344 347.171875 482.015625 340.328125 493.957031 C 332.644531 507.402344 321.472656 518.503906 308.554688 526.988281 C 281.914062 544.515625 250.453125 546.226562 219.902344 551.148438 C 201.710938 554.082031 183.761719 558.34375 166.621094 565.1875 C 149.652344 571.996094 133.414062 580.480469 117.457031 589.347656 C 89.558594 604.851562 50 633.378906 19.378906 607.820312 C 14.175781 603.488281 10.230469 597.796875 8.972656 591.09375 C 8.871094 590.429688 7.855469 590.710938 7.960938 591.375 C 10.40625 604.535156 22.695312 613.511719 34.882812 617.105469 C 50.628906 621.714844 66.933594 616.964844 81.355469 610.261719 C 98.253906 602.371094 114.035156 592.210938 130.480469 583.445312 C 148.042969 574.125 166.097656 565.5 185.230469 559.84375 C 202.023438 554.886719 219.308594 552.128906 236.589844 549.71875 C 251.710938 547.625 266.933594 545.703125 281.492188 540.953125 C 295.984375 536.242188 309.425781 528.910156 320.914062 518.886719 C 331.703125 509.496094 339.734375 498.460938 345.878906 485.578125 C 357.855469 460.4375 363.824219 432.050781 380.828125 409.496094 C 390.675781 396.402344 404.046875 387.953125 418.609375 380.96875 C 432.539062 374.300781 447.378906 368.75 459.773438 359.285156 C 483.097656 341.480469 488.195312 311.488281 493.957031 284.496094 C 501.148438 250.839844 506.734375 216.863281 512.742188 182.996094 C 518.746094 149.128906 526.113281 113.480469 544.234375 83.242188 C 561.34375 54.714844 587.425781 33.03125 615.394531 15.75 C 622.0625 11.628906 628.871094 7.71875 635.75 3.984375 C 636.34375 3.703125 635.820312 2.796875 635.226562 3.109375 Z M 635.15625 2.832031 C 607.328125 16.414062 580.375 32.996094 558.96875 55.691406 C 548.109375 67.214844 539.03125 80.203125 532.050781 94.414062 C 524.71875 109.324219 519.585938 125.210938 515.464844 141.308594 C 511.308594 157.648438 508.238281 174.269531 505.023438 190.816406 C 501.671875 208.101562 497.9375 225.316406 493.539062 242.421875 C 489.628906 257.648438 485.261719 272.765625 480.515625 287.746094 C 476.324219 300.941406 472.621094 314.558594 466.617188 327.058594 C 459.914062 341.0625 449.925781 352.09375 436.484375 359.914062 C 423.042969 367.738281 408.378906 373.042969 394.796875 380.585938 C 382.332031 387.5 371.820312 396.507812 363.859375 408.414062 C 356.109375 420.003906 350.871094 433.0625 346.050781 446.089844 C 341.234375 459.113281 336.90625 472.414062 330.691406 484.878906 C 324.054688 498.148438 314.523438 509.425781 303.210938 518.992188 C 291.480469 528.910156 277.898438 536.242188 263.40625 541.234375 C 248.8125 546.226562 233.589844 549.089844 218.574219 552.546875 C 201.257812 556.5625 184.078125 561.242188 167.527344 567.875 C 150.453125 574.753906 133.9375 582.992188 117.632812 591.511719 C 101.046875 600.171875 84.671875 610.507812 66.691406 616.09375 C 50.453125 621.121094 32.472656 620.597656 19.101562 608.972656 C 13.863281 604.398438 9.8125 598.320312 9.148438 591.269531 C 9.078125 590.605469 8.03125 590.605469 8.101562 591.269531 C 9.324219 604.257812 20.847656 613.753906 32.472656 617.839844 C 48.253906 623.425781 65.085938 618.746094 79.820312 612.183594 C 96.925781 604.570312 113.128906 594.828125 129.851562 586.378906 C 147.3125 577.546875 165.082031 569.203125 183.660156 563.089844 C 200.035156 557.714844 216.898438 553.941406 233.691406 550.136719 C 248.042969 546.890625 262.394531 543.433594 275.871094 537.359375 C 289.769531 531.074219 302.304688 522.203125 312.953125 511.277344 C 322.796875 501.183594 329.957031 489.835938 335.507812 476.882812 C 346.578125 451.011719 352.617188 421.714844 371.542969 400 C 382.050781 387.953125 396.15625 380.550781 410.402344 373.882812 C 424.300781 367.386719 439.207031 361.453125 450.660156 350.941406 C 460.925781 341.550781 467.457031 329.191406 472.238281 316.269531 C 477.09375 303.140625 481.109375 289.628906 485.15625 276.222656 C 495.179688 243.085938 502.371094 209.429688 509.039062 175.488281 C 515.605469 141.96875 523.320312 107.4375 542.246094 78.421875 C 560.191406 51.015625 586.761719 30.519531 615.046875 14.527344 C 621.785156 10.722656 628.695312 7.160156 635.679688 3.738281 C 636.273438 3.457031 635.75 2.550781 635.15625 2.832031 Z M 635.050781 2.585938 C 607.085938 14.839844 579.953125 30.273438 557.992188 51.78125 C 546.890625 62.675781 537.355469 75.035156 529.988281 88.757812 C 522.167969 103.285156 516.6875 118.925781 512.324219 134.777344 C 503.347656 167.492188 498.808594 201.222656 489 233.730469 C 484.355469 249.164062 478.839844 264.28125 472.761719 279.191406 C 467.558594 291.863281 462.359375 304.644531 456.527344 317.003906 C 450.242188 330.375 441.863281 342.632812 429.605469 351.1875 C 416.898438 360.054688 402.023438 365.433594 388.230469 372.34375 C 375.242188 378.910156 363.300781 386.90625 354.363281 398.566406 C 345.949219 409.566406 340.394531 422.414062 335.613281 435.300781 C 330.691406 448.636719 326.675781 462.324219 321.019531 475.382812 C 315.117188 489 306.667969 500.800781 296.367188 511.484375 C 286.03125 522.238281 273.953125 531.144531 260.578125 537.742188 C 247.066406 544.410156 232.507812 548.777344 218.15625 553.210938 C 201.429688 558.414062 184.707031 563.683594 168.46875 570.355469 C 151.046875 577.511719 134.078125 585.75 117.214844 594.0625 C 100.347656 602.371094 83.589844 612.324219 65.46875 617.664062 C 48.988281 622.554688 30.726562 621.820312 17.808594 609.214844 C 12.921875 604.433594 9.324219 598.148438 9.324219 591.164062 C 9.324219 590.5 8.277344 590.5 8.277344 591.164062 C 8.242188 603.941406 19.203125 614.035156 30.273438 618.574219 C 45.84375 624.996094 63.023438 620.527344 77.898438 614.277344 C 95.601562 606.875 112.5 597.414062 129.785156 589.070312 C 147.066406 580.722656 165.605469 572.101562 184.253906 565.394531 C 200.035156 559.703125 216.164062 555.0625 232.121094 549.894531 C 245.738281 545.457031 259.148438 540.464844 271.402344 532.957031 C 284.355469 525.03125 295.632812 514.734375 305.234375 503 C 314 492.316406 320.214844 480.65625 325.171875 467.769531 C 335.367188 441.09375 341.722656 410.578125 363.230469 390.152344 C 386.101562 368.398438 421.121094 364.976562 442.351562 341.199219 C 451.289062 331.179688 456.980469 318.960938 462.148438 306.703125 C 467.734375 293.4375 473.601562 280.273438 478.734375 266.792969 C 484.914062 250.59375 490.289062 234.113281 494.65625 217.355469 C 498.878906 201.117188 502.058594 184.601562 505.515625 168.191406 C 512.460938 135.058594 520.839844 101.082031 540.917969 73.117188 C 559.84375 46.824219 586.972656 27.585938 615.570312 12.957031 C 622.132812 9.605469 628.835938 6.460938 635.574219 3.492188 C 636.167969 3.214844 635.644531 2.308594 635.050781 2.585938 Z M 635.050781 2.273438 C 607.152344 13.269531 580.023438 27.480469 557.609375 47.664062 C 546.367188 57.789062 536.449219 69.378906 528.628906 82.367188 C 520.214844 96.335938 514.277344 111.664062 509.597656 127.234375 C 499.960938 159.5 495.773438 193.121094 485.472656 225.210938 C 480.304688 241.238281 473.878906 256.84375 466.441406 271.925781 C 460.296875 284.425781 453.3125 296.472656 446.714844 308.730469 C 439.976562 321.195312 432.539062 333.34375 421.574219 342.597656 C 409.425781 352.828125 394.097656 358.449219 379.957031 365.257812 C 366.511719 371.71875 353.386719 379.1875 343.714844 390.78125 C 334.949219 401.222656 329.152344 413.722656 324.441406 426.429688 C 319.550781 439.628906 315.851562 453.246094 310.890625 466.410156 C 305.585938 480.550781 298.007812 492.945312 288.582031 504.746094 C 279.085938 516.617188 268.015625 527.128906 255.203125 535.367188 C 242.5625 543.46875 228.5625 549.265625 214.664062 554.816406 C 198.742188 561.136719 182.644531 567.140625 166.933594 573.984375 C 149.230469 581.667969 131.808594 589.976562 114.351562 598.148438 C 97.277344 606.144531 80.0625 615.710938 61.699219 620.320312 C 45.390625 624.402344 27.585938 622.554688 15.992188 609.214844 C 11.699219 604.257812 8.835938 598.007812 9.53125 591.339844 C 9.601562 590.675781 8.554688 590.675781 8.484375 591.339844 C 7.160156 603.804688 17.492188 614.523438 27.933594 619.515625 C 43.050781 626.742188 60.371094 622.761719 75.28125 617 C 92.945312 610.15625 109.953125 601.324219 127.09375 593.328125 C 144.9375 585.019531 162.742188 576.636719 180.96875 569.203125 C 209.253906 557.679688 240.152344 548.8125 264.664062 529.957031 C 276.640625 520.738281 286.765625 509.425781 295.5625 497.171875 C 303.699219 485.753906 309.496094 473.742188 314.070312 460.542969 C 323.460938 433.414062 329.992188 402.375 352.929688 382.890625 C 365.222656 372.449219 380.375 366.199219 394.832031 359.425781 C 408.9375 352.828125 422.03125 345.496094 432.121094 333.378906 C 440.535156 323.253906 446.226562 311.417969 452.582031 300 C 459.914062 286.835938 467.070312 273.636719 473.214844 259.882812 C 480.339844 243.996094 486.238281 227.617188 490.777344 210.824219 C 495.316406 194.03125 498.390625 178.074219 501.988281 161.664062 C 509.285156 128.738281 518.398438 95.289062 539.589844 68.332031 C 559.144531 43.472656 586.132812 25.5625 614.519531 12.222656 C 621.363281 9.011719 628.3125 6.042969 635.332031 3.285156 C 635.960938 3.039062 635.679688 2.027344 635.050781 2.273438 Z M 634.980469 1.992188 C 606.839844 11.910156 579.464844 25.210938 556.492188 44.484375 C 545.039062 54.121094 534.773438 65.226562 526.566406 77.761719 C 517.769531 91.203125 511.449219 106.148438 506.5625 121.441406 C 496.4375 153.003906 492.386719 186.175781 482.257812 217.738281 C 476.953125 234.359375 469.863281 250.382812 461.378906 265.644531 C 454.328125 278.28125 446.121094 290.117188 437.917969 302.023438 C 430.09375 313.371094 422.796875 325.105469 412.601562 334.566406 C 400.835938 345.496094 386.066406 351.535156 371.714844 358.203125 C 358.097656 364.523438 344.273438 371.402344 333.761719 382.402344 C 324.089844 392.492188 317.769531 405.238281 312.953125 418.226562 C 307.925781 431.773438 304.46875 445.773438 299.894531 459.460938 C 295.179688 473.636719 288.300781 486.382812 280.0625 498.8125 C 271.75 511.3125 262.046875 522.902344 250.453125 532.433594 C 238.859375 541.96875 225.453125 549.300781 211.976562 555.933594 C 196.296875 563.648438 180.273438 570.597656 164.386719 577.929688 C 146.859375 586.03125 129.363281 594.203125 111.695312 602.023438 C 94.519531 609.632812 77.058594 618.710938 58.554688 622.621094 C 42.320312 626.042969 24.617188 623.320312 14.28125 609.144531 C 10.582031 604.082031 8.3125 597.796875 9.671875 591.511719 C 9.8125 590.847656 8.800781 590.570312 8.660156 591.234375 C 6.109375 602.859375 14.804688 613.789062 24.164062 619.515625 C 38.09375 628.035156 55.132812 625.484375 69.902344 620.597656 C 87.605469 614.730469 104.644531 606.351562 121.648438 598.742188 C 139.421875 590.78125 156.984375 582.433594 174.683594 574.371094 C 203.210938 561.378906 234.113281 549.507812 257.332031 527.792969 C 268.398438 517.457031 277.476562 505.234375 285.402344 492.421875 C 289.347656 486.066406 293.15625 479.605469 296.089844 472.695312 C 298.707031 466.546875 300.835938 460.230469 302.828125 453.875 C 311.695312 425.417969 318.539062 393.75 343.851562 374.964844 C 356.597656 365.535156 371.472656 359.636719 385.683594 352.898438 C 392.945312 349.476562 400.101562 345.84375 406.527344 340.992188 C 412.289062 336.660156 417.457031 331.5625 422.066406 326.011719 C 430.550781 315.816406 437.671875 304.363281 445.214844 293.4375 C 453.976562 280.726562 462.007812 267.527344 468.851562 253.703125 C 476.429688 238.339844 482.398438 222.242188 486.902344 205.726562 C 491.304688 189.492188 494.585938 173.011719 498.320312 156.636719 C 505.828125 123.675781 515.640625 90.644531 537.914062 64.421875 C 558.132812 40.503906 585.332031 23.675781 613.753906 11.386719 C 620.804688 8.347656 628 5.589844 635.261719 3.003906 C 635.890625 2.796875 635.609375 1.78125 634.980469 1.992188 Z M 634.878906 1.75 C 606.558594 10.6875 578.871094 23.117188 555.375 41.515625 C 543.433594 50.875 532.714844 61.769531 524.019531 74.199219 C 514.90625 87.222656 508.273438 101.78125 503.210938 116.796875 C 492.558594 148.253906 488.40625 181.460938 478.417969 213.09375 C 468.503906 244.484375 451.394531 272.453125 429.957031 297.3125 C 421.191406 307.472656 412.917969 318.261719 403.070312 327.445312 C 390.953125 338.722656 376.570312 345.285156 361.660156 352.023438 C 347.972656 358.203125 334.007812 364.804688 322.9375 375.207031 C 312.742188 384.84375 306.109375 397.449219 301.253906 410.4375 C 296.15625 424.195312 292.945312 438.582031 288.859375 452.652344 C 284.671875 467.039062 278.523438 480.304688 271.261719 493.433594 C 264 506.5625 255.132812 519.761719 244.238281 530.6875 C 233.519531 541.445312 220.878906 549.996094 207.855469 557.679688 C 192.738281 566.617188 176.953125 574.402344 161.171875 582.15625 C 143.679688 590.746094 125.976562 598.777344 107.996094 606.28125 C 91.167969 613.300781 73.882812 621.644531 55.796875 624.824219 C 39.386719 627.722656 21.648438 624.089844 12.5 608.902344 C 9.359375 603.664062 7.789062 597.414062 9.777344 591.476562 C 9.988281 590.847656 8.972656 590.570312 8.765625 591.199219 C 4.925781 602.441406 12.988281 614.101562 21.929688 620.285156 C 35.335938 629.570312 52.550781 627.511719 67.320312 623.078125 C 85.160156 617.734375 102.410156 609.878906 119.484375 602.511719 C 137.1875 594.898438 154.539062 586.625 171.789062 578.035156 C 200.175781 563.894531 230.097656 548.984375 251.222656 524.648438 C 261.171875 513.160156 269.0625 500.101562 276.046875 486.660156 C 279.433594 480.164062 282.75 473.601562 285.332031 466.757812 C 287.777344 460.265625 289.699219 453.59375 291.550781 446.890625 C 295.53125 432.4375 298.984375 417.769531 304.921875 403.980469 C 311.171875 389.523438 320.285156 377.128906 333.34375 368.15625 C 346.679688 359.007812 361.90625 353.28125 376.429688 346.367188 C 390.429688 339.699219 402.164062 330.65625 412.53125 319.167969 C 421.75 308.9375 430.828125 298.324219 439.382812 287.5 C 448.984375 275.382812 457.609375 262.5 464.730469 248.777344 C 480.652344 218.226562 486.796875 184.742188 494.621094 151.539062 C 502.300781 118.855469 512.777344 86.59375 535.679688 61.210938 C 556.769531 37.851562 584.738281 21.683594 613.753906 10.265625 C 620.769531 7.507812 627.929688 5.03125 635.121094 2.761719 C 635.785156 2.550781 635.503906 1.539062 634.878906 1.75 Z M 634.773438 1.503906 C 605.722656 9.640625 577.195312 21.546875 552.929688 39.703125 C 541.371094 48.359375 530.863281 58.417969 522.132812 69.9375 C 512.425781 82.71875 505.304688 97.136719 499.890625 112.1875 C 488.683594 143.367188 484.527344 176.46875 474.824219 208.066406 C 465.046875 239.875 447.832031 268.121094 424.613281 291.898438 C 414.976562 301.746094 404.851562 311.453125 394.445312 320.496094 C 388.300781 325.835938 381.738281 330.761719 374.683594 334.882812 C 367.628906 339 360.125 342.144531 352.6875 345.390625 C 338.753906 351.464844 324.507812 357.679688 312.8125 367.5625 C 301.847656 376.78125 294.621094 389.140625 289.628906 402.410156 C 284.355469 416.410156 281.457031 431.109375 277.898438 445.597656 C 274.160156 460.753906 268.609375 475.066406 262.113281 489.246094 C 255.691406 503.28125 248.183594 516.933594 238.300781 528.910156 C 228.351562 540.953125 216.164062 550.941406 203.351562 559.808594 C 173.324219 580.515625 139.769531 596.539062 105.9375 609.914062 C 97.171875 613.371094 88.375 616.722656 79.503906 619.898438 C 70.636719 623.078125 61.277344 626.113281 51.746094 627.265625 C 35.789062 629.1875 19.101562 624.507812 11.242188 609.390625 C 8.414062 603.90625 7.261719 597.414062 9.988281 591.652344 C 10.265625 591.058594 9.359375 590.5 9.078125 591.128906 C 4.085938 601.671875 10.824219 613.789062 19.03125 620.5625 C 31.425781 630.792969 48.324219 629.886719 63.058594 626.183594 C 81.214844 621.609375 98.882812 614.070312 116.167969 606.945312 C 133.800781 599.683594 151.011719 591.511719 167.808594 582.46875 C 195.636719 567.492188 224.054688 550.101562 243.226562 524.40625 C 252.652344 511.765625 259.742188 497.625 265.992188 483.203125 C 269.0625 476.082031 272.207031 468.851562 274.613281 461.449219 C 276.847656 454.609375 278.523438 447.625 280.203125 440.640625 C 283.691406 425.835938 286.90625 410.824219 293.050781 396.820312 C 299.613281 381.84375 309.671875 369.867188 323.566406 361.136719 C 336.765625 352.828125 351.464844 347.449219 365.535156 340.886719 C 380.0625 334.148438 392.351562 324.300781 403.839844 313.335938 C 414.171875 303.492188 424.789062 293.855469 434.214844 283.101562 C 444.691406 271.125 453.90625 258.03125 461.308594 243.960938 C 477.195312 213.863281 482.851562 180.34375 490.746094 147.625 C 494.792969 130.796875 499.507812 114.039062 506.667969 98.222656 C 513.371094 83.453125 522.308594 69.9375 533.515625 58.207031 C 555.375 35.335938 583.933594 19.90625 613.472656 9.324219 C 620.5625 6.777344 627.789062 4.507812 635.050781 2.480469 C 635.714844 2.308594 635.4375 1.292969 634.773438 1.503906 Z M 634.667969 1.222656 C 605.441406 8.523438 576.707031 19.589844 551.917969 36.941406 C 539.695312 45.496094 528.488281 55.589844 519.199219 67.285156 C 509.460938 79.503906 502.125 93.367188 496.539062 107.925781 C 484.5625 139.316406 480.410156 172.90625 470.738281 204.921875 C 461.136719 236.59375 444.339844 264.734375 420.25 287.5 C 409.566406 297.589844 397.660156 306.425781 385.855469 315.1875 C 372.378906 325.242188 358.273438 333.03125 342.734375 339.453125 C 328.699219 345.285156 314.347656 351.1875 302.199219 360.542969 C 290.640625 369.449219 282.820312 381.390625 277.6875 394.972656 C 272.554688 408.519531 269.796875 424.054688 266.828125 438.824219 C 263.789062 454.050781 259.285156 468.714844 254.015625 483.273438 C 248.53125 498.496094 241.96875 513.40625 232.820312 526.8125 C 223.917969 539.835938 212.605469 551.082031 200.382812 560.960938 C 171.753906 584.074219 138.128906 600.800781 103.804688 613.613281 C 95.007812 616.898438 86.171875 620.003906 77.234375 622.9375 C 68.050781 625.941406 58.660156 628.699219 48.988281 629.5 C 33.03125 630.863281 16.621094 625.449219 9.8125 609.84375 C 7.261719 604.011719 6.671875 597.238281 10.09375 591.652344 C 10.441406 591.058594 9.53125 590.535156 9.183594 591.128906 C 3.144531 600.976562 8.695312 613.476562 16.203125 620.808594 C 27.691406 632.015625 44.554688 632.050781 59.359375 628.976562 C 68.960938 626.988281 78.246094 623.742188 87.5 620.5625 C 96.753906 617.386719 105.238281 614.277344 114 610.820312 C 131.53125 603.875 148.5 595.773438 164.804688 586.308594 C 192.597656 570.179688 219.691406 550.101562 236.941406 522.449219 C 245.460938 508.796875 251.570312 493.785156 256.808594 478.59375 C 261.871094 463.929688 265.886719 449.335938 268.855469 434.148438 C 271.820312 418.957031 274.789062 403.492188 281.179688 389.316406 C 287.988281 374.230469 298.917969 362.847656 313.128906 354.539062 C 327.234375 346.261719 342.804688 341.375 357.433594 334.21875 C 371.855469 327.199219 384.53125 317.597656 397.167969 307.855469 C 408.867188 298.882812 420.179688 289.769531 430.199219 278.910156 C 440.988281 267.285156 450.277344 254.261719 457.679688 240.222656 C 473.566406 209.988281 478.804688 175.976562 486.9375 143.191406 C 491.023438 126.710938 495.84375 110.335938 503.175781 95.007812 C 510.226562 80.238281 519.691406 66.832031 531.351562 55.34375 C 554.011719 32.964844 583.203125 18.226562 613.195312 8.453125 C 620.386719 6.113281 627.648438 4.050781 634.945312 2.238281 C 635.609375 2.0625 635.332031 1.050781 634.667969 1.222656 Z M 634.5625 0.945312 C 604.917969 7.472656 575.625 17.949219 550.171875 34.8125 C 537.53125 43.160156 525.941406 53.144531 516.234375 64.769531 C 506.316406 76.644531 498.738281 90.121094 492.980469 104.472656 C 480.410156 135.824219 476.253906 169.695312 466.6875 201.921875 C 461.800781 218.402344 455.304688 234.289062 446.121094 248.8125 C 437.671875 262.222656 427.265625 274.335938 415.394531 284.882812 C 403.941406 295.042969 391.199219 303.105469 378.175781 311.035156 C 363.023438 320.214844 347.519531 328.175781 330.933594 334.53125 C 316.722656 339.980469 302.304688 345.703125 290.011719 354.851562 C 277.933594 363.859375 269.796875 376.011719 264.804688 390.152344 C 259.742188 404.539062 257.75 419.761719 255.410156 434.742188 C 252.933594 450.835938 249.160156 466.652344 244.585938 482.261719 C 239.941406 498.21875 234.042969 513.859375 225.417969 528.105469 C 217.074219 541.828125 206.320312 554.011719 194.414062 564.699219 C 167.074219 589.242188 133.972656 606.109375 99.476562 618.117188 C 90.363281 621.296875 81.179688 624.265625 71.929688 626.917969 C 62.953125 629.464844 53.703125 631.667969 44.34375 631.839844 C 35.964844 632.015625 27.097656 630.515625 20.113281 625.625 C 14.457031 621.644531 9.953125 615.710938 7.925781 609.039062 C 6.109375 603.140625 6.390625 596.679688 10.265625 591.652344 C 10.683594 591.128906 9.777344 590.605469 9.359375 591.128906 C 2.132812 600.484375 6.878906 613.71875 14.039062 621.609375 C 24.546875 633.203125 40.992188 634.144531 55.550781 631.804688 C 64.945312 630.269531 74.128906 627.441406 83.207031 624.578125 C 92.285156 621.714844 100.976562 618.816406 109.707031 615.535156 C 127.480469 608.867188 144.65625 600.800781 160.824219 590.847656 C 188.269531 573.984375 213.722656 551.882812 229.398438 523.355469 C 237.5 508.621094 242.945312 492.5625 247.378906 476.359375 C 251.605469 460.859375 254.886719 445.355469 257.296875 429.46875 C 259.671875 413.894531 262.113281 397.972656 268.574219 383.449219 C 275.488281 367.910156 287.183594 356.632812 301.953125 348.464844 C 316.582031 340.363281 332.679688 335.648438 347.832031 328.699219 C 362.8125 321.820312 376.882812 313.199219 390.851562 304.503906 C 417.421875 287.953125 439.765625 264.839844 454.152344 236.941406 C 469.828125 206.496094 474.753906 172.171875 483.132812 139.316406 C 487.359375 122.660156 492.523438 106.113281 500.382812 90.75 C 507.75 76.363281 517.558594 63.480469 529.359375 52.480469 C 552.71875 30.660156 582.503906 16.585938 612.949219 7.578125 C 620.175781 5.449219 627.476562 3.597656 634.84375 1.957031 C 635.503906 1.816406 635.226562 0.804688 634.5625 0.945312 Z M 634.492188 0.699219 C 604.394531 6.496094 574.578125 16.378906 548.496094 32.753906 C 522.414062 49.128906 501.535156 72.417969 489.417969 101.222656 C 476.148438 132.789062 472.03125 167.074219 462.496094 199.757812 C 457.714844 216.132812 451.429688 232.019531 442.351562 246.507812 C 433.867188 260.054688 423.320312 272.277344 411.207031 282.679688 C 399.089844 293.085938 386.34375 300.90625 372.414062 307.679688 C 356.214844 315.539062 339.699219 322.660156 322.695312 328.632812 C 307.75 333.867188 292.632812 339.035156 279.433594 348.042969 C 266.828125 356.667969 257.890625 368.398438 252.757812 382.785156 C 247.484375 397.554688 246.019531 413.335938 244.480469 428.839844 C 242.769531 445.878906 240.082031 462.847656 236.347656 479.539062 C 232.507812 496.644531 227.199219 513.511719 218.855469 529.046875 C 211.136719 543.46875 201.011719 556.527344 189.453125 568.050781 C 163.476562 593.957031 130.9375 610.996094 96.265625 622.273438 C 87.152344 625.242188 77.96875 627.964844 68.679688 630.304688 C 59.707031 632.574219 50.488281 634.390625 41.203125 634.179688 C 32.4375 633.96875 23.289062 631.839844 16.515625 625.976562 C 11.558594 621.679688 7.890625 615.746094 6.425781 609.355469 C 4.960938 602.964844 5.902344 596.644531 10.335938 591.933594 C 10.789062 591.441406 10.058594 590.710938 9.601562 591.199219 C 1.605469 599.71875 4.609375 612.847656 10.929688 621.4375 C 20.253906 634.074219 36.417969 636.414062 51.117188 634.808594 C 60.160156 633.796875 68.996094 631.492188 77.757812 629.046875 C 87.046875 626.464844 96.300781 623.601562 105.378906 620.386719 C 123.078125 614.136719 140.1875 606.316406 156.003906 596.191406 C 183.796875 578.382812 208.167969 554.011719 222.625 524.054688 C 237.253906 493.785156 242.421875 459.214844 245.808594 426.082031 C 247.484375 409.496094 249.335938 392.386719 256.25 376.988281 C 263.300781 361.347656 275.765625 350.382812 290.816406 342.632812 C 306.597656 334.460938 323.847656 329.816406 340.292969 323.253906 C 355.65625 317.109375 371.085938 310.40625 385.472656 302.199219 C 412.671875 286.730469 435.402344 263.652344 449.71875 235.789062 C 465.570312 205.027344 470.320312 170.253906 478.871094 137.117188 C 483.273438 120.113281 488.683594 103.25 497.0625 87.78125 C 504.816406 73.464844 515.117188 60.722656 527.300781 49.96875 C 551.429688 28.457031 581.769531 15.050781 612.707031 6.777344 C 619.96875 4.820312 627.335938 3.144531 634.738281 1.714844 C 635.402344 1.574219 635.121094 0.5625 634.492188 0.699219 C 634.457031 0.699219 634.457031 0.699219 634.492188 0.699219 Z M 634.386719 0.457031 C 603.835938 5.554688 573.53125 14.839844 546.785156 30.761719 C 519.757812 46.824219 498.179688 69.730469 485.542969 98.675781 C 471.890625 129.960938 467.734375 164.175781 458.480469 196.789062 C 453.769531 213.410156 447.625 229.644531 438.546875 244.414062 C 430.128906 258.136719 419.480469 270.425781 407.226562 280.867188 C 394.863281 291.375 380.863281 299.964844 365.886719 306.144531 C 349.195312 313.058594 331.703125 318.121094 314.417969 323.289062 C 298.425781 328.074219 282.261719 332.75 268.050781 341.792969 C 255.167969 350 245.53125 361.453125 240.398438 375.941406 C 234.949219 391.269531 234.21875 407.820312 233.519531 423.917969 C 232.75 441.6875 231.355469 459.425781 228.457031 476.988281 C 225.453125 495.003906 220.738281 512.777344 212.988281 529.363281 C 205.867188 544.585938 196.332031 558.691406 185.019531 571.15625 C 159.984375 598.742188 127.375 616.128906 91.96875 626.707031 C 74.757812 631.839844 55.867188 637.742188 37.710938 636.378906 C 29.15625 635.714844 20.289062 633.132812 14.039062 626.988281 C 9.042969 622.132812 5.585938 615.429688 4.785156 608.515625 C 4.085938 602.300781 5.726562 596.15625 10.476562 591.933594 C 10.964844 591.476562 10.230469 590.746094 9.742188 591.199219 C 0.839844 599.125 2.722656 612.707031 8.554688 621.890625 C 16.867188 635.019531 32.683594 638.40625 47.3125 637.460938 C 56.144531 636.902344 64.804688 634.984375 73.394531 632.851562 C 82.890625 630.515625 92.320312 627.894531 101.605469 624.789062 C 119.414062 618.886719 136.59375 611.136719 152.234375 600.730469 C 180.097656 582.15625 202.933594 555.757812 216.128906 524.894531 C 230.167969 492.039062 233.132812 455.828125 234.742188 420.53125 C 235.507812 403.492188 236.660156 385.71875 243.957031 370.007812 C 251.257812 354.292969 264.769531 343.644531 280.167969 336.417969 C 296.820312 328.5625 315.011719 324.371094 332.539062 318.960938 C 348.8125 313.894531 365.1875 308.625 380.269531 300.558594 C 408.34375 285.476562 431.703125 261.800781 445.945312 233.207031 C 461.484375 202.0625 465.988281 167.039062 474.824219 133.730469 C 479.328125 116.691406 485.019531 99.828125 493.78125 84.5 C 501.847656 70.394531 512.496094 57.960938 524.890625 47.523438 C 549.753906 26.574219 580.652344 13.722656 611.972656 6.078125 C 619.480469 4.261719 627.054688 2.726562 634.667969 1.433594 C 635.332031 1.328125 635.050781 0.316406 634.386719 0.457031 Z M 634.285156 0.175781 C 603.136719 4.644531 572.167969 13.445312 544.6875 29.050781 C 517.140625 44.695312 494.726562 67.355469 481.632812 96.371094 C 467.558594 127.515625 463.335938 161.871094 454.292969 194.554688 C 449.683594 211.242188 443.710938 227.6875 434.738281 242.5625 C 426.253906 256.667969 415.359375 269.308594 402.757812 279.886719 C 390.152344 290.46875 375.765625 299.09375 360.367188 305.027344 C 342.734375 311.871094 323.882812 315.015625 305.480469 319.027344 C 274.335938 325.769531 239.976562 336.207031 227.792969 369.0625 C 221.925781 384.878906 221.613281 402.164062 222.277344 418.820312 C 222.660156 427.757812 223.429688 436.695312 223.460938 445.667969 C 223.496094 455.339844 222.9375 465.046875 221.753906 474.648438 C 217.246094 510.648438 203.910156 546.085938 180.65625 574.230469 C 169.65625 587.53125 156.597656 599.125 141.96875 608.273438 C 125.558594 618.539062 107.332031 625.484375 88.722656 630.617188 C 79.714844 633.097656 70.601562 635.296875 61.417969 636.9375 C 52.199219 638.613281 42.632812 639.660156 33.3125 638.300781 C 25.246094 637.113281 17.109375 634.039062 11.488281 627.929688 C 6.773438 622.761719 3.738281 615.847656 3.351562 608.867188 C 2.96875 602.300781 5.167969 595.914062 10.546875 591.898438 C 11.070312 591.476562 10.546875 590.570312 10.023438 590.988281 C 0.386719 598.21875 0.769531 611.625 5.832031 621.503906 C 12.851562 635.226562 27.96875 640.011719 42.527344 639.941406 C 51.292969 639.90625 59.988281 638.40625 68.507812 636.589844 C 77.828125 634.597656 87.046875 632.292969 96.160156 629.535156 C 114.175781 624.054688 131.632812 616.617188 147.242188 606.039062 C 175.105469 587.183594 196.261719 559.703125 208.796875 528.628906 C 215.992188 510.789062 220.738281 492.003906 222.972656 472.902344 C 224.125 463.09375 224.613281 453.175781 224.476562 443.296875 C 224.335938 434.425781 223.53125 425.59375 223.253906 416.757812 C 222.625 398.953125 223.324219 380.203125 231.109375 363.828125 C 238.789062 347.695312 253.28125 337.117188 269.414062 330.375 C 287.011719 323.042969 306.074219 319.972656 324.613281 316.027344 C 341.898438 312.324219 358.902344 307.820312 374.71875 299.71875 C 403.417969 285.054688 427.300781 261.171875 441.546875 232.226562 C 457.15625 200.558594 461.484375 165.015625 470.597656 131.285156 C 475.242188 114.109375 481.175781 97.105469 490.359375 81.777344 C 498.738281 67.773438 509.738281 55.554688 522.414062 45.324219 C 547.9375 24.792969 579.394531 12.46875 611.132812 5.449219 C 618.886719 3.703125 626.707031 2.308594 634.5625 1.1875 C 635.226562 1.085938 634.945312 0.0703125 634.285156 0.175781 Z M 634.320312 -0.101562 C 602.859375 3.738281 571.46875 11.910156 543.433594 26.957031 C 515.394531 42.007812 491.929688 64.246094 478.140625 93.191406 C 463.125 124.757812 458.9375 159.953125 449.824219 193.367188 C 445.214844 210.300781 439.277344 227.027344 430.199219 242.144531 C 421.714844 256.320312 410.75 268.960938 398.078125 279.503906 C 385.402344 290.046875 370.492188 298.847656 354.746094 304.714844 C 336.382812 311.558594 317.039062 313.476562 297.730469 315.816406 C 266.375 319.585938 228.527344 328.140625 215.710938 361.171875 C 209.285156 377.757812 210.683594 396.160156 212.253906 413.476562 C 214.035156 433.03125 215.1875 452.476562 213.722656 472.101562 C 210.929688 509.53125 199.617188 546.609375 176.953125 576.882812 C 166.480469 590.847656 153.699219 603.210938 139 612.671875 C 122.660156 623.179688 104.292969 629.988281 85.546875 634.738281 C 67.878906 639.207031 47.941406 644.167969 29.714844 640.429688 C 21.4375 638.71875 13.339844 634.949219 8.207031 628.035156 C 4.121094 622.554688 1.746094 615.605469 1.886719 608.726562 C 2.027344 601.953125 4.925781 595.703125 10.71875 591.964844 C 11.277344 591.617188 10.753906 590.710938 10.195312 591.058594 C -0.171875 597.691406 -0.976562 611.308594 3.492188 621.820312 C 9.464844 635.890625 23.847656 641.757812 38.339844 642.558594 C 47.03125 643.046875 55.761719 641.929688 64.28125 640.394531 C 73.953125 638.648438 83.554688 636.519531 92.980469 633.832031 C 111.070312 628.699219 128.703125 621.332031 144.132812 610.507812 C 171.855469 591.023438 191.792969 561.835938 203.039062 530.097656 C 209.707031 511.242188 213.441406 491.445312 214.875 471.507812 C 216.339844 451.535156 214.976562 431.773438 213.234375 411.835938 C 211.589844 393.328125 210.371094 373.359375 219.097656 356.285156 C 227.128906 340.570312 242.5625 330.621094 258.761719 324.859375 C 277.617188 318.15625 297.765625 317.109375 317.421875 314.488281 C 335.054688 312.152344 352.058594 307.925781 368.085938 300.175781 C 397.449219 285.929688 422.066406 262.011719 436.589844 232.71875 C 452.441406 200.699219 456.703125 164.699219 465.953125 130.519531 C 470.667969 113.128906 476.707031 95.984375 486.171875 80.554688 C 494.726562 66.550781 505.96875 54.332031 518.886719 44.171875 C 545.109375 23.535156 577.371094 11.488281 609.84375 4.890625 C 617.941406 3.25 626.113281 1.957031 634.320312 0.945312 C 634.980469 0.875 634.980469 -0.171875 634.320312 -0.101562 Z M 634.320312 -0.101562 " fill-opacity="1" fill-rule="nonzero"/></g></g></g></g></svg>