<svg xmlns="http://www.w3.org/2000/svg" xmlns:xlink="http://www.w3.org/1999/xlink" width="1440" zoomAndPan="magnify" viewBox="0 0 1080 675.000002" height="900" preserveAspectRatio="xMidYMid meet" version="1.0"><defs><clipPath id="7b41cba43e"><path d="M 131 32.28125 L 927 32.28125 L 927 641.878906 L 131 641.878906 Z M 131 32.28125 " clip-rule="nonzero"/></clipPath></defs><g clip-path="url(#7b41cba43e)"><path fill="#ffffff" d="M 345.214844 641.691406 C 310.632812 641.691406 273.074219 631.769531 238.042969 613.203125 C 198.171875 592.0625 166.28125 562.109375 148.28125 528.875 C 136 506.199219 130.542969 482.859375 132.054688 459.523438 C 133.707031 433.84375 143.816406 408.710938 162.125 384.808594 C 173.414062 370.066406 186.808594 356.769531 199.777344 343.917969 C 210.40625 333.382812 221.367188 322.492188 231.121094 310.871094 C 254.671875 282.808594 265.703125 254.085938 264.855469 223.023438 C 264.5 210.175781 262.703125 197.136719 260.957031 184.496094 C 258.050781 163.425781 255.050781 141.625 258.664062 120.105469 C 262.019531 100.074219 270.808594 83.066406 284.71875 69.578125 C 296.886719 57.792969 313.042969 48.628906 332.695312 42.320312 L 332.789062 42.605469 L 332.695312 42.320312 C 353.433594 35.683594 378.238281 32.28125 404.410156 32.492188 C 449.550781 32.847656 491.03125 38.988281 527.667969 50.777344 C 564.800781 62.707031 585.726562 84.273438 589.910156 114.839844 C 591.703125 127.949219 591.277344 141.414062 590.878906 154.425781 C 590.6875 160.640625 590.476562 167.066406 590.523438 173.371094 C 590.78125 211.472656 602.617188 235.945312 625.671875 246.078125 C 650.851562 257.15625 680.828125 250.96875 709.480469 242.628906 C 721.953125 238.992188 734.589844 234.789062 746.824219 230.726562 C 788.660156 216.789062 831.910156 202.378906 877.429688 207.929688 C 893.871094 209.9375 915.152344 216.175781 923.160156 234.503906 C 931.734375 254.132812 920.988281 279.03125 891.199219 308.511719 C 890.230469 309.480469 889.261719 310.421875 888.269531 311.367188 C 866.183594 332.722656 840.367188 351.453125 811.597656 367.019531 C 785.46875 381.144531 756.015625 393.144531 724.03125 402.6875 C 671.332031 418.421875 611.875 427.941406 536.902344 432.6875 C 535.390625 432.78125 533.855469 432.878906 532.296875 432.972656 C 506.242188 434.554688 476.691406 436.347656 457.511719 455.765625 C 438.402344 475.113281 432.636719 506.152344 429.519531 533.953125 C 428.785156 540.496094 428.316406 547.324219 427.867188 553.914062 C 426.828125 569.007812 425.761719 584.621094 421.417969 599.078125 C 413.714844 624.777344 393.046875 638.550781 358.230469 641.171875 C 354 641.523438 349.632812 641.691406 345.214844 641.691406 Z M 402.210938 33.132812 C 376.914062 33.132812 352.984375 36.507812 332.90625 42.933594 C 290.390625 56.5625 265.609375 82.570312 259.28125 120.222656 C 255.6875 141.648438 258.6875 163.402344 261.570312 184.425781 C 263.320312 197.0625 265.113281 210.152344 265.46875 223.023438 C 266.320312 254.226562 255.242188 283.09375 231.59375 311.273438 C 221.816406 322.917969 210.832031 333.808594 200.203125 344.34375 C 187.257812 357.195312 173.863281 370.46875 162.597656 385.160156 C 118.332031 442.988281 130.683594 495.070312 148.824219 528.566406 C 183.527344 592.628906 269.484375 641.078125 345.355469 641.078125 C 349.703125 641.078125 354 640.910156 358.253906 640.605469 C 392.789062 637.980469 413.292969 624.351562 420.898438 598.9375 C 425.195312 584.550781 426.28125 568.960938 427.324219 553.890625 C 427.769531 547.300781 428.242188 540.472656 428.976562 533.90625 C 432.117188 505.984375 437.90625 474.828125 457.132812 455.339844 C 476.480469 435.757812 506.148438 433.964844 532.320312 432.355469 C 533.855469 432.261719 535.390625 432.167969 536.925781 432.074219 C 649.316406 424.964844 790.808594 404.765625 887.917969 310.917969 C 888.886719 309.976562 889.878906 309.03125 890.847656 308.0625 C 920.417969 278.769531 931.144531 254.085938 922.664062 234.714844 C 914.773438 216.644531 893.703125 210.480469 877.40625 208.496094 C 832.027344 202.96875 788.824219 217.355469 747.0625 231.269531 C 734.828125 235.332031 722.1875 239.558594 709.691406 243.195312 C 680.945312 251.558594 650.828125 257.769531 625.484375 246.621094 C 602.191406 236.371094 590.238281 211.734375 589.980469 173.371094 C 589.933594 167.066406 590.144531 160.617188 590.332031 154.402344 C 590.734375 141.414062 591.160156 127.972656 589.367188 114.933594 C 585.230469 84.601562 564.421875 63.226562 527.523438 51.367188 C 490.933594 39.605469 449.527344 33.460938 404.433594 33.109375 C 403.699219 33.132812 402.96875 33.132812 402.210938 33.132812 Z M 402.210938 33.132812 " fill-opacity="1" fill-rule="nonzero"/></g><path fill="#ffffff" d="M 344.292969 632.429688 C 306.972656 632.429688 265.160156 620.429688 228.667969 599.125 C 188.699219 575.761719 158.816406 543.875 144.550781 509.269531 C 126.125 464.71875 133.660156 418.964844 166.351562 376.941406 C 177.03125 363.144531 189.597656 350.601562 201.785156 338.507812 C 211.941406 328.398438 222.453125 317.957031 231.785156 306.808594 C 254.058594 280.210938 264.734375 253.070312 264.429688 223.78125 C 264.3125 211.566406 262.800781 199.144531 261.359375 187.144531 C 258.949219 167.277344 256.46875 146.75 260.105469 126.460938 C 264.808594 100.261719 276.6875 79.761719 295.421875 65.492188 C 304.75 58.382812 315.949219 52.691406 329.625 48.15625 C 332.035156 47.351562 334.539062 46.59375 337.066406 45.886719 C 359.410156 39.628906 385.417969 37.101562 412.277344 38.5625 C 454.605469 40.761719 496.839844 49.808594 537.753906 65.445312 C 573.726562 79.191406 592.671875 98.75 597.375 127.050781 C 598.933594 136.308594 599.355469 145.378906 599.546875 153.035156 C 599.640625 156.71875 599.6875 160.449219 599.734375 164.066406 C 599.804688 169.828125 599.878906 175.78125 600.160156 181.617188 C 602.003906 217.285156 613.671875 239.039062 635.851562 248.179688 C 660.183594 258.171875 690.015625 251.582031 715.976562 243.8125 C 728.09375 240.195312 740.378906 236.015625 752.234375 231.953125 C 792.015625 218.394531 833.136719 204.363281 876.246094 208.757812 C 884.847656 209.605469 897.152344 211.921875 907.050781 218.109375 C 913.097656 221.890625 917.5625 226.710938 920.347656 232.402344 C 925.546875 243.03125 924.554688 255.078125 917.300781 269.226562 C 910.972656 281.558594 901.050781 293.0625 894.460938 300.644531 C 893.917969 301.28125 893.375 301.945312 892.828125 302.582031 L 892.097656 303.457031 C 860.304688 341.816406 809.042969 375.785156 751.503906 396.640625 C 694.8125 417.191406 630.066406 428.554688 547.792969 432.382812 C 546.089844 432.453125 544.367188 432.546875 542.640625 432.617188 C 516.5625 433.75 487.015625 435.050781 467.078125 452.292969 C 457.226562 460.75 449.503906 472.417969 443.480469 487.914062 C 438.824219 499.820312 435.800781 512.363281 433.464844 523.085938 C 432.023438 529.796875 430.960938 536.597656 429.851562 543.804688 C 427.722656 557.503906 425.503906 571.675781 420.449219 585.234375 C 413.125 604.910156 400.652344 618.613281 383.410156 625.980469 C 374.503906 629.785156 363.542969 631.863281 349.84375 632.3125 C 348 632.40625 346.160156 632.429688 344.292969 632.429688 Z M 397.582031 38.730469 C 376.039062 38.730469 355.417969 41.351562 337.230469 46.429688 C 334.726562 47.140625 332.222656 47.894531 329.8125 48.699219 C 316.207031 53.234375 305.058594 58.855469 295.773438 65.941406 C 277.183594 80.113281 265.375 100.5 260.71875 126.53125 C 257.105469 146.726562 259.585938 167.207031 261.972656 187.023438 C 263.4375 199.046875 264.925781 211.496094 265.042969 223.734375 C 265.351562 253.164062 254.625 280.472656 232.257812 307.164062 C 222.902344 318.335938 212.390625 328.800781 202.234375 338.910156 C 190.070312 351.003906 177.503906 363.523438 166.871094 377.296875 C 134.320312 419.152344 126.8125 464.695312 145.140625 509.03125 C 173.699219 578.21875 267.453125 634.4375 349.84375 631.722656 C 363.449219 631.273438 374.363281 629.21875 383.199219 625.4375 C 400.277344 618.140625 412.628906 604.558594 419.90625 585.046875 C 424.9375 571.558594 427.132812 557.410156 429.257812 543.730469 C 430.394531 536.527344 431.433594 529.726562 432.898438 522.992188 C 435.234375 512.246094 438.257812 499.679688 442.9375 487.726562 C 449.007812 472.113281 456.777344 460.371094 466.699219 451.84375 C 486.800781 434.460938 516.46875 433.160156 542.640625 432.003906 C 544.367188 431.933594 546.089844 431.859375 547.792969 431.765625 C 630.019531 427.941406 694.695312 416.601562 751.3125 396.050781 C 808.761719 375.21875 859.925781 341.320312 891.648438 303.03125 L 892.382812 302.15625 C 892.925781 301.496094 893.46875 300.832031 894.011719 300.195312 C 907.144531 285.007812 931.617188 256.707031 919.804688 232.589844 C 917.066406 226.992188 912.671875 222.269531 906.742188 218.535156 C 896.964844 212.394531 884.726562 210.101562 876.199219 209.253906 C 833.234375 204.859375 792.15625 218.867188 752.449219 232.402344 C 740.566406 236.441406 728.285156 240.644531 716.164062 244.261719 C 690.109375 252.054688 660.160156 258.667969 635.640625 248.605469 C 623.167969 243.480469 613.8125 234.078125 607.789062 220.660156 C 603.066406 210.125 600.375 197.324219 599.570312 181.519531 C 599.285156 175.6875 599.214844 169.710938 599.144531 163.945312 C 599.097656 160.332031 599.050781 156.601562 598.957031 152.9375 C 598.765625 145.308594 598.34375 136.261719 596.78125 127.050781 C 592.128906 98.988281 573.304688 79.570312 537.539062 65.917969 C 496.675781 50.304688 454.511719 41.28125 412.226562 39.058594 C 407.316406 38.871094 402.425781 38.730469 397.582031 38.730469 Z M 397.582031 38.730469 " fill-opacity="1" fill-rule="nonzero"/><path fill="#ffffff" d="M 347.105469 623.691406 C 345.191406 623.691406 343.277344 623.621094 341.363281 623.476562 C 302.011719 620.644531 259.136719 606.871094 223.777344 585.683594 C 196.234375 569.195312 160.1875 540.542969 144.882812 497.765625 C 137.371094 476.90625 135.527344 455.671875 139.355469 434.625 C 143.417969 412.328125 153.929688 390.265625 170.582031 369.097656 C 180.621094 356.320312 192.289062 344.628906 203.605469 333.335938 C 213.359375 323.582031 223.421875 313.496094 232.421875 302.746094 C 253.421875 277.636719 263.742188 252.03125 263.980469 224.511719 C 264.097656 212.9375 262.894531 201.128906 261.734375 189.71875 C 259.847656 171.082031 257.886719 151.828125 261.523438 132.789062 C 266.957031 104.253906 279.074219 82.6875 297.523438 68.707031 C 307.019531 61.5 318.804688 55.878906 333.546875 51.507812 C 336.097656 50.753906 338.71875 50.042969 341.363281 49.382812 C 365.269531 43.546875 392.480469 41.894531 420.070312 44.5625 C 460.816406 48.367188 502.605469 59.988281 547.769531 80.066406 C 570.800781 90.296875 598.082031 106.261719 604.765625 139.214844 C 606.539062 147.90625 607.316406 156.316406 607.835938 163.425781 C 608.097656 166.78125 608.285156 170.160156 608.5 173.441406 C 608.828125 178.828125 609.160156 184.402344 609.703125 189.835938 C 613.011719 222.457031 624.867188 242.226562 645.9375 250.257812 C 669.371094 259.117188 697.71875 252.550781 722.355469 244.96875 C 734.046875 241.378906 745.90625 237.246094 757.359375 233.253906 C 795.132812 220.09375 834.179688 206.464844 874.925781 209.605469 C 886.6875 210.503906 896.871094 213.269531 904.355469 217.589844 C 910.167969 220.921875 914.539062 225.222656 917.371094 230.371094 C 928.378906 250.210938 912.316406 272.441406 900.601562 288.667969 C 899.539062 290.132812 898.523438 291.527344 897.578125 292.871094 C 897.105469 293.535156 896.679688 294.21875 896.277344 294.902344 C 896.136719 295.164062 895.972656 295.398438 895.804688 295.660156 C 883.640625 315.195312 864.414062 335.035156 840.203125 353.035156 C 817.171875 370.164062 790.832031 384.808594 764.023438 395.414062 C 706.8125 418.042969 641.546875 429.734375 558.585938 432.238281 C 556.746094 432.285156 554.878906 432.355469 553.011719 432.40625 C 526.910156 433.113281 497.3125 433.941406 476.527344 448.988281 C 466.25 456.425781 457.722656 466.773438 450.449219 480.59375 C 444.589844 491.695312 440.363281 503.433594 437.3125 512.386719 C 434.90625 519.472656 433.039062 526.84375 431.054688 534.636719 C 427.984375 546.707031 424.820312 559.203125 419.363281 571.535156 C 409.277344 594.375 395.90625 609.328125 378.542969 617.21875 C 369.167969 621.421875 358.160156 623.691406 347.105469 623.691406 Z M 394.652344 43.902344 C 376.015625 43.902344 357.96875 45.933594 341.53125 49.949219 C 338.90625 50.609375 336.285156 51.320312 333.734375 52.050781 C 319.066406 56.398438 307.324219 61.996094 297.902344 69.152344 C 279.570312 83.042969 267.523438 104.492188 262.113281 132.882812 C 258.5 151.828125 260.460938 171.058594 262.328125 189.648438 C 263.484375 201.078125 264.6875 212.890625 264.570312 224.511719 C 264.335938 252.171875 253.964844 277.898438 232.871094 303.125 C 223.871094 313.894531 213.785156 323.980469 204.027344 333.761719 C 192.738281 345.050781 181.070312 356.746094 171.054688 369.476562 C 138.90625 410.414062 130.046875 454.703125 145.472656 497.574219 C 172 571.722656 266.222656 617.476562 341.433594 622.886719 C 354.261719 623.808594 367.371094 621.566406 378.355469 616.582031 C 395.597656 608.761719 408.851562 593.929688 418.867188 571.203125 C 424.273438 558.945312 427.464844 546.472656 430.511719 534.402344 C 432.496094 526.582031 434.363281 519.214844 436.769531 512.101562 C 439.816406 503.105469 444.070312 491.363281 449.953125 480.214844 C 457.273438 466.324219 465.871094 455.90625 476.21875 448.394531 C 497.148438 433.230469 526.839844 432.40625 553.035156 431.695312 C 554.902344 431.648438 556.769531 431.601562 558.609375 431.53125 C 641.496094 429.027344 706.714844 417.335938 763.855469 394.753906 C 819.886719 372.59375 871.523438 333.550781 895.359375 295.257812 C 895.523438 295.023438 895.664062 294.761719 895.804688 294.503906 C 896.230469 293.816406 896.65625 293.109375 897.128906 292.449219 C 898.097656 291.101562 899.113281 289.683594 900.152344 288.21875 C 911.773438 272.132812 927.71875 250.070312 916.898438 230.582031 C 914.136719 225.550781 909.835938 221.324219 904.121094 218.039062 C 896.703125 213.765625 886.617188 211.023438 874.949219 210.125 C 834.320312 207.007812 795.320312 220.589844 757.621094 233.75 C 746.140625 237.742188 734.28125 241.875 722.589844 245.464844 C 697.859375 253.070312 669.371094 259.660156 645.773438 250.730469 C 624.46875 242.628906 612.46875 222.695312 609.136719 189.8125 C 608.59375 184.378906 608.238281 178.804688 607.933594 173.394531 C 607.742188 170.113281 607.53125 166.734375 607.269531 163.402344 C 606.75 156.316406 605.972656 147.933594 604.199219 139.285156 C 597.5625 106.617188 570.445312 90.746094 547.554688 80.5625 C 502.4375 60.507812 460.722656 48.910156 420.046875 45.109375 C 411.519531 44.328125 403.015625 43.902344 394.652344 43.902344 Z M 394.652344 43.902344 " fill-opacity="1" fill-rule="nonzero"/><path fill="#ffffff" d="M 342.214844 615.210938 C 339.121094 615.210938 336.003906 615.023438 332.90625 614.644531 C 293.8125 609.777344 252.289062 594.921875 218.957031 573.898438 C 180.785156 549.828125 155.296875 519.519531 145.234375 486.261719 C 139 465.804688 138.195312 445.019531 142.824219 424.46875 C 147.644531 403.089844 158.417969 381.808594 174.832031 361.257812 C 184.234375 349.492188 195.027344 338.605469 205.46875 328.09375 C 214.800781 318.691406 224.4375 308.984375 233.058594 298.660156 C 252.808594 275.015625 262.75 250.992188 263.53125 225.222656 C 263.886719 214.261719 263.011719 203.039062 262.136719 192.222656 C 260.769531 174.835938 259.351562 156.835938 262.941406 139.074219 C 269.269531 107.726562 281.292969 85.738281 299.671875 71.871094 C 309.378906 64.546875 321.757812 58.972656 337.539062 54.816406 C 340.207031 54.105469 342.96875 53.46875 345.734375 52.878906 C 371.007812 47.539062 399.425781 46.738281 427.9375 50.5625 C 468.046875 55.925781 509.335938 69.933594 557.855469 94.664062 C 581.902344 106.902344 605.144531 122.253906 612.207031 151.355469 C 614.144531 159.363281 615.300781 167.183594 616.175781 173.796875 C 616.578125 176.773438 616.933594 179.796875 617.261719 182.703125 C 617.851562 187.734375 618.46875 192.953125 619.292969 198.007812 C 624.089844 227.605469 636.136719 245.371094 656.097656 252.292969 C 678.628906 260.015625 705.511719 253.496094 728.828125 246.101562 C 740.164062 242.511719 751.644531 238.402344 762.746094 234.433594 C 798.460938 221.652344 835.382812 208.449219 873.71875 210.386719 C 885.035156 210.953125 894.484375 213.175781 901.78125 217 C 907.332031 219.882812 911.609375 223.660156 914.515625 228.246094 C 924.765625 244.472656 913.972656 262.589844 905.300781 277.164062 C 903.671875 279.90625 902.113281 282.503906 900.789062 284.984375 C 900.4375 285.621094 900.175781 286.28125 899.894531 286.992188 C 899.796875 287.226562 899.703125 287.488281 899.585938 287.722656 C 891.484375 307.210938 874.734375 328.019531 851.113281 347.933594 C 829.125 366.476562 802.644531 382.847656 776.613281 394.019531 C 719.070312 418.679688 653.238281 430.726562 569.429688 431.933594 C 567.328125 431.957031 565.199219 431.980469 563.074219 432.003906 C 537.042969 432.285156 507.515625 432.617188 486.046875 445.515625 C 475.320312 451.941406 465.992188 460.960938 457.464844 473.082031 C 452.007812 480.851562 446.832031 489.875 441.210938 501.519531 C 437.550781 509.078125 434.597656 517.207031 431.480469 525.804688 C 427.722656 536.125 423.875 546.828125 418.371094 557.644531 C 408.636719 576.800781 395.71875 597.800781 373.75 608.265625 C 364.160156 612.824219 353.222656 615.210938 342.214844 615.210938 Z M 392.695312 48.792969 C 376.394531 48.792969 360.566406 50.351562 345.828125 53.46875 C 343.089844 54.058594 340.324219 54.722656 337.65625 55.40625 C 321.972656 59.539062 309.640625 65.089844 300.003906 72.367188 C 281.742188 86.136719 269.816406 108.011719 263.507812 139.214844 C 259.941406 156.90625 261.359375 174.859375 262.726562 192.199219 C 263.578125 203.039062 264.476562 214.261719 264.121094 225.269531 C 263.34375 251.179688 253.351562 275.320312 233.507812 299.085938 C 224.886719 309.429688 215.226562 319.140625 205.894531 328.542969 C 195.453125 339.050781 184.683594 349.917969 175.304688 361.660156 C 142.921875 402.214844 133 444.097656 145.800781 486.097656 C 167.367188 557.457031 256.304688 604.464844 332.976562 614.03125 C 346.890625 615.753906 361.277344 613.511719 373.464844 607.675781 C 395.269531 597.304688 408.117188 576.402344 417.804688 557.339844 C 423.28125 546.542969 427.15625 535.867188 430.890625 525.566406 C 434.007812 516.945312 436.960938 508.796875 440.644531 501.214844 C 446.289062 489.542969 451.488281 480.472656 456.945312 472.679688 C 465.519531 460.492188 474.917969 451.394531 485.714844 444.949219 C 507.328125 431.980469 536.925781 431.648438 563.050781 431.339844 C 565.175781 431.316406 567.304688 431.292969 569.40625 431.269531 C 653.121094 430.066406 718.882812 418.042969 776.351562 393.40625 C 832.691406 369.265625 883.121094 325.683594 899.019531 287.441406 C 899.113281 287.203125 899.207031 286.945312 899.300781 286.707031 C 899.585938 286.023438 899.871094 285.3125 900.222656 284.652344 C 901.570312 282.171875 903.128906 279.574219 904.757812 276.808594 C 913.332031 262.378906 924.011719 244.425781 913.972656 228.527344 C 911.136719 224.039062 906.933594 220.332031 901.476562 217.496094 C 894.222656 213.71875 884.871094 211.519531 873.648438 210.953125 C 835.429688 209.015625 798.558594 222.199219 762.914062 234.953125 C 751.808594 238.921875 740.304688 243.03125 728.96875 246.621094 C 705.558594 254.039062 678.558594 260.582031 655.859375 252.8125 C 644.496094 248.867188 635.546875 241.355469 629.214844 230.441406 C 624.277344 221.9375 620.828125 211.355469 618.679688 198.054688 C 617.851562 193 617.238281 187.78125 616.648438 182.726562 C 616.292969 179.820312 615.941406 176.820312 615.5625 173.84375 C 614.6875 167.253906 613.554688 159.457031 611.617188 151.476562 C 604.601562 122.609375 581.5 107.375 557.570312 95.183594 C 509.101562 70.5 467.878906 56.492188 427.84375 51.15625 C 416.03125 49.570312 404.246094 48.792969 392.695312 48.792969 Z M 392.695312 48.792969 " fill-opacity="1" fill-rule="nonzero"/><path fill="#ffffff" d="M 334.726562 606.164062 C 331.464844 606.164062 328.042969 606.046875 324.476562 605.785156 C 287.507812 603.140625 247.160156 588.304688 213.785156 565.0625 C 177.972656 540.117188 153.738281 508.039062 145.542969 474.78125 C 135.433594 434.152344 146.699219 393.335938 179.039062 353.4375 C 187.753906 342.691406 197.675781 332.652344 207.242188 322.941406 C 216.171875 313.894531 225.40625 304.542969 233.648438 294.621094 C 252.121094 272.441406 261.710938 249.976562 263.035156 225.976562 C 263.625 215.605469 263.082031 204.976562 262.539062 194.703125 C 261.6875 178.570312 260.816406 161.890625 264.335938 145.402344 C 269.320312 122.019531 278.082031 92.894531 301.773438 75.082031 C 311.859375 67.5 324.449219 62.136719 341.457031 58.171875 C 344.386719 57.484375 347.269531 56.894531 350.03125 56.375 C 376.605469 51.484375 406.253906 51.554688 435.730469 56.5625 C 487.015625 65.28125 533.289062 89.304688 567.894531 109.261719 C 588.796875 121.332031 611.78125 136.476562 619.625 163.472656 C 621.726562 170.679688 623.191406 177.648438 624.492188 184.121094 C 625.011719 186.695312 625.484375 189.269531 625.953125 191.773438 C 626.875 196.734375 627.75 201.433594 628.859375 206.136719 C 632.875 223.117188 641.097656 246.574219 666.207031 254.273438 C 687.75 260.890625 713.1875 254.394531 735.25 247.164062 C 746.257812 243.574219 757.382812 239.488281 768.15625 235.519531 C 801.792969 223.140625 836.609375 210.339844 872.46875 211.140625 C 883.167969 211.378906 892.144531 213.125 899.183594 216.363281 C 904.476562 218.796875 908.65625 222.054688 911.609375 226.070312 C 921.316406 239.300781 914.445312 253.992188 908.371094 266.960938 C 906.71875 270.503906 905.136719 273.859375 903.980469 277.023438 C 903.742188 277.636719 903.648438 278.273438 903.507812 278.960938 C 903.460938 279.21875 903.414062 279.457031 903.363281 279.714844 C 898.285156 304.28125 878.089844 327.621094 862.050781 342.878906 C 841.265625 362.675781 814.691406 380.769531 789.203125 392.554688 C 731.660156 419.152344 665.542969 431.554688 581.191406 431.554688 C 580.886719 431.554688 580.601562 431.554688 580.292969 431.554688 C 577.839844 431.554688 575.359375 431.53125 572.878906 431.53125 C 545.738281 431.414062 517.652344 431.269531 495.566406 441.972656 C 484.390625 447.378906 474.234375 455.082031 464.503906 465.523438 C 458.03125 472.441406 451.699219 480.640625 445.109375 490.609375 C 439.675781 498.828125 435.1875 508.183594 430.464844 518.101562 C 426.519531 526.371094 422.410156 534.921875 417.355469 543.757812 C 403.0625 568.722656 390.425781 588.683594 368.953125 599.3125 C 359.71875 603.917969 348.472656 606.164062 334.726562 606.164062 Z M 391.253906 53.351562 C 377.054688 53.351562 363.238281 54.554688 350.152344 56.964844 C 347.410156 57.460938 344.53125 58.074219 341.625 58.738281 C 324.710938 62.683594 312.191406 68.019531 302.175781 75.554688 C 278.648438 93.222656 269.933594 122.230469 264.972656 145.523438 C 261.476562 161.9375 262.351562 178.59375 263.199219 194.679688 C 263.742188 204.953125 264.3125 215.582031 263.695312 226 C 262.375 250.140625 252.738281 272.699219 234.171875 295 C 225.902344 304.941406 216.667969 314.296875 207.714844 323.34375 C 198.148438 333.027344 188.25 343.066406 179.535156 353.792969 C 147.3125 393.523438 136.09375 434.175781 146.15625 474.617188 C 163.800781 546.332031 252.617188 600.023438 324.523438 605.171875 C 342.921875 606.496094 357.355469 604.390625 368.648438 598.792969 C 389.976562 588.234375 402.566406 568.371094 416.8125 543.496094 C 421.867188 534.683594 425.953125 526.132812 429.898438 517.890625 C 434.644531 507.96875 439.132812 498.59375 444.589844 490.324219 C 451.179688 480.332031 457.558594 472.113281 464.03125 465.167969 C 473.832031 454.679688 484.039062 446.933594 495.28125 441.5 C 517.484375 430.726562 545.640625 430.871094 572.855469 430.988281 C 575.335938 430.988281 577.816406 431.011719 580.269531 431.011719 C 580.578125 431.011719 580.886719 431.011719 581.167969 431.011719 C 665.425781 431.011719 731.449219 418.632812 788.917969 392.058594 C 814.359375 380.296875 840.863281 362.226562 861.625 342.476562 C 884.207031 320.980469 898.828125 298.660156 902.773438 279.621094 C 902.820312 279.386719 902.871094 279.125 902.917969 278.890625 C 903.035156 278.203125 903.175781 277.519531 903.414062 276.855469 C 904.59375 273.644531 906.175781 270.289062 907.828125 266.746094 C 913.828125 253.945312 920.632812 239.417969 911.136719 226.472656 C 908.253906 222.550781 904.144531 219.339844 898.949219 216.953125 C 892.003906 213.742188 883.097656 212.015625 872.46875 211.78125 C 836.660156 211 801.957031 223.78125 768.367188 236.132812 C 757.597656 240.101562 746.449219 244.1875 735.441406 247.78125 C 713.308594 255.03125 687.75 261.550781 666.039062 254.890625 C 640.648438 247.09375 632.332031 223.425781 628.292969 206.300781 C 627.183594 201.574219 626.308594 196.875 625.363281 191.914062 C 624.890625 189.410156 624.417969 186.835938 623.898438 184.285156 C 622.625 177.835938 621.136719 170.867188 619.058594 163.6875 C 611.261719 136.898438 588.421875 121.828125 567.609375 109.832031 C 533.074219 89.894531 486.847656 65.894531 435.660156 57.203125 C 420.730469 54.625 405.804688 53.351562 391.253906 53.351562 Z M 391.253906 53.351562 " fill-opacity="1" fill-rule="nonzero"/><path fill="#ffffff" d="M 329.8125 597.660156 C 325.46875 597.660156 320.882812 597.425781 316.042969 596.929688 C 279.757812 593.242188 240.691406 577.582031 208.871094 553.9375 C 174.480469 528.378906 152.132812 496.183594 145.921875 463.253906 C 138.433594 424.300781 151 384.714844 183.3125 345.570312 C 191.34375 335.839844 200.320312 326.675781 209.011719 317.816406 C 217.5625 309.101562 226.421875 300.078125 234.335938 290.535156 C 251.460938 269.890625 260.71875 249.007812 262.632812 226.683594 C 263.460938 216.929688 263.246094 206.9375 263.035156 197.277344 C 262.703125 182.371094 262.351562 166.96875 265.800781 151.710938 C 273.097656 119.324219 282.359375 94.429688 303.949219 78.273438 C 314.292969 70.523438 327.476562 65.1875 345.449219 61.5 C 348.519531 60.886719 351.542969 60.320312 354.378906 59.871094 C 382.417969 55.453125 413.269531 56.398438 443.574219 62.5625 C 494.832031 73.003906 540.257812 99.414062 577.957031 123.886719 C 599.144531 137.65625 618.867188 151.945312 627.066406 175.640625 C 629.332031 182.183594 631.152344 188.535156 632.828125 194.511719 C 633.417969 196.589844 633.960938 198.648438 634.53125 200.703125 C 635.804688 205.425781 637.011719 209.890625 638.472656 214.332031 C 643.386719 229.355469 652.671875 250.070312 676.363281 256.332031 C 697.007812 261.785156 720.984375 255.339844 741.722656 248.324219 C 752.425781 244.707031 763.242188 240.621094 773.707031 236.652344 C 805.242188 224.703125 837.839844 212.324219 871.265625 211.96875 C 881.328125 211.875 889.878906 213.148438 896.609375 215.820312 C 901.664062 217.804688 905.75 220.542969 908.75 223.992188 C 920.253906 237.195312 913.757812 253.09375 908.515625 265.875 C 908.042969 267.007812 907.59375 268.09375 907.167969 269.179688 C 907.167969 269.628906 907.167969 270.078125 907.144531 270.550781 C 907.121094 270.976562 907.121094 271.402344 907.121094 271.824219 C 907.167969 290.984375 895.074219 314.511719 873.035156 338.035156 C 853.242188 359.203125 827.257812 378.59375 801.769531 391.257812 C 743.921875 419.980469 677 432.710938 591.136719 431.339844 C 588.183594 431.292969 585.207031 431.222656 582.230469 431.175781 C 555.398438 430.632812 527.617188 430.042969 505.085938 438.59375 C 493.4375 443.011719 482.453125 449.386719 471.519531 458.105469 C 463.839844 464.222656 456.472656 471.308594 449.007812 479.8125 C 440.929688 489 434.457031 499.890625 426.96875 512.480469 C 423.613281 518.101562 420.164062 523.914062 416.339844 529.960938 C 414.636719 532.628906 412.960938 535.324219 411.285156 538.015625 C 398.550781 558.449219 385.394531 579.566406 364.136719 590.433594 C 354.664062 595.273438 343.371094 597.660156 329.8125 597.660156 Z M 390.425781 57.746094 C 378.09375 57.746094 366.023438 58.644531 354.449219 60.484375 C 351.59375 60.933594 348.59375 61.476562 345.546875 62.089844 C 327.664062 65.753906 314.554688 71.066406 304.300781 78.769531 C 282.878906 94.832031 273.640625 119.585938 266.390625 151.851562 C 262.964844 167.042969 263.320312 182.417969 263.648438 197.277344 C 263.863281 206.960938 264.097656 216.976562 263.246094 226.757812 C 261.335938 249.195312 252.027344 270.195312 234.808594 290.9375 C 226.871094 300.503906 218.011719 309.527344 209.4375 318.265625 C 200.746094 327.125 191.769531 336.265625 183.761719 345.972656 C 151.589844 384.949219 139.046875 424.375 146.511719 463.136719 C 152.699219 495.921875 174.976562 527.976562 209.226562 553.441406 C 240.972656 577.015625 279.925781 592.652344 316.113281 596.3125 C 335.882812 598.320312 351.496094 596.21875 363.828125 589.886719 C 384.945312 579.09375 398.054688 558.046875 410.738281 537.683594 C 412.417969 534.992188 414.09375 532.300781 415.796875 529.628906 C 419.621094 523.605469 423.070312 517.796875 426.425781 512.175781 C 433.9375 499.558594 440.410156 488.648438 448.511719 479.410156 C 456 470.882812 463.390625 463.75 471.09375 457.609375 C 482.101562 448.84375 493.132812 442.445312 504.824219 438.003906 C 527.476562 429.429688 555.304688 429.996094 582.207031 430.539062 C 585.207031 430.609375 588.183594 430.65625 591.113281 430.703125 C 595.292969 430.773438 599.429688 430.796875 603.515625 430.796875 C 683.355469 430.796875 746.519531 417.972656 801.460938 390.664062 C 826.902344 378.027344 852.816406 358.683594 872.5625 337.589844 C 894.484375 314.15625 906.53125 290.792969 906.484375 271.777344 C 906.484375 271.355469 906.484375 270.90625 906.507812 270.480469 C 906.53125 270.007812 906.53125 269.558594 906.53125 269.085938 L 906.53125 269.015625 L 906.554688 268.96875 C 906.980469 267.882812 907.453125 266.746094 907.925781 265.613281 C 913.097656 253 919.523438 237.269531 908.253906 224.347656 C 905.324219 220.96875 901.308594 218.277344 896.351562 216.339844 C 889.6875 213.71875 881.230469 212.441406 871.238281 212.535156 C 837.910156 212.890625 805.359375 225.246094 773.871094 237.171875 C 763.410156 241.140625 752.566406 245.25 741.867188 248.867188 C 721.054688 255.929688 696.960938 262.402344 676.175781 256.898438 C 652.199219 250.542969 642.820312 229.660156 637.859375 214.496094 C 636.394531 210.054688 635.191406 205.566406 633.914062 200.84375 C 633.371094 198.789062 632.804688 196.734375 632.214844 194.65625 C 630.539062 188.703125 628.71875 182.324219 626.476562 175.804688 C 618.347656 152.300781 598.71875 138.058594 577.625 124.355469 C 539.996094 99.933594 494.621094 73.546875 443.457031 63.128906 C 425.714844 59.5625 407.835938 57.746094 390.425781 57.746094 Z M 390.425781 57.746094 " fill-opacity="1" fill-rule="nonzero"/><path fill="#ffffff" d="M 324.144531 589.203125 C 318.898438 589.203125 313.371094 588.824219 307.585938 588.070312 C 272.011719 583.441406 234.21875 566.976562 203.910156 542.859375 C 170.984375 516.6875 150.527344 484.324219 146.25 451.726562 C 141.195312 414.027344 154.683594 376.730469 187.519531 337.707031 C 194.792969 329.0625 202.847656 320.792969 210.621094 312.832031 C 218.839844 304.398438 227.34375 295.660156 234.949219 286.449219 C 250.800781 267.289062 259.703125 247.96875 262.160156 227.394531 C 263.273438 218.183594 263.390625 208.710938 263.507812 199.542969 C 263.695312 185.960938 263.886719 171.929688 267.167969 157.996094 C 274.65625 126.390625 282.757812 98.800781 306.027344 81.4375 C 316.65625 73.5 330.425781 68.210938 349.347656 64.808594 C 352.417969 64.265625 355.535156 63.769531 358.65625 63.34375 C 388.300781 59.46875 420.355469 61.265625 451.34375 68.539062 C 503.808594 80.871094 548.003906 109.429688 587.949219 138.460938 C 606.300781 151.804688 625.269531 165.601562 634.410156 187.757812 C 636.515625 192.859375 638.402344 197.84375 640.222656 202.664062 L 641.050781 204.859375 C 641.617188 206.371094 642.183594 207.859375 642.726562 209.347656 C 644.449219 213.929688 646.058594 218.253906 647.921875 222.480469 C 654.207031 236.652344 664.269531 253.542969 686.378906 258.363281 C 706.125 262.660156 728.636719 256.257812 748.03125 249.433594 C 758.449219 245.796875 769.007812 241.660156 779.210938 237.644531 C 808.597656 226.117188 838.972656 214.214844 869.917969 212.75 C 879.390625 212.300781 887.445312 213.125 893.894531 215.207031 C 898.6875 216.742188 902.679688 218.984375 905.75 221.84375 C 917.160156 232.542969 913.996094 245.722656 911.183594 257.324219 C 910.851562 258.644531 910.546875 259.96875 910.261719 261.242188 C 910.378906 261.714844 910.453125 262.1875 910.546875 262.683594 C 910.617188 263.0625 910.6875 263.464844 910.78125 263.84375 C 914.890625 283.023438 905.398438 307.636719 884.066406 333.148438 C 865.570312 355.257812 839.492188 376.445312 814.265625 389.839844 C 756.367188 420.617188 688.90625 433.703125 601.910156 431.011719 C 598.269531 430.894531 594.585938 430.773438 590.902344 430.632812 C 564.5625 429.664062 537.304688 428.671875 514.507812 435.097656 C 502.203125 438.570312 490.722656 443.484375 478.4375 450.59375 C 469.605469 455.695312 460.984375 461.882812 452.808594 468.945312 C 440.527344 479.578125 430.558594 493.984375 418.984375 510.6875 C 417.753906 512.457031 416.503906 514.253906 415.25 516.09375 C 411.730469 521.148438 408.308594 526.441406 405 531.566406 C 392.503906 550.867188 379.605469 570.824219 359.269531 581.527344 C 349.585938 586.628906 337.820312 589.203125 324.144531 589.203125 Z M 389.976562 61.996094 C 379.371094 61.996094 368.929688 62.660156 358.75 63.980469 C 355.632812 64.40625 352.511719 64.878906 349.464844 65.421875 C 330.640625 68.800781 316.964844 74.066406 306.40625 81.933594 C 283.300781 99.175781 275.222656 126.648438 267.757812 158.136719 C 264.476562 172 264.289062 186.007812 264.097656 199.542969 C 263.980469 208.710938 263.863281 218.207031 262.75 227.441406 C 260.296875 248.132812 251.34375 267.550781 235.421875 286.800781 C 227.792969 296.039062 219.289062 304.777344 211.042969 313.210938 C 203.273438 321.171875 195.242188 329.414062 187.988281 338.058594 C 155.273438 377.011719 141.808594 414.144531 146.839844 451.679688 C 155.984375 521.597656 237.382812 578.363281 307.65625 587.480469 C 328.441406 590.171875 345.710938 588 358.960938 581.03125 C 379.160156 570.425781 391.464844 551.410156 404.480469 531.285156 C 407.789062 526.15625 411.210938 520.867188 414.753906 515.789062 C 416.03125 513.96875 417.257812 512.152344 418.488281 510.378906 C 430.0625 493.65625 440.078125 479.199219 452.410156 468.523438 C 460.605469 461.410156 469.273438 455.222656 478.132812 450.097656 C 490.460938 442.964844 501.988281 438.027344 514.34375 434.554688 C 537.234375 428.128906 564.515625 429.121094 590.925781 430.066406 C 594.609375 430.207031 598.292969 430.324219 601.933594 430.445312 C 688.8125 433.113281 756.203125 420.050781 814.003906 389.34375 C 839.136719 375.972656 865.167969 354.832031 883.617188 332.792969 C 904.828125 307.421875 914.277344 283 910.214844 264.007812 C 910.121094 263.605469 910.050781 263.226562 909.980469 262.828125 C 909.882812 262.332031 909.789062 261.835938 909.671875 261.363281 L 909.648438 261.289062 L 909.671875 261.21875 C 909.957031 259.921875 910.285156 258.597656 910.617188 257.226562 C 913.378906 245.773438 916.5 232.78125 905.347656 222.316406 C 902.347656 219.503906 898.453125 217.308594 893.726562 215.796875 C 887.351562 213.742188 879.34375 212.914062 869.964844 213.363281 C 839.136719 214.828125 808.808594 226.710938 779.46875 238.210938 C 769.265625 242.226562 758.707031 246.363281 748.265625 250 C 728.777344 256.851562 706.171875 263.273438 686.285156 258.953125 C 663.914062 254.085938 653.757812 237.03125 647.425781 222.742188 C 645.539062 218.488281 643.929688 214.167969 642.207031 209.558594 C 641.664062 208.070312 641.097656 206.582031 640.53125 205.070312 L 639.679688 202.898438 C 637.859375 198.078125 635.96875 193.097656 633.867188 188.015625 C 624.796875 166.027344 605.875 152.277344 587.59375 138.980469 C 547.699219 109.996094 503.574219 81.460938 451.203125 69.152344 C 430.9375 64.40625 410.195312 61.996094 389.976562 61.996094 Z M 389.976562 61.996094 " fill-opacity="1" fill-rule="nonzero"/><path fill="#ffffff" d="M 318.5 580.816406 C 312.378906 580.816406 305.933594 580.273438 299.128906 579.210938 C 264.289062 573.730469 227.769531 556.464844 198.925781 531.875 C 167.488281 505.0625 148.898438 472.515625 146.582031 440.246094 C 143.890625 404.460938 158.652344 368.367188 191.746094 329.910156 C 198.21875 322.375 205.257812 315.125 212.058594 308.085938 C 219.996094 299.863281 228.21875 291.382812 235.585938 282.433594 C 250.160156 264.738281 258.6875 247 261.710938 228.171875 C 263.105469 219.433594 263.601562 210.433594 264.097656 201.71875 C 264.785156 189.527344 265.46875 176.914062 268.609375 164.371094 L 269.296875 161.632812 C 276.5 132.671875 283.964844 102.71875 308.199219 84.695312 C 322.585938 73.996094 340.84375 70.167969 353.339844 68.210938 C 356.527344 67.714844 359.789062 67.289062 363.023438 66.910156 C 394.300781 63.507812 427.558594 66.179688 459.210938 74.609375 C 514.058594 88.996094 560.167969 122.375 598.035156 153.128906 L 600.136719 154.828125 C 616.105469 167.773438 632.617188 181.167969 641.875 199.945312 C 642.867188 201.929688 643.8125 203.890625 644.757812 205.828125 C 646.363281 209.109375 647.875 212.207031 649.410156 215.253906 L 650.617188 217.636719 C 652.929688 222.222656 655.105469 226.566406 657.5625 230.675781 C 664.742188 242.699219 675.632812 256.96875 696.558594 260.417969 C 715.433594 263.535156 736.457031 257.203125 754.527344 250.566406 C 764.730469 246.859375 775.078125 242.652344 785.046875 238.589844 C 812.234375 227.511719 840.34375 216.078125 868.710938 213.550781 C 877.570312 212.773438 885.175781 213.125 891.316406 214.636719 C 895.878906 215.726562 899.75 217.449219 902.871094 219.742188 C 914.445312 228.246094 913.996094 239.132812 913.570312 249.667969 C 913.523438 250.898438 913.476562 252.125 913.453125 253.355469 C 913.6875 253.875 913.902344 254.417969 914.113281 254.914062 C 914.253906 255.242188 914.398438 255.574219 914.539062 255.90625 C 932.867188 298.847656 874.335938 361.5625 826.855469 388.46875 C 795.085938 406.492188 760.738281 418.492188 721.882812 425.199219 C 689.496094 430.773438 653.804688 432.59375 612.773438 430.75 C 608.144531 430.539062 603.375 430.300781 598.765625 430.042969 C 573.230469 428.695312 546.800781 427.300781 524.027344 431.648438 C 511.296875 434.082031 498.683594 437.8125 485.453125 443.105469 C 475.34375 447.144531 465.660156 452.175781 456.683594 458.105469 C 441.589844 468.050781 428.789062 482.953125 414.234375 502.253906 C 409.085938 509.078125 404.269531 516.402344 399.613281 523.488281 C 387.214844 542.363281 374.410156 561.875 354.425781 572.621094 C 344.339844 578.078125 332.316406 580.816406 318.5 580.816406 Z M 389.859375 66.058594 C 380.8125 66.058594 371.859375 66.53125 363.046875 67.5 C 359.8125 67.855469 356.578125 68.304688 353.386719 68.777344 C 340.960938 70.714844 322.796875 74.539062 308.53125 85.144531 C 284.484375 103.027344 277.042969 132.882812 269.863281 161.726562 L 269.175781 164.464844 C 266.058594 176.960938 265.351562 189.527344 264.6875 201.695312 C 264.214844 210.410156 263.695312 219.433594 262.304688 228.222656 C 259.28125 247.164062 250.703125 265 236.058594 282.761719 C 228.667969 291.738281 220.445312 300.242188 212.507812 308.460938 C 205.707031 315.476562 198.691406 322.753906 192.21875 330.265625 C 159.242188 368.601562 144.503906 404.554688 147.195312 440.175781 C 149.511719 472.300781 168.03125 504.6875 199.328125 531.402344 C 228.097656 555.945312 264.5 573.140625 299.222656 578.597656 C 321.238281 582.070312 339.710938 579.875 354.121094 572.101562 C 373.9375 561.449219 386.148438 542.859375 399.070312 523.183594 C 403.726562 516.09375 408.542969 508.75 413.714844 501.921875 C 428.316406 482.578125 441.164062 467.625 456.328125 457.632812 C 465.328125 451.703125 475.0625 446.625 485.195312 442.585938 C 498.46875 437.292969 511.132812 433.539062 523.886719 431.105469 C 546.730469 426.757812 573.183594 428.152344 598.765625 429.5 C 603.371094 429.734375 608.144531 429.996094 612.773438 430.207031 C 700.859375 434.175781 768.792969 420.78125 826.546875 388.019531 C 851.46875 373.894531 877.617188 350.886719 894.789062 327.949219 C 909.269531 308.628906 924.339844 280.496094 913.972656 256.1875 C 913.828125 255.859375 913.6875 255.503906 913.546875 255.171875 C 913.332031 254.652344 913.097656 254.085938 912.859375 253.566406 L 912.835938 253.496094 L 912.835938 253.425781 C 912.859375 252.171875 912.910156 250.921875 912.957031 249.667969 C 913.355469 239.300781 913.804688 228.574219 902.492188 220.261719 C 899.445312 218.015625 895.617188 216.339844 891.152344 215.253906 C 885.058594 213.765625 877.523438 213.410156 868.734375 214.191406 C 840.460938 216.695312 812.398438 228.125 785.257812 239.179688 C 775.265625 243.242188 764.921875 247.449219 754.714844 251.179688 C 736.550781 257.820312 715.433594 264.195312 696.441406 261.054688 C 675.277344 257.558594 664.269531 243.171875 657.015625 231.03125 C 654.5625 226.898438 652.363281 222.550781 650.050781 217.945312 L 648.84375 215.558594 C 647.285156 212.488281 645.796875 209.394531 644.191406 206.109375 C 643.246094 204.175781 642.300781 202.214844 641.308594 200.230469 C 632.097656 181.570312 615.65625 168.222656 599.734375 155.324219 L 597.632812 153.625 C 559.816406 122.917969 513.777344 89.5625 459.046875 75.226562 C 436.347656 69.128906 412.84375 66.058594 389.859375 66.058594 Z M 389.859375 66.058594 " fill-opacity="1" fill-rule="nonzero"/><path fill="#ffffff" d="M 312.355469 572.433594 C 304.445312 572.433594 297.003906 571.535156 290.695312 570.378906 C 256.609375 564.09375 221.34375 546.070312 193.964844 520.9375 C 164.015625 493.441406 147.3125 460.703125 146.9375 428.71875 C 146.417969 394.515625 162.007812 360.617188 195.996094 322.046875 C 201.546875 315.738281 207.476562 309.550781 213.21875 303.597656 C 220.988281 295.519531 229.019531 287.132812 236.226562 278.34375 C 249.5 262.140625 257.695312 245.960938 261.265625 228.882812 C 263.011719 220.496094 263.933594 211.851562 264.808594 203.464844 C 265.941406 192.765625 267.097656 181.710938 270.003906 170.679688 C 270.757812 167.773438 271.515625 164.84375 272.269531 161.914062 C 279.382812 134.113281 286.726562 105.390625 310.300781 87.886719 C 321.710938 79.40625 336.191406 74.375 357.261719 71.539062 C 360.566406 71.089844 363.945312 70.714844 367.324219 70.40625 C 399.992188 67.523438 434.457031 71.042969 466.984375 80.609375 C 525.753906 97.664062 573.230469 136.121094 608.027344 167.75 C 609.632812 169.214844 611.261719 170.679688 612.890625 172.144531 C 626.238281 184.167969 640.011719 196.566406 649.222656 212.085938 C 652.578125 217.734375 655.175781 221.914062 657.65625 225.621094 C 660.632812 230.085938 663.703125 234.691406 667.054688 238.851562 C 675.015625 248.722656 686.6875 260.347656 706.621094 262.472656 C 724.738281 264.410156 745.148438 257.746094 760.90625 251.722656 C 770.96875 247.898438 781.171875 243.574219 791.023438 239.394531 C 815.917969 228.8125 841.691406 217.875 867.414062 214.378906 C 875.632812 213.269531 882.789062 213.175781 888.648438 214.09375 C 892.949219 214.757812 896.726562 215.960938 899.894531 217.660156 C 912.175781 224.277344 914.089844 233.558594 916.097656 243.386719 C 916.238281 244.070312 916.378906 244.78125 916.523438 245.488281 C 916.949219 246.078125 917.324219 246.691406 917.703125 247.285156 C 917.867188 247.542969 918.011719 247.78125 918.175781 248.039062 C 925.144531 258.882812 926.914062 271.921875 923.46875 286.753906 C 914.726562 324.289062 873.601562 366.5 839.351562 387.144531 C 807.484375 406.375 772.953125 419.011719 733.761719 425.789062 C 701.261719 431.414062 665.214844 432.949219 623.546875 430.492188 C 617.476562 430.136719 611.214844 429.6875 605.167969 429.285156 C 580.863281 427.609375 555.753906 425.863281 533.476562 428.222656 C 520.058594 429.640625 506.621094 432.074219 492.398438 435.640625 C 481.0625 438.476562 470.3125 442.394531 460.511719 447.285156 C 444.378906 455.292969 429.777344 468.003906 413.148438 488.457031 C 406.464844 496.679688 400.488281 505.75 394.699219 514.558594 C 382.300781 533.386719 369.472656 552.875 349.585938 563.761719 C 337.679688 570.304688 324.476562 572.433594 312.355469 572.433594 Z M 389.71875 70.027344 C 382.207031 70.027344 374.742188 70.359375 367.371094 70.996094 C 364.015625 71.304688 360.640625 71.679688 357.332031 72.128906 C 336.378906 74.941406 321.996094 79.949219 310.65625 88.359375 C 287.246094 105.71875 279.925781 134.347656 272.863281 162.058594 C 272.105469 164.984375 271.375 167.914062 270.59375 170.820312 C 267.6875 181.804688 266.53125 192.859375 265.398438 203.535156 C 264.5 211.921875 263.601562 220.589844 261.855469 229 C 258.265625 246.195312 250.042969 262.472656 236.699219 278.722656 C 229.46875 287.535156 221.4375 295.917969 213.667969 304.023438 C 207.925781 310 202.019531 316.164062 196.46875 322.46875 C 162.574219 360.925781 147.03125 394.703125 147.550781 428.742188 C 147.929688 460.5625 164.558594 493.136719 194.390625 520.488281 C 221.699219 545.550781 256.847656 563.503906 290.8125 569.761719 C 306.734375 572.691406 329.8125 573.945312 349.300781 563.242188 C 369.070312 552.402344 381.285156 533.859375 394.207031 514.230469 C 400.015625 505.417969 405.992188 496.324219 412.699219 488.082031 C 429.378906 467.554688 444.046875 454.820312 460.25 446.765625 C 470.101562 441.875 480.871094 437.933594 492.257812 435.074219 C 506.5 431.507812 519.964844 429.074219 533.429688 427.632812 C 555.753906 425.269531 580.910156 426.996094 605.238281 428.695312 C 611.285156 429.121094 617.546875 429.546875 623.617188 429.902344 C 636.394531 430.65625 648.726562 431.035156 660.585938 431.035156 C 732.792969 431.035156 788.871094 416.910156 839.089844 386.625 C 873.222656 366.027344 914.230469 323.980469 922.921875 286.613281 C 926.347656 271.945312 924.601562 259.070312 917.726562 248.347656 C 917.5625 248.085938 917.421875 247.851562 917.253906 247.589844 C 916.875 246.976562 916.476562 246.363281 916.050781 245.746094 L 916.003906 245.628906 C 915.859375 244.921875 915.695312 244.1875 915.554688 243.480469 C 913.570312 233.796875 911.679688 224.628906 899.632812 218.15625 C 896.515625 216.480469 892.804688 215.300781 888.578125 214.636719 C 882.742188 213.71875 875.65625 213.835938 867.507812 214.921875 C 841.855469 218.417969 816.132812 229.332031 791.257812 239.890625 C 781.40625 244.070312 771.203125 248.394531 761.140625 252.21875 C 745.3125 258.265625 724.8125 264.953125 706.574219 263.015625 C 686.425781 260.867188 674.640625 249.148438 666.609375 239.179688 C 663.230469 235 660.160156 230.371094 657.183594 225.90625 C 654.703125 222.171875 652.105469 217.992188 648.75 212.347656 C 639.585938 196.921875 625.835938 184.519531 612.539062 172.546875 C 610.90625 171.082031 609.277344 169.617188 607.671875 168.152344 C 572.925781 136.59375 525.515625 98.160156 466.863281 81.152344 C 441.707031 73.808594 415.417969 70.027344 389.71875 70.027344 Z M 389.71875 70.027344 " fill-opacity="1" fill-rule="nonzero"/><path fill="#ffffff" d="M 306.308594 564.117188 C 297.476562 564.117188 289.207031 562.960938 282.238281 561.496094 C 249.382812 554.550781 214.492188 535.324219 188.957031 510 C 160.542969 481.84375 145.730469 448.890625 147.265625 417.214844 C 148.09375 399.3125 153.410156 381.714844 163.519531 363.40625 C 171.949219 348.148438 183.621094 332.507812 200.226562 314.179688 C 204.667969 309.289062 209.296875 304.421875 213.785156 299.722656 C 221.578125 291.574219 229.632812 283.117188 236.863281 274.257812 C 248.863281 259.566406 256.679688 244.945312 260.816406 229.566406 C 263.011719 221.347656 264.382812 213.175781 265.824219 204.527344 C 267.3125 195.550781 268.847656 186.246094 271.445312 176.960938 C 272.695312 172.449219 273.902344 167.773438 275.058594 163.261719 C 282.027344 136.191406 289.253906 108.222656 312.453125 91.050781 C 327.523438 79.902344 346.417969 76.523438 361.230469 74.847656 C 364.679688 74.46875 368.199219 74.136719 371.671875 73.878906 C 405.734375 71.515625 441.402344 75.910156 474.824219 86.585938 C 523.699219 102.035156 569.214844 132.460938 618.089844 182.324219 C 620.898438 185.183594 623.804688 188.089844 626.617188 190.898438 C 637.128906 201.386719 648.015625 212.230469 656.640625 224.183594 C 659.851562 228.644531 662.898438 232.496094 665.945312 235.945312 C 669.015625 239.441406 672.703125 243.480469 676.597656 247 C 685.175781 254.746094 697.503906 263.722656 716.730469 264.503906 C 734.023438 265.210938 752.871094 258.644531 767.351562 252.835938 C 777.390625 248.84375 787.550781 244.332031 797.351562 239.960938 C 819.863281 229.945312 843.152344 219.574219 866.183594 215.183594 C 873.765625 213.742188 880.453125 213.175781 886.050781 213.503906 C 890.089844 213.742188 893.773438 214.425781 897.011719 215.535156 C 908.042969 219.363281 912.246094 225.976562 916.6875 232.96875 C 917.65625 234.480469 918.648438 236.039062 919.710938 237.597656 C 920.113281 238.1875 920.609375 238.707031 921.105469 239.230469 C 921.386719 239.535156 921.671875 239.84375 921.957031 240.148438 C 931.332031 251.085938 934.921875 264.597656 932.609375 280.328125 C 929.253906 303.171875 914.371094 325.375 902.492188 339.949219 C 887.871094 357.902344 869.46875 374.601562 851.988281 385.800781 C 820.050781 406.230469 785.328125 419.507812 745.785156 426.382812 C 713.1875 432.050781 676.765625 433.300781 634.433594 430.230469 C 626.167969 429.640625 617.664062 428.886719 609.445312 428.175781 C 587.121094 426.214844 564.066406 424.207031 543.019531 424.796875 C 528.660156 425.199219 514.414062 426.285156 499.4375 428.175781 C 486.894531 429.734375 475.132812 432.523438 464.433594 436.46875 C 445.628906 443.363281 428.527344 455.859375 412.179688 474.640625 C 404.03125 483.992188 397.015625 494.695312 390.214844 505.039062 C 377.71875 524.054688 364.796875 543.734375 344.789062 554.882812 C 332.292969 561.828125 318.757812 564.117188 306.308594 564.117188 Z M 389.71875 73.878906 C 383.671875 73.878906 377.648438 74.089844 371.671875 74.492188 C 368.199219 74.730469 364.703125 75.058594 361.253906 75.460938 C 346.539062 77.136719 327.734375 80.492188 312.78125 91.546875 C 289.75 108.578125 282.570312 136.453125 275.625 163.425781 C 274.46875 167.9375 273.261719 172.617188 272.011719 177.128906 C 269.4375 186.386719 267.902344 195.671875 266.414062 204.648438 C 265.042969 212.914062 263.625 221.488281 261.40625 229.757812 C 257.273438 245.203125 249.382812 259.898438 237.335938 274.660156 C 230.082031 283.542969 222.027344 292 214.234375 300.171875 C 209.746094 304.871094 205.117188 309.738281 200.675781 314.628906 C 175.613281 342.265625 149.746094 376.089844 147.882812 417.238281 C 146.34375 448.75 161.085938 481.539062 189.382812 509.574219 C 214.847656 534.804688 249.59375 553.984375 282.359375 560.90625 C 299.035156 564.425781 323.339844 566.148438 344.457031 554.339844 C 364.347656 543.234375 376.628906 524.503906 389.667969 504.6875 C 396.472656 494.316406 403.511719 483.617188 411.683594 474.214844 C 428.101562 455.339844 445.273438 442.796875 464.171875 435.851562 C 474.917969 431.910156 486.730469 429.121094 499.320312 427.539062 C 514.320312 425.648438 528.585938 424.5625 542.972656 424.160156 C 564.042969 423.59375 587.144531 425.601562 609.46875 427.539062 C 617.6875 428.246094 626.191406 429.003906 634.433594 429.59375 C 649.292969 430.679688 663.511719 431.222656 677.144531 431.222656 C 747.769531 431.222656 802.738281 416.554688 851.609375 385.257812 C 886.335938 363.027344 926.300781 318.644531 931.972656 280.1875 C 934.261719 264.621094 930.71875 251.273438 921.460938 240.480469 C 921.199219 240.171875 920.914062 239.890625 920.632812 239.582031 C 920.136719 239.0625 919.617188 238.519531 919.191406 237.882812 C 918.105469 236.324219 917.113281 234.765625 916.144531 233.253906 C 911.5625 226.046875 907.617188 219.835938 896.773438 216.078125 C 893.585938 214.96875 889.972656 214.308594 885.980469 214.070312 C 880.429688 213.742188 873.792969 214.308594 866.253906 215.726562 C 843.296875 220.09375 820.050781 230.464844 797.566406 240.457031 C 787.738281 244.828125 777.605469 249.339844 767.542969 253.355469 C 753.015625 259.164062 734.09375 265.753906 716.683594 265.070312 C 697.269531 264.289062 684.84375 255.21875 676.175781 247.425781 C 672.253906 243.882812 668.566406 239.84375 665.472656 236.324219 C 662.402344 232.851562 659.355469 229 656.121094 224.511719 C 647.519531 212.582031 636.65625 201.765625 626.167969 191.300781 C 623.355469 188.488281 620.453125 185.585938 617.617188 182.726562 C 568.816406 132.933594 523.367188 102.554688 474.589844 87.128906 C 447.117188 78.414062 418.109375 73.878906 389.71875 73.878906 Z M 389.71875 73.878906 " fill-opacity="1" fill-rule="nonzero"/><path fill="#ffffff" d="M 299.789062 555.804688 C 291.429688 555.804688 282.6875 554.761719 273.808594 552.636719 C 241.65625 545.007812 208.066406 525 183.949219 499.136719 C 157.070312 470.292969 144.171875 437.105469 147.621094 405.710938 C 151.753906 367.398438 177.382812 335.320312 204.453125 306.359375 C 207.289062 303.335938 210.195312 300.265625 213.003906 297.3125 C 221.273438 288.621094 229.824219 279.644531 237.476562 270.195312 C 248.175781 256.992188 255.640625 243.929688 260.34375 230.300781 C 263.320312 221.652344 265.351562 213.03125 267.523438 203.890625 C 269.105469 197.183594 270.757812 190.238281 272.816406 183.292969 C 274.539062 177.433594 276.121094 171.269531 277.65625 165.316406 C 284.484375 138.71875 291.570312 111.222656 314.53125 94.265625 C 330.027344 82.808594 349.703125 79.664062 365.128906 78.199219 C 368.71875 77.871094 372.355469 77.585938 375.945312 77.398438 C 411.898438 75.53125 447.777344 80.65625 482.597656 92.609375 C 534.421875 110.277344 583.367188 145.402344 628.105469 196.96875 C 634.671875 204.527344 641.664062 212.0625 648.417969 219.339844 C 653.617188 224.914062 658.976562 230.699219 664.007812 236.347656 C 667.363281 240.125 670.695312 243.386719 674.191406 246.339844 C 678.582031 250.046875 682.363281 252.859375 686.09375 255.195312 C 699.300781 263.488281 712.21875 267.101562 726.796875 266.558594 C 743.328125 265.96875 760.550781 259.519531 773.730469 253.992188 C 783.910156 249.738281 794.164062 244.898438 804.109375 240.246094 C 824.066406 230.867188 844.714844 221.15625 864.886719 216.007812 C 871.832031 214.238281 878.066406 213.222656 883.382812 212.960938 C 887.160156 212.773438 890.726562 212.9375 894.035156 213.457031 C 907.996094 215.703125 915.316406 222.148438 922.804688 229.734375 C 923.324219 230.277344 923.914062 230.75 924.460938 231.222656 C 924.859375 231.550781 925.238281 231.882812 925.617188 232.238281 C 937.546875 243.316406 942.929688 257.464844 941.65625 274.304688 C 938.441406 316.351562 894.601562 364.019531 864.484375 384.429688 C 832.523438 406.113281 797.589844 420.027344 757.691406 426.972656 C 724.527344 432.757812 688.789062 433.703125 645.207031 429.949219 C 633.417969 428.933594 621.324219 427.632812 609.632812 426.355469 C 590.59375 424.300781 570.917969 422.175781 552.445312 421.324219 C 536.289062 420.59375 521.21875 420.359375 506.359375 420.664062 C 492.800781 420.878906 479.949219 422.53125 468.210938 425.578125 C 446.457031 431.222656 427.769531 442.726562 411.070312 460.773438 C 401.503906 471.121094 393.542969 483.308594 385.84375 495.121094 C 373.207031 514.464844 360.167969 534.496094 339.898438 545.976562 C 328.441406 552.496094 314.671875 555.804688 299.789062 555.804688 Z M 390.332031 77.632812 C 385.558594 77.632812 380.765625 77.753906 375.992188 78.011719 C 372.402344 78.199219 368.789062 78.460938 365.199219 78.816406 C 349.867188 80.28125 330.308594 83.398438 314.90625 94.761719 C 292.113281 111.578125 285.074219 138.980469 278.269531 165.457031 C 276.734375 171.410156 275.152344 177.578125 273.429688 183.457031 C 271.398438 190.402344 269.742188 197.324219 268.136719 204.03125 C 265.964844 213.199219 263.910156 221.84375 260.933594 230.511719 C 256.230469 244.210938 248.722656 257.347656 237.972656 270.597656 C 230.320312 280.070312 221.746094 289.046875 213.453125 297.738281 C 210.644531 300.691406 207.738281 303.738281 204.902344 306.761719 C 177.902344 335.652344 152.320312 367.632812 148.210938 405.757812 C 140.867188 472.609375 208.5625 536.503906 273.925781 552.046875 C 298.492188 557.882812 321.828125 555.542969 339.617188 545.433594 C 359.742188 534.023438 372.757812 514.0625 385.347656 494.789062 C 393.070312 482.976562 401.03125 470.742188 410.644531 460.371094 C 427.441406 442.253906 446.21875 430.679688 468.09375 424.988281 C 479.878906 421.917969 492.753906 420.261719 506.382812 420.050781 C 521.265625 419.765625 536.359375 419.980469 552.515625 420.710938 C 570.988281 421.5625 590.6875 423.6875 609.726562 425.742188 C 621.417969 427.019531 633.515625 428.316406 645.277344 429.332031 C 660.535156 430.632812 676.882812 431.625 693.984375 431.625 C 747.273438 431.625 807.746094 422.175781 864.152344 383.910156 C 894.152344 363.570312 937.851562 316.09375 941.066406 274.234375 C 942.339844 257.582031 937.003906 243.597656 925.214844 232.636719 C 924.835938 232.285156 924.460938 231.976562 924.082031 231.621094 C 923.515625 231.148438 922.921875 230.628906 922.378906 230.085938 C 914.964844 222.574219 907.710938 216.199219 893.941406 214 C 890.703125 213.480469 887.160156 213.316406 883.429688 213.503906 C 878.136719 213.765625 871.949219 214.78125 865.050781 216.527344 C 844.925781 221.652344 824.328125 231.339844 804.390625 240.714844 C 794.46875 245.394531 784.195312 250.210938 773.992188 254.488281 C 760.785156 260.039062 743.472656 266.511719 726.84375 267.101562 C 712.148438 267.644531 699.109375 263.984375 685.789062 255.644531 C 682.054688 253.308594 678.230469 250.472656 673.8125 246.738281 C 670.292969 243.765625 666.9375 240.480469 663.558594 236.699219 C 658.527344 231.054688 653.167969 225.269531 647.96875 219.695312 C 641.214844 212.417969 634.222656 204.882812 627.632812 197.324219 C 582.964844 145.828125 534.113281 110.796875 482.40625 93.152344 C 452.289062 82.855469 421.394531 77.632812 390.332031 77.632812 Z M 390.332031 77.632812 " fill-opacity="1" fill-rule="nonzero"/><path fill="#ffffff" d="M 293.199219 547.488281 C 284.128906 547.488281 274.726562 546.261719 265.351562 543.78125 C 233.886719 535.464844 201.597656 514.726562 178.917969 488.269531 C 153.597656 458.71875 142.613281 425.316406 147.976562 394.207031 C 154.328125 357.097656 180.335938 327.785156 208.707031 298.519531 C 220.019531 286.847656 229.375 277.046875 238.136719 266.132812 C 247.515625 254.441406 254.648438 242.960938 259.917969 231.007812 C 264.949219 219.621094 268.5625 207.953125 272.390625 195.601562 C 273.003906 193.617188 273.617188 191.609375 274.253906 189.578125 C 276.476562 182.511719 278.390625 174.976562 280.230469 167.703125 C 286.917969 141.4375 293.835938 114.246094 316.679688 97.429688 C 332.648438 85.6875 353.054688 82.761719 369.09375 81.507812 C 372.804688 81.226562 376.558594 81.011719 380.269531 80.871094 C 417.613281 79.546875 454.652344 85.5 490.414062 98.585938 C 546.421875 119.019531 597.515625 158.066406 638.144531 211.542969 C 649.671875 226.734375 660.558594 238.804688 671.402344 248.441406 C 674.96875 251.605469 678.605469 254.300781 682.480469 256.660156 C 687.015625 259.402344 691.316406 261.574219 695.636719 263.324219 C 708.867188 268.660156 722.378906 270.363281 736.90625 268.566406 C 749.140625 267.054688 762.886719 262.753906 780.15625 255.078125 C 790.714844 250.402344 801.34375 245.0625 811.621094 239.914062 C 829.546875 230.914062 846.484375 222.433594 863.609375 216.765625 C 869.964844 214.664062 875.5625 213.222656 880.734375 212.347656 C 884.277344 211.734375 887.75 211.402344 891.082031 211.332031 C 904.925781 211.046875 916.003906 214.355469 925.921875 221.820312 C 926.445312 222.199219 926.964844 222.574219 927.484375 222.953125 C 928.121094 223.402344 928.734375 223.851562 929.347656 224.324219 C 943.945312 235.566406 951.199219 250.472656 950.867188 268.566406 C 950.113281 311.582031 907.261719 361.421875 877.050781 383.058594 C 802.667969 436.371094 719.851562 435.972656 656.050781 429.664062 C 638.308594 427.917969 620.167969 425.460938 602.617188 423.074219 C 589.199219 421.253906 575.335938 419.367188 561.964844 417.855469 C 544.226562 415.796875 528.328125 414.238281 513.375 413.128906 C 498.730469 412.019531 484.839844 412.539062 472.109375 414.6875 C 447.847656 418.847656 426.96875 429.6875 410.054688 446.90625 C 399.070312 458.105469 390.238281 471.734375 381.710938 484.9375 C 368.90625 504.734375 355.679688 525.214844 335.082031 537.046875 C 323.105469 543.96875 308.601562 547.488281 293.199219 547.488281 Z M 390.449219 81.34375 C 387.070312 81.34375 383.671875 81.414062 380.292969 81.53125 C 376.582031 81.671875 372.828125 81.886719 369.144531 82.167969 C 353.199219 83.398438 332.882812 86.328125 317.058594 97.972656 C 294.382812 114.648438 287.507812 141.71875 280.824219 167.890625 C 278.980469 175.167969 277.042969 182.703125 274.824219 189.789062 C 274.183594 191.796875 273.570312 193.804688 272.957031 195.789062 C 269.128906 208.167969 265.492188 219.835938 260.460938 231.269531 C 255.167969 243.269531 248.011719 254.796875 238.585938 266.535156 C 229.800781 277.472656 220.445312 287.273438 209.109375 298.945312 C 180.785156 328.140625 154.847656 357.382812 148.542969 394.304688 C 143.203125 425.246094 154.140625 458.484375 179.34375 487.867188 C 201.949219 514.230469 234.144531 534.921875 265.46875 543.1875 C 290.601562 549.828125 315.851562 547.417969 334.75 536.550781 C 355.207031 524.789062 368.410156 504.378906 381.167969 484.632812 C 389.71875 471.402344 398.550781 457.75 409.582031 446.507812 C 426.589844 429.191406 447.589844 418.277344 471.96875 414.121094 C 484.769531 411.972656 498.707031 411.429688 513.375 412.5625 C 528.351562 413.671875 544.25 415.207031 561.988281 417.285156 C 575.359375 418.796875 589.222656 420.6875 602.640625 422.507812 C 620.167969 424.894531 638.308594 427.347656 656.046875 429.097656 C 719.753906 435.378906 802.429688 435.804688 876.648438 382.585938 C 906.742188 361.019531 949.449219 311.367188 950.207031 268.566406 C 950.511719 250.660156 943.355469 235.945312 928.921875 224.820312 C 928.332031 224.371094 927.71875 223.921875 927.082031 223.472656 C 926.5625 223.09375 926.042969 222.71875 925.523438 222.339844 C 915.71875 214.96875 904.757812 211.664062 891.058594 211.96875 C 887.773438 212.039062 884.328125 212.371094 880.808594 212.984375 C 875.679688 213.859375 870.105469 215.300781 863.777344 217.378906 C 846.699219 223.023438 829.785156 231.503906 811.855469 240.480469 C 801.582031 245.628906 790.949219 250.96875 780.367188 255.667969 C 763.03125 263.371094 749.234375 267.691406 736.953125 269.203125 C 722.308594 271.023438 708.699219 269.296875 695.378906 263.914062 C 691.03125 262.164062 686.6875 259.96875 682.125 257.203125 C 678.207031 254.84375 674.566406 252.125 670.976562 248.9375 C 660.089844 239.253906 649.199219 227.15625 637.625 211.945312 C 597.066406 158.5625 546.066406 119.5625 490.179688 99.175781 C 457.769531 87.320312 424.273438 81.34375 390.449219 81.34375 Z M 390.449219 81.34375 " fill-opacity="1" fill-rule="nonzero"/><path fill="#ffffff" d="M 286.796875 539.292969 C 276.996094 539.292969 266.910156 537.851562 256.894531 534.945312 C 226.113281 525.992188 195.078125 504.496094 173.839844 477.449219 C 150.101562 447.191406 141.03125 413.53125 148.304688 382.679688 C 157 345.855469 185.203125 318.007812 212.484375 291.078125 L 212.910156 290.652344 C 244.066406 259.945312 264.59375 228.953125 275.671875 195.90625 C 278.414062 187.734375 280.632812 178.875 282.78125 170.347656 C 289.324219 144.316406 296.082031 117.390625 318.828125 100.664062 C 335.246094 88.617188 356.433594 85.902344 373.039062 84.886719 C 376.84375 84.648438 380.742188 84.484375 384.589844 84.414062 C 436.226562 83.375 488.078125 96.175781 534.539062 121.453125 C 580.246094 146.324219 619.554688 182.5625 648.183594 226.214844 C 658.8125 242.417969 670.835938 258.90625 690.75 267.078125 C 734.753906 285.148438 778.265625 261.550781 820.335938 238.730469 C 840.414062 227.84375 859.382812 217.566406 878.089844 211.804688 C 892.191406 207.480469 912.460938 204.339844 929.042969 213.976562 C 948.433594 225.246094 958.875 241.140625 960.105469 261.195312 C 961.617188 286.210938 948.503906 312.054688 937.261719 329.367188 C 924.152344 349.492188 906.339844 369.050781 889.617188 381.714844 C 838.171875 420.640625 782.046875 432.902344 724.363281 432.902344 C 674.519531 432.902344 623.523438 423.757812 573.28125 414.757812 C 555.847656 411.640625 537.824219 408.40625 520.367188 405.664062 C 473.03125 398.246094 435.566406 407.484375 409.015625 433.113281 C 396.636719 445.066406 387 460.113281 377.695312 474.640625 C 364.679688 494.953125 351.238281 515.976562 330.238281 528.191406 C 317.625 535.535156 302.601562 539.292969 286.796875 539.292969 Z M 384.589844 84.71875 L 384.589844 85.027344 C 380.742188 85.097656 376.867188 85.265625 373.0625 85.5 C 356.527344 86.515625 335.457031 89.207031 319.160156 101.160156 C 296.601562 117.742188 289.871094 144.554688 283.351562 170.488281 C 281.199219 179.042969 278.980469 187.898438 276.238281 196.097656 C 265.136719 229.238281 244.5625 260.296875 213.359375 291.078125 L 212.933594 291.503906 C 185.699219 318.359375 157.566406 346.140625 148.898438 382.800781 C 141.667969 413.460938 150.691406 446.933594 174.3125 477.027344 C 195.453125 503.976562 226.398438 525.402344 257.058594 534.332031 C 283.066406 541.914062 309.617188 539.457031 329.929688 527.644531 C 350.789062 515.503906 364.207031 494.550781 377.175781 474.285156 C 386.503906 459.710938 396.140625 444.640625 408.589844 432.640625 C 435.28125 406.871094 472.933594 397.585938 520.460938 405.027344 C 537.941406 407.765625 555.964844 411.003906 573.398438 414.121094 C 681.628906 433.539062 793.574219 453.59375 889.261719 381.191406 C 905.941406 368.578125 923.703125 349.066406 936.765625 329.011719 C 947.984375 311.792969 961.023438 286.070312 959.511719 261.21875 C 958.308594 241.378906 947.960938 225.644531 928.757812 214.472656 C 912.363281 204.953125 892.261719 208.070312 878.28125 212.347656 C 859.617188 218.085938 840.675781 228.339844 820.621094 239.226562 C 788.917969 256.425781 756.394531 274.046875 723.417969 274.046875 C 712.503906 274.046875 701.519531 272.109375 690.511719 267.597656 C 670.433594 259.355469 658.339844 242.773438 647.664062 226.519531 C 589.011719 137.113281 488.21875 82.878906 384.589844 85.003906 Z M 384.589844 84.71875 " fill-opacity="1" fill-rule="nonzero"/></svg>