<svg xmlns="http://www.w3.org/2000/svg" xmlns:xlink="http://www.w3.org/1999/xlink" width="1440" zoomAndPan="magnify" viewBox="0 0 1080 675.000002" height="900" preserveAspectRatio="xMidYMid meet" version="1.0"><defs><clipPath id="83348dd63a"><path d="M 242 19.59375 L 828 19.59375 L 828 551 L 242 551 Z M 242 19.59375 " clip-rule="nonzero"/></clipPath><clipPath id="7a409e7224"><path d="M 296 37 L 838.984375 37 L 838.984375 646 L 296 646 Z M 296 37 " clip-rule="nonzero"/></clipPath><clipPath id="6cfc0fde9c"><path d="M 298 38 L 838.984375 38 L 838.984375 651 L 298 651 Z M 298 38 " clip-rule="nonzero"/></clipPath><clipPath id="2639600073"><path d="M 300 39 L 838.984375 39 L 838.984375 654.652344 L 300 654.652344 Z M 300 39 " clip-rule="nonzero"/></clipPath></defs><g clip-path="url(#83348dd63a)"><path fill="#ffffff" d="M 246.261719 19.46875 L 247.53125 19.589844 C 247.476562 20.140625 242.296875 75.332031 244.515625 138.242188 C 245.820312 175.171875 249.382812 207.496094 255.097656 234.316406 C 262.234375 267.78125 272.757812 292.695312 286.382812 308.375 C 297.449219 321.109375 310.761719 327.910156 325.941406 328.585938 C 363.449219 330.257812 415.773438 307.296875 471.175781 282.988281 C 508.613281 266.5625 547.320312 249.574219 583.296875 239.480469 C 602.757812 234.019531 619.613281 231.050781 634.828125 230.410156 C 652.03125 229.683594 666.648438 231.925781 679.511719 237.265625 C 689.984375 241.609375 699.242188 248.113281 707.027344 256.597656 C 715.261719 265.570312 722.132812 277.0625 727.453125 290.757812 C 801.28125 480.753906 827.621094 549.0625 827.878906 549.730469 L 826.6875 550.191406 C 826.429688 549.523438 800.089844 481.210938 726.261719 291.222656 C 715.917969 264.605469 700.464844 247.34375 679.019531 238.445312 C 655.320312 228.609375 624.121094 229.351562 583.640625 240.710938 C 547.746094 250.78125 509.082031 267.75 471.683594 284.15625 C 416.144531 308.527344 363.683594 331.542969 325.882812 329.863281 C 310.339844 329.171875 296.722656 322.226562 285.421875 309.214844 C 271.652344 293.371094 261.027344 268.261719 253.847656 234.582031 C 248.117188 207.6875 244.546875 175.289062 243.242188 138.277344 C 241.019531 75.28125 246.207031 20.019531 246.261719 19.46875 Z M 246.261719 19.46875 " fill-opacity="1" fill-rule="nonzero"/></g><path fill="#ffffff" d="M 248.523438 20.328125 L 249.792969 20.429688 C 249.746094 20.953125 245.632812 73.515625 248.894531 133.6875 C 250.808594 169.015625 254.851562 200.015625 260.917969 225.824219 C 268.480469 258.027344 279.222656 282.175781 292.835938 297.601562 C 304.359375 310.65625 318.144531 317.628906 333.808594 318.328125 C 370.777344 319.96875 419.503906 299.859375 471.085938 278.5625 C 505.808594 264.226562 541.710938 249.40625 575.203125 240.933594 C 593.308594 236.351562 609.070312 234.011719 623.398438 233.777344 C 639.578125 233.507812 653.46875 235.917969 665.863281 241.136719 C 676.675781 245.6875 686.289062 252.488281 694.441406 261.351562 C 703.089844 270.75 710.402344 282.796875 716.179688 297.160156 C 790.761719 482.628906 827.957031 553.304688 828.324219 553.996094 L 827.199219 554.59375 C 826.832031 553.898438 789.601562 483.167969 714.996094 297.632812 C 703.78125 269.746094 687.550781 251.648438 665.371094 242.3125 C 642.53125 232.695312 613.136719 232.652344 575.511719 242.167969 C 542.109375 250.617188 506.25 265.425781 471.570312 279.742188 C 419.855469 301.09375 371.007812 321.265625 333.75 319.601562 C 317.726562 318.886719 303.640625 311.773438 291.882812 298.445312 C 278.125 282.863281 267.289062 258.523438 259.671875 226.109375 C 253.589844 200.226562 249.535156 169.148438 247.621094 133.746094 C 244.355469 73.484375 248.480469 20.851562 248.523438 20.328125 Z M 248.523438 20.328125 " fill-opacity="1" fill-rule="nonzero"/><path fill="#ffffff" d="M 250.78125 21.191406 L 252.054688 21.269531 C 252.023438 21.769531 248.949219 71.710938 253.230469 129.160156 C 257.179688 182.113281 268.359375 252.453125 299.203125 286.816406 C 311.214844 300.199219 325.503906 307.351562 341.679688 308.074219 C 378.015625 309.6875 423.117188 292.386719 470.863281 274.0625 C 517.136719 256.300781 564.988281 237.941406 606.496094 236.878906 C 628.976562 236.308594 647.554688 240.773438 663.296875 250.535156 C 671.847656 255.84375 679.617188 262.835938 686.378906 271.316406 C 693.476562 280.21875 699.710938 291.066406 704.910156 303.558594 C 744.25 398.125 775.839844 462.355469 795.410156 499.585938 C 816.609375 539.90625 828.652344 558.09375 828.769531 558.273438 L 827.710938 558.980469 C 827.589844 558.796875 815.511719 540.554688 794.285156 500.175781 C 774.703125 462.921875 743.09375 398.65625 703.734375 304.039062 C 684.796875 258.515625 653 236.96875 606.53125 238.148438 C 565.242188 239.203125 517.496094 257.523438 471.324219 275.242188 C 423.445312 293.617188 378.230469 310.976562 341.625 309.339844 C 325.097656 308.605469 310.503906 301.3125 298.253906 287.664062 C 284.511719 272.351562 273.46875 248.800781 265.429688 217.65625 C 259.007812 192.789062 254.476562 163.039062 251.957031 129.234375 C 247.671875 71.703125 250.753906 21.6875 250.78125 21.191406 Z M 250.78125 21.191406 " fill-opacity="1" fill-rule="nonzero"/><path fill="#ffffff" d="M 253.046875 22.050781 L 254.320312 22.109375 C 254.289062 22.789062 251.363281 90.730469 261.675781 158.378906 C 267.726562 198.066406 277.078125 229.882812 289.480469 252.9375 C 304.910156 281.625 325.121094 296.722656 349.550781 297.8125 C 385.117188 299.398438 426.574219 284.847656 470.46875 269.445312 C 513.945312 254.1875 558.898438 238.40625 598.144531 239.460938 C 619.375 240.027344 637.101562 245.359375 652.339844 255.765625 C 660.609375 261.410156 668.203125 268.671875 674.910156 277.347656 C 681.945312 286.449219 688.25 297.421875 693.644531 309.953125 C 733.3125 402.15625 768.066406 465.929688 790.234375 503.195312 C 814.25 543.570312 829.078125 562.382812 829.226562 562.566406 L 828.226562 563.359375 C 828.078125 563.175781 813.214844 544.316406 789.160156 503.882812 C 766.96875 466.582031 732.183594 402.746094 692.472656 310.460938 C 672.789062 264.714844 641.925781 241.90625 598.113281 240.738281 C 559.105469 239.699219 514.261719 255.433594 470.894531 270.648438 C 449.78125 278.058594 427.949219 285.71875 407.484375 291.136719 C 384.554688 297.203125 365.585938 299.804688 349.5 299.089844 C 324.589844 297.980469 304.019531 282.652344 288.363281 253.539062 C 275.890625 230.351562 266.488281 198.394531 260.417969 158.558594 C 250.082031 90.78125 253.015625 22.730469 253.046875 22.050781 Z M 253.046875 22.050781 " fill-opacity="1" fill-rule="nonzero"/><path fill="#ffffff" d="M 255.308594 22.914062 L 256.582031 22.945312 C 256.5625 23.597656 255.039062 88.757812 266.738281 153.65625 C 273.597656 191.730469 283.601562 222.257812 296.464844 244.394531 C 312.472656 271.941406 332.980469 286.460938 357.417969 287.550781 C 392.023438 289.089844 431.574219 276.6875 469.824219 264.691406 C 510.554688 251.917969 552.675781 238.710938 589.675781 241.871094 C 609.660156 243.578125 626.546875 249.789062 641.296875 260.855469 C 649.285156 266.855469 656.714844 274.40625 663.382812 283.296875 C 670.367188 292.621094 676.753906 303.738281 682.363281 316.347656 C 722.347656 406.210938 760.273438 469.539062 785.042969 506.839844 C 811.886719 547.257812 829.492188 566.671875 829.667969 566.863281 L 828.726562 567.722656 C 828.550781 567.53125 810.894531 548.066406 784.011719 507.582031 C 768.222656 483.8125 752.386719 457.550781 736.941406 429.523438 C 717.632812 394.488281 698.882812 356.585938 681.203125 316.863281 C 660.691406 270.769531 630.71875 246.65625 589.570312 243.140625 C 552.820312 240 510.820312 253.167969 470.207031 265.910156 C 431.851562 277.9375 392.195312 290.375 357.363281 288.820312 C 332.460938 287.710938 311.601562 272.976562 295.359375 245.027344 C 282.421875 222.761719 272.371094 192.085938 265.480469 153.859375 C 253.761719 88.839844 255.292969 23.566406 255.308594 22.914062 Z M 255.308594 22.914062 " fill-opacity="1" fill-rule="nonzero"/><path fill="#ffffff" d="M 257.570312 23.777344 L 258.84375 23.78125 C 258.84375 24.402344 258.71875 86.785156 271.800781 148.933594 C 279.476562 185.394531 290.121094 214.640625 303.449219 235.851562 C 320.035156 262.257812 340.84375 276.203125 365.289062 277.292969 C 398.671875 278.777344 434.339844 269.109375 468.832031 259.757812 C 487.917969 254.585938 507.652344 249.234375 526.476562 245.964844 C 547.585938 242.300781 565.4375 241.675781 581.058594 244.050781 C 599.800781 246.898438 615.855469 254.003906 630.144531 265.777344 C 646.117188 278.945312 659.515625 297.578125 671.09375 322.746094 C 711.367188 410.277344 752.460938 473.160156 779.84375 510.5 C 809.511719 550.957031 829.914062 570.972656 830.121094 571.171875 L 829.230469 572.082031 C 829.027344 571.882812 808.5625 551.816406 778.839844 511.285156 C 761.386719 487.488281 744.199219 461.394531 727.753906 433.722656 C 707.195312 399.136719 687.742188 361.976562 669.933594 323.277344 C 648.1875 276.011719 619.882812 251.234375 580.867188 245.304688 C 546.347656 240.058594 508.855469 250.226562 469.160156 260.988281 C 434.574219 270.363281 398.808594 280.054688 365.230469 278.566406 C 340.335938 277.457031 319.1875 263.3125 302.359375 236.523438 C 288.957031 215.179688 278.25 185.792969 270.546875 149.175781 C 257.441406 86.894531 257.566406 24.398438 257.570312 23.777344 Z M 257.570312 23.777344 " fill-opacity="1" fill-rule="nonzero"/><path fill="#ffffff" d="M 261.105469 24.617188 C 261.117188 25.210938 262.398438 84.804688 276.863281 144.207031 C 285.347656 179.058594 296.644531 207.015625 310.429688 227.308594 C 327.597656 252.574219 348.703125 265.941406 373.160156 267.03125 C 404.9375 268.445312 436.648438 261.382812 467.316406 254.558594 C 504.503906 246.277344 539.632812 238.457031 572.234375 245.878906 C 589.734375 249.863281 604.980469 257.894531 618.839844 270.429688 C 634.261719 284.382812 647.667969 303.585938 659.828125 329.144531 C 700.359375 414.347656 744.628906 476.789062 774.628906 514.167969 C 807.125 554.664062 830.34375 575.28125 830.574219 575.480469 L 829.730469 576.4375 C 829.496094 576.234375 806.21875 555.566406 773.652344 514.992188 C 754.53125 491.171875 735.992188 465.238281 718.546875 437.925781 C 696.738281 403.78125 676.59375 367.367188 658.671875 329.6875 C 635.804688 281.621094 608.25 255.382812 571.945312 247.121094 C 539.625 239.761719 504.632812 247.554688 467.589844 255.800781 C 436.839844 262.644531 405.046875 269.726562 373.101562 268.300781 C 348.21875 267.195312 326.773438 253.636719 309.367188 228.015625 C 295.492188 207.59375 284.136719 179.492188 275.617188 144.492188 C 261.125 84.953125 259.839844 25.234375 259.828125 24.636719 Z M 261.105469 24.617188 " fill-opacity="1" fill-rule="nonzero"/><path fill="#ffffff" d="M 263.367188 25.449219 C 263.390625 26.015625 266.078125 82.828125 281.921875 139.484375 C 291.21875 172.71875 303.15625 199.390625 317.410156 218.765625 C 335.15625 242.890625 356.5625 255.679688 381.03125 256.769531 C 410.609375 258.085938 438.242188 253.453125 464.96875 248.972656 C 499.757812 243.136719 532.621094 237.625 563.09375 247.199219 C 579.367188 252.3125 593.828125 261.300781 607.304688 274.683594 C 622.195312 289.472656 635.6875 309.382812 648.550781 335.539062 C 689.320312 418.429688 736.761719 480.425781 769.382812 517.839844 C 804.734375 558.378906 830.773438 579.585938 831.03125 579.796875 L 830.230469 580.789062 C 829.972656 580.582031 803.863281 559.320312 768.449219 518.707031 C 747.652344 494.859375 727.761719 469.097656 709.320312 442.140625 C 686.269531 408.441406 665.4375 372.765625 647.40625 336.105469 C 623.167969 286.816406 596.257812 258.957031 562.710938 248.417969 C 532.53125 238.9375 499.816406 244.425781 465.179688 250.234375 C 438.390625 254.726562 410.6875 259.375 380.972656 258.046875 C 356.101562 256.941406 334.367188 243.976562 316.378906 219.515625 C 302.039062 200.015625 290.03125 173.199219 280.695312 139.808594 C 264.8125 83.011719 262.121094 26.074219 262.097656 25.507812 Z M 263.367188 25.449219 " fill-opacity="1" fill-rule="nonzero"/><path fill="#ffffff" d="M 265.628906 26.28125 C 265.664062 26.824219 269.753906 80.851562 286.984375 134.757812 C 297.089844 166.382812 309.675781 191.773438 324.386719 210.226562 C 342.714844 233.214844 364.417969 245.421875 388.894531 246.515625 C 415.332031 247.691406 438.660156 245.203125 461.214844 242.796875 C 495.480469 239.136719 525.074219 235.980469 553.492188 247.714844 C 568.539062 253.929688 582.253906 263.9375 595.421875 278.3125 C 609.792969 294.007812 623.484375 314.816406 637.277344 341.9375 C 678.253906 422.535156 728.886719 484.097656 764.144531 521.550781 C 802.34375 562.121094 831.203125 583.902344 831.492188 584.117188 L 830.726562 585.136719 C 830.4375 584.917969 801.492188 563.070312 763.222656 522.421875 C 740.746094 498.550781 719.5 472.957031 700.070312 446.351562 C 675.777344 413.097656 654.269531 378.160156 636.144531 342.511719 C 610.109375 291.304688 583.691406 261.558594 553.007812 248.886719 C 524.890625 237.277344 495.445312 240.417969 461.355469 244.058594 C 439.804688 246.359375 415.375 248.964844 388.84375 247.785156 C 363.980469 246.675781 341.957031 234.300781 323.386719 211.007812 C 308.578125 192.429688 295.917969 166.902344 285.765625 135.125 C 268.492188 81.074219 264.398438 26.910156 264.359375 26.371094 Z M 265.628906 26.28125 " fill-opacity="1" fill-rule="nonzero"/><path fill="#ffffff" d="M 267.886719 27.109375 C 267.941406 27.621094 273.429688 78.867188 292.042969 130.027344 C 309.175781 177.121094 341.25 233.78125 396.765625 236.253906 C 418.476562 237.21875 437.824219 236.386719 454.890625 235.652344 C 489.441406 234.164062 516.730469 232.988281 543.21875 246.894531 C 571.363281 261.671875 596.894531 292.953125 626.003906 348.332031 C 667.160156 426.621094 720.960938 487.730469 758.847656 525.214844 C 799.90625 565.832031 831.636719 588.214844 831.953125 588.4375 L 831.222656 589.480469 C 830.90625 589.257812 799.101562 566.824219 757.972656 526.140625 C 733.820312 502.246094 711.21875 476.824219 690.792969 450.574219 C 665.261719 417.761719 643.085938 383.558594 624.878906 348.921875 C 595.898438 293.789062 570.53125 262.667969 542.628906 248.019531 C 516.445312 234.273438 489.304688 235.441406 454.945312 236.921875 C 437.851562 237.660156 418.476562 238.492188 396.710938 237.523438 C 371.859375 236.417969 349.546875 224.632812 330.394531 202.503906 C 315.121094 184.851562 301.808594 160.605469 290.839844 130.441406 C 272.175781 79.132812 266.675781 27.753906 266.621094 27.242188 Z M 267.886719 27.109375 " fill-opacity="1" fill-rule="nonzero"/><path fill="#ffffff" d="M 270.148438 27.9375 C 270.214844 28.421875 277.109375 76.886719 297.101562 125.300781 C 315.511719 169.871094 349.109375 223.519531 404.636719 225.992188 C 418.957031 226.628906 431.953125 226.804688 443.417969 226.960938 C 481.894531 227.476562 507.3125 227.816406 532.058594 243.890625 C 544.722656 252.117188 556.722656 264.128906 569.828125 281.699219 C 582.941406 299.28125 597.210938 322.484375 614.734375 354.722656 C 656.039062 430.726562 713.023438 491.398438 753.550781 528.90625 C 797.472656 569.558594 832.070312 592.527344 832.414062 592.753906 L 831.714844 593.816406 C 831.367188 593.589844 796.699219 570.578125 752.707031 529.859375 C 726.867188 505.945312 702.910156 480.695312 681.5 454.800781 C 654.734375 422.429688 631.894531 388.964844 613.613281 355.332031 C 545.28125 229.601562 519.609375 229.253906 443.398438 228.226562 C 431.925781 228.074219 418.917969 227.898438 404.578125 227.261719 C 379.738281 226.152344 357.136719 214.960938 337.40625 193.996094 C 321.660156 177.269531 307.699219 154.308594 295.910156 125.757812 C 275.859375 77.195312 268.953125 28.59375 268.882812 28.109375 Z M 270.148438 27.9375 " fill-opacity="1" fill-rule="nonzero"/><path fill="#ffffff" d="M 272.40625 28.765625 C 272.488281 29.222656 280.78125 74.902344 302.160156 120.570312 C 321.839844 162.617188 356.964844 213.261719 412.507812 215.734375 C 415.449219 215.863281 418.316406 215.988281 421.101562 216.109375 C 445.613281 217.179688 464.972656 218.019531 480.578125 220.84375 C 496.921875 223.796875 509.148438 228.980469 520.222656 237.640625 C 543.828125 256.101562 565 292.679688 603.460938 361.125 C 644.894531 434.855469 705.058594 495.082031 748.234375 532.621094 C 795.03125 573.308594 832.507812 596.855469 832.878906 597.085938 L 832.203125 598.167969 C 831.832031 597.933594 794.285156 574.347656 747.421875 533.597656 C 719.894531 509.667969 694.582031 484.585938 672.1875 459.046875 C 644.1875 427.117188 620.691406 394.378906 602.351562 361.75 C 563.972656 293.449219 542.855469 256.957031 519.4375 238.644531 C 496.453125 220.667969 471.25 219.570312 421.046875 217.386719 C 418.257812 217.261719 415.394531 217.140625 412.449219 217.007812 C 387.621094 215.902344 364.730469 205.300781 344.421875 185.5 C 328.207031 169.691406 313.597656 148.019531 300.992188 121.085938 C 279.550781 75.269531 271.234375 29.445312 271.152344 28.988281 Z M 272.40625 28.765625 " fill-opacity="1" fill-rule="nonzero"/><path fill="#ffffff" d="M 274.664062 29.589844 C 274.757812 30.015625 284.453125 72.914062 307.210938 115.839844 C 328.167969 155.363281 364.8125 203 420.378906 205.476562 C 444.308594 206.542969 459.613281 208.011719 471.558594 210.378906 C 485.085938 213.066406 494.921875 217.011719 503.449219 223.175781 C 520.59375 235.566406 531.746094 256.550781 551.992188 294.644531 C 562.285156 314.011719 575.101562 338.121094 592.1875 367.523438 C 633.726562 439 697.082031 498.789062 742.921875 536.359375 C 792.59375 577.066406 832.945312 601.171875 833.347656 601.410156 L 832.695312 602.507812 C 832.292969 602.265625 791.859375 578.113281 742.117188 537.339844 C 712.894531 513.394531 686.226562 488.480469 662.847656 463.296875 C 633.617188 431.804688 609.472656 399.800781 591.085938 368.160156 C 573.988281 338.734375 561.167969 314.617188 550.867188 295.238281 C 530.710938 257.3125 519.609375 236.421875 502.703125 224.203125 C 485.417969 211.707031 462.367188 208.621094 420.320312 206.746094 C 395.5 205.640625 372.324219 195.628906 351.433594 176.992188 C 334.757812 162.113281 319.492188 141.726562 306.070312 116.410156 C 283.238281 73.339844 273.515625 30.292969 273.417969 29.863281 Z M 274.664062 29.589844 " fill-opacity="1" fill-rule="nonzero"/><path fill="#ffffff" d="M 276.917969 30.40625 C 277.027344 30.808594 288.121094 70.925781 312.261719 111.101562 C 334.496094 148.105469 372.667969 192.738281 428.25 195.210938 C 500.300781 198.421875 506.558594 213.820312 527.292969 264.851562 C 537.800781 290.703125 552.183594 326.113281 580.914062 373.910156 C 622.523438 443.140625 689.070312 502.484375 737.570312 540.078125 C 790.125 580.816406 833.382812 605.488281 833.8125 605.734375 L 833.183594 606.84375 C 832.753906 606.597656 789.417969 581.882812 736.785156 541.085938 C 705.875 517.125 677.851562 492.382812 653.488281 467.550781 C 623.03125 436.5 598.246094 405.21875 579.824219 374.570312 C 551.042969 326.6875 536.632812 291.226562 526.113281 265.332031 C 515.871094 240.125 509.105469 223.476562 496.160156 213.042969 C 483.371094 202.738281 464.316406 198.09375 428.191406 196.484375 C 403.382812 195.378906 379.917969 185.960938 358.453125 168.484375 C 341.308594 154.527344 325.394531 135.433594 311.15625 111.730469 C 286.929688 71.402344 275.800781 31.140625 275.691406 30.738281 Z M 276.917969 30.40625 " fill-opacity="1" fill-rule="nonzero"/><path fill="#ffffff" d="M 279.171875 31.226562 C 279.292969 31.597656 291.789062 68.933594 317.308594 106.367188 C 340.820312 140.851562 380.519531 182.476562 436.117188 184.957031 C 467.175781 186.339844 485.039062 191.503906 495.84375 202.226562 C 506.410156 212.714844 510.296875 228.324219 515.667969 249.933594 C 523.292969 280.589844 533.734375 322.570312 569.640625 380.3125 C 611.296875 447.304688 681.023438 506.199219 732.179688 543.8125 C 787.632812 584.578125 833.820312 609.816406 834.28125 610.066406 L 833.671875 611.183594 C 833.210938 610.933594 786.957031 585.660156 731.441406 544.84375 C 698.835938 520.875 669.449219 496.304688 644.113281 471.828125 C 612.425781 441.214844 587.007812 410.652344 568.558594 380.984375 C 532.546875 323.078125 522.078125 280.976562 514.433594 250.242188 C 503.667969 206.957031 499.210938 189.042969 436.058594 186.230469 C 411.257812 185.125 387.507812 176.292969 365.464844 159.984375 C 347.855469 146.953125 331.292969 129.148438 316.238281 107.058594 C 290.621094 69.480469 278.082031 32 277.957031 31.625 Z M 279.171875 31.226562 " fill-opacity="1" fill-rule="nonzero"/><path fill="#ffffff" d="M 281.421875 32.039062 C 281.558594 32.382812 295.457031 66.941406 322.355469 101.632812 C 347.144531 133.597656 388.367188 172.222656 443.988281 174.699219 C 458.554688 175.347656 469.859375 177.148438 478.542969 180.203125 C 486.851562 183.128906 493.03125 187.308594 497.441406 192.984375 C 505.917969 203.902344 507.488281 219.949219 509.46875 240.261719 C 512.890625 275.316406 517.578125 323.320312 558.367188 386.710938 C 600.050781 451.484375 672.96875 509.933594 726.796875 547.566406 C 785.144531 588.351562 834.257812 614.140625 834.75 614.394531 L 834.15625 615.523438 C 833.667969 615.269531 784.492188 589.449219 726.078125 548.617188 C 691.765625 524.636719 661.027344 500.238281 634.710938 476.109375 C 601.800781 445.933594 575.753906 416.085938 557.292969 387.398438 C 539.164062 359.226562 526.523438 331.621094 518.652344 303 C 511.921875 278.527344 509.855469 257.378906 508.195312 240.382812 C 504.179688 199.222656 502.164062 178.566406 443.925781 175.96875 C 419.140625 174.867188 395.101562 166.625 372.480469 151.476562 C 354.40625 139.371094 337.195312 122.859375 321.328125 102.386719 C 294.320312 67.558594 280.371094 32.859375 280.234375 32.511719 Z M 281.421875 32.039062 " fill-opacity="1" fill-rule="nonzero"/><path fill="#ffffff" d="M 283.667969 32.851562 C 283.816406 33.167969 299.117188 64.945312 327.398438 96.894531 C 353.464844 126.339844 396.21875 161.957031 451.855469 164.4375 C 478.378906 165.621094 493.371094 171.664062 500.46875 184.042969 C 507.128906 195.652344 506.566406 212.0625 505.847656 232.835938 C 504.484375 272.300781 502.617188 326.34375 547.09375 393.109375 C 588.777344 455.683594 664.886719 513.691406 721.394531 551.332031 C 782.644531 592.136719 834.699219 618.464844 835.21875 618.730469 L 834.644531 619.867188 C 834.125 619.601562 782.011719 593.246094 720.699219 552.402344 C 684.6875 528.414062 652.585938 504.191406 625.296875 480.410156 C 591.164062 450.667969 564.5 421.535156 546.03125 393.816406 C 526.242188 364.113281 513.8125 334.339844 508.03125 302.804688 C 503.089844 275.824219 503.910156 251.964844 504.570312 232.796875 C 505.28125 212.222656 505.84375 195.976562 499.363281 184.679688 C 492.507812 172.722656 477.835938 166.875 451.800781 165.714844 C 427.023438 164.613281 402.699219 156.960938 379.503906 142.972656 C 360.96875 131.796875 343.105469 116.570312 326.421875 97.71875 C 298.027344 65.636719 282.667969 33.71875 282.515625 33.402344 Z M 283.667969 32.851562 " fill-opacity="1" fill-rule="nonzero"/><path fill="#ffffff" d="M 285.90625 33.660156 C 286.074219 33.949219 302.769531 62.949219 332.4375 92.15625 C 359.785156 119.082031 404.070312 151.695312 459.726562 154.175781 C 480.191406 155.089844 493.011719 159.5 500.082031 168.058594 C 510.363281 180.511719 507.382812 200.816406 503.613281 226.523438 C 497.167969 270.472656 488.335938 330.667969 535.820312 399.5 C 577.484375 459.890625 656.789062 517.453125 715.976562 555.105469 C 780.136719 595.921875 835.140625 622.785156 835.6875 623.050781 L 835.132812 624.199219 C 834.582031 623.929688 779.519531 597.042969 715.304688 556.191406 C 677.582031 532.195312 644.125 508.144531 615.859375 484.714844 C 580.511719 455.40625 553.226562 426.980469 534.769531 400.226562 C 513.617188 369.5625 501.667969 337.996094 498.238281 303.71875 C 495.304688 274.375 499.214844 247.742188 502.351562 226.335938 C 506.074219 200.941406 509.019531 180.882812 499.097656 168.867188 C 492.273438 160.609375 479.746094 156.34375 459.667969 155.449219 C 434.902344 154.34375 410.292969 147.285156 386.523438 134.457031 C 367.523438 124.207031 349.015625 110.273438 331.515625 93.039062 C 301.734375 63.707031 284.964844 34.578125 284.796875 34.285156 Z M 285.90625 33.660156 " fill-opacity="1" fill-rule="nonzero"/><path fill="#ffffff" d="M 288.140625 34.464844 C 288.316406 34.726562 306.417969 60.949219 337.472656 87.421875 C 366.101562 111.828125 411.917969 141.4375 467.597656 143.917969 C 477.199219 144.347656 484.855469 145.675781 490.992188 147.976562 C 496.898438 150.191406 501.265625 153.261719 504.351562 157.363281 C 514.320312 170.621094 508.972656 192.78125 502.199219 220.832031 C 490.484375 269.355469 474.445312 335.808594 524.542969 405.894531 C 566.167969 464.132812 648.667969 521.246094 710.550781 558.90625 C 777.625 599.726562 835.582031 627.109375 836.160156 627.382812 L 835.617188 628.535156 C 835.035156 628.261719 777.019531 600.851562 709.890625 559.996094 C 670.457031 536 635.640625 512.125 606.40625 489.035156 C 569.839844 460.164062 541.953125 432.4375 523.507812 406.636719 C 473.070312 336.074219 489.191406 269.292969 500.960938 220.53125 C 507.652344 192.804688 512.941406 170.90625 503.332031 158.128906 C 497.394531 150.230469 485.683594 146 467.539062 145.191406 C 442.78125 144.089844 417.886719 137.617188 393.542969 125.953125 C 374.082031 116.628906 354.929688 103.984375 336.613281 88.367188 C 305.441406 61.792969 287.265625 35.449219 287.085938 35.1875 Z M 288.140625 34.464844 " fill-opacity="1" fill-rule="nonzero"/><path fill="#ffffff" d="M 290.367188 35.265625 C 290.5625 35.5 310.0625 58.953125 342.5 82.683594 C 372.414062 104.566406 419.761719 131.175781 475.464844 133.660156 C 492.621094 134.421875 503.652344 138.664062 509.1875 146.628906 C 518.953125 160.671875 511.167969 184.875 501.3125 215.523438 C 484.214844 268.679688 460.796875 341.480469 513.269531 412.292969 C 554.832031 468.382812 640.523438 525.050781 705.089844 562.707031 C 775.085938 603.53125 836.023438 631.433594 836.628906 631.710938 L 836.101562 632.871094 C 835.492188 632.59375 774.503906 604.671875 704.460938 563.816406 C 663.316406 539.820312 627.140625 516.121094 596.9375 493.378906 C 559.160156 464.929688 530.664062 437.90625 512.246094 413.050781 C 459.390625 341.714844 482.917969 268.550781 500.101562 215.132812 C 509.847656 184.824219 517.546875 160.882812 508.140625 147.355469 C 502.847656 139.742188 492.144531 135.679688 475.410156 134.933594 C 450.660156 133.828125 425.480469 127.945312 400.566406 117.441406 C 380.644531 109.042969 360.84375 97.6875 341.71875 83.695312 C 309.164062 59.871094 289.578125 36.316406 289.386719 36.082031 Z M 290.367188 35.265625 " fill-opacity="1" fill-rule="nonzero"/><path fill="#ffffff" d="M 292.585938 36.074219 C 292.792969 36.277344 313.699219 56.957031 347.527344 77.953125 C 378.726562 97.316406 427.613281 120.917969 483.335938 123.402344 C 499.28125 124.113281 509.46875 128.195312 514.472656 135.882812 C 524.105469 150.667969 513.8125 177.054688 500.785156 210.453125 C 478.21875 268.304688 447.3125 347.535156 501.996094 418.6875 C 543.480469 472.664062 632.375 528.882812 699.644531 566.539062 C 772.558594 607.359375 836.464844 635.761719 837.101562 636.039062 L 836.585938 637.207031 C 835.949219 636.921875 771.988281 608.496094 699.019531 567.648438 C 656.160156 543.65625 618.621094 520.132812 587.449219 497.730469 C 548.457031 469.714844 519.367188 443.378906 500.984375 419.457031 C 476.542969 387.660156 466.761719 351.746094 471.082031 309.660156 C 474.789062 273.578125 487.964844 239.796875 499.59375 209.984375 C 512.492188 176.921875 522.675781 150.808594 513.402344 136.570312 C 508.640625 129.25 498.785156 125.359375 483.277344 124.667969 C 458.539062 123.566406 433.074219 118.269531 407.585938 108.921875 C 387.203125 101.449219 366.757812 91.386719 346.824219 79.007812 C 312.882812 57.9375 291.894531 37.175781 291.683594 36.96875 Z M 292.585938 36.074219 " fill-opacity="1" fill-rule="nonzero"/><path fill="#ffffff" d="M 294.800781 36.878906 C 295.023438 37.054688 317.335938 54.960938 352.550781 73.21875 C 385.035156 90.0625 435.460938 110.660156 491.207031 113.140625 C 506.09375 113.804688 515.550781 117.730469 520.117188 125.136719 C 529.65625 140.621094 516.789062 169.28125 500.5 205.558594 C 472.398438 268.148438 433.914062 353.871094 490.71875 425.082031 C 532.109375 476.960938 624.195312 532.726562 694.15625 570.375 C 770 611.1875 836.90625 640.085938 837.574219 640.371094 L 837.066406 641.542969 C 836.402344 641.253906 769.453125 612.335938 693.5625 571.5 C 648.984375 547.511719 610.085938 524.164062 577.949219 502.109375 C 537.75 474.515625 508.066406 448.867188 489.722656 425.875 C 476.257812 408.996094 467.28125 390.175781 463.050781 369.9375 C 459.308594 352.066406 459.09375 333.183594 462.390625 312.210938 C 468.40625 273.9375 484.839844 237.332031 499.339844 205.035156 C 515.472656 169.097656 528.21875 140.714844 519.03125 125.804688 C 514.707031 118.78125 505.585938 115.054688 491.152344 114.414062 C 466.425781 113.3125 440.671875 108.601562 414.613281 100.414062 C 393.769531 93.867188 372.683594 85.089844 351.9375 74.335938 C 316.613281 56.019531 294.222656 38.046875 294.003906 37.871094 Z M 294.800781 36.878906 " fill-opacity="1" fill-rule="nonzero"/><g clip-path="url(#7a409e7224)"><path fill="#ffffff" d="M 297.007812 37.6875 C 297.242188 37.835938 320.960938 52.96875 357.570312 68.488281 C 391.34375 82.808594 443.308594 100.398438 499.074219 102.878906 C 513.03125 103.5 521.855469 107.273438 526.046875 114.40625 C 535.527344 130.539062 520.027344 161.539062 500.398438 200.789062 C 466.710938 268.164062 420.570312 360.433594 479.445312 431.472656 C 520.714844 481.28125 616.003906 536.597656 688.675781 574.230469 C 767.445312 615.03125 837.347656 644.410156 838.046875 644.703125 L 837.554688 645.878906 C 836.855469 645.582031 766.917969 616.1875 688.097656 575.367188 C 641.800781 551.390625 601.542969 528.222656 568.441406 506.503906 C 527.03125 479.339844 496.761719 454.367188 478.464844 432.289062 C 464.5 415.433594 455.539062 396.277344 451.835938 375.34375 C 448.566406 356.855469 449.199219 337.097656 453.777344 314.933594 C 462.132812 274.472656 481.859375 235.019531 499.265625 200.214844 C 508.730469 181.289062 517.667969 163.410156 522.8125 148.824219 C 528.441406 132.875 529.121094 122.144531 524.953125 115.050781 C 520.996094 108.316406 512.515625 104.753906 499.023438 104.152344 C 474.304688 103.050781 448.269531 98.925781 421.632812 91.898438 C 400.332031 86.273438 378.605469 78.789062 357.050781 69.648438 C 320.347656 54.082031 296.558594 38.90625 296.320312 38.757812 Z M 297.007812 37.6875 " fill-opacity="1" fill-rule="nonzero"/></g><g clip-path="url(#6cfc0fde9c)"><path fill="#ffffff" d="M 299.207031 38.5 C 299.457031 38.625 324.582031 50.980469 362.585938 63.761719 C 397.648438 75.554688 451.15625 90.136719 506.945312 92.621094 C 520.078125 93.203125 528.34375 96.828125 532.21875 103.699219 C 541.660156 120.429688 523.46875 153.832031 500.4375 196.121094 C 480.140625 233.386719 457.132812 275.628906 446.457031 318.109375 C 434.074219 367.367188 441.175781 406.539062 468.167969 437.867188 C 509.316406 485.628906 607.804688 540.492188 683.179688 578.109375 C 764.886719 618.890625 837.792969 648.738281 838.519531 649.035156 L 838.035156 650.214844 C 837.308594 649.917969 764.367188 620.054688 682.617188 579.257812 C 634.601562 555.292969 592.976562 532.300781 558.914062 510.921875 C 516.300781 484.175781 485.445312 459.878906 467.203125 438.707031 C 459.757812 430.058594 453.726562 420.652344 449.28125 410.753906 C 445.089844 401.414062 442.183594 391.355469 440.648438 380.859375 C 437.851562 361.78125 439.347656 341.15625 445.21875 317.800781 C 455.933594 275.164062 478.984375 232.847656 499.316406 195.511719 C 510.417969 175.132812 520.902344 155.878906 527.15625 140.222656 C 534.003906 123.085938 535.257812 111.683594 531.105469 104.324219 C 527.464844 97.871094 519.542969 94.457031 506.886719 93.894531 C 482.183594 92.792969 455.859375 89.257812 428.652344 83.378906 C 406.890625 78.679688 384.519531 72.484375 362.15625 64.960938 C 324.078125 52.152344 298.890625 39.765625 298.640625 39.644531 Z M 299.207031 38.5 " fill-opacity="1" fill-rule="nonzero"/></g><g clip-path="url(#2639600073)"><path fill="#ffffff" d="M 301.40625 39.324219 C 301.667969 39.417969 328.203125 48.996094 367.601562 59.039062 C 403.953125 68.304688 459 79.875 514.816406 82.359375 C 527.207031 82.914062 534.980469 86.394531 538.585938 93.011719 C 548.003906 110.300781 527.074219 146.152344 500.570312 191.535156 C 477.324219 231.351562 450.972656 276.484375 437.921875 321.144531 C 422.800781 372.890625 429.007812 413.164062 456.890625 444.265625 C 497.898438 490.007812 599.589844 544.417969 677.675781 582.007812 C 762.324219 622.757812 838.234375 653.066406 838.988281 653.367188 L 838.519531 654.550781 C 837.761719 654.25 761.816406 623.929688 677.132812 583.164062 C 627.390625 559.214844 584.40625 536.402344 549.378906 515.355469 C 505.558594 489.027344 474.125 465.398438 455.941406 445.117188 C 448.242188 436.527344 442.097656 427.078125 437.675781 417.03125 C 433.503906 407.554688 430.746094 397.269531 429.476562 386.457031 C 427.164062 366.808594 429.53125 345.324219 436.699219 320.789062 C 449.792969 275.976562 476.183594 230.773438 499.472656 190.894531 C 512.238281 169.03125 524.296875 148.375 531.683594 131.632812 C 539.769531 113.300781 541.605469 101.222656 537.464844 93.621094 C 534.09375 87.429688 526.664062 84.164062 514.757812 83.636719 C 458.832031 81.144531 403.683594 69.554688 367.269531 60.273438 C 327.8125 50.214844 301.234375 40.617188 300.96875 40.523438 Z M 301.40625 39.324219 " fill-opacity="1" fill-rule="nonzero"/></g></svg>